<svg xmlns="http://www.w3.org/2000/svg" width="101.706" height="97.29" viewBox="0 0 101.706 97.29">
  <g id="Arm_icon" transform="translate(0 0)">
    <g id="Group_1234" data-name="Group 1234" transform="translate(73.307 12.43)">
      <g id="Group_1233" data-name="Group 1233" transform="translate(0 0)">
        <path id="Path_2784" data-name="Path 2784" d="M-6481.719-3021.346h-5.793v-5.793a2.116,2.116,0,0,0-2.1-2.13h-8.362a2.117,2.117,0,0,0-2.116,2.117v5.793h-5.779a2.115,2.115,0,0,0-2.131,2.1v8.364a2.117,2.117,0,0,0,2.116,2.115h5.793v5.78a2.116,2.116,0,0,0,2.1,2.129h8.348a2.116,2.116,0,0,0,2.116-2.116h0v-5.793h5.793a2.116,2.116,0,0,0,2.13-2.1v-8.349A2.116,2.116,0,0,0-6481.719-3021.346Zm-.724,9.727h-6.489a1.42,1.42,0,0,0-1.42,1.42v6.489h-6.9v-6.489a1.42,1.42,0,0,0-1.42-1.42h-6.489v-6.887h6.489a1.42,1.42,0,0,0,1.42-1.419v-6.5h6.887v6.489a1.419,1.419,0,0,0,1.419,1.42h6.5Z" transform="translate(6508.002 3029.27)" fill="#fafafa"/>
      </g>
    </g>
    <g id="Group_1241" data-name="Group 1241" transform="translate(0 0)">
      <g id="Group_1236" data-name="Group 1236" transform="translate(42.97 53.555)">
        <g id="Group_1235" data-name="Group 1235">
          <path id="Path_2785" data-name="Path 2785" d="M-6557.959-2869.146c-.608-.046-1.224-.069-1.832-.069a24.153,24.153,0,0,0-15.571,5.678,53.245,53.245,0,0,0-22.515.636,1.427,1.427,0,0,0-1.018,1.739,1.426,1.426,0,0,0,1.74,1.019,50.594,50.594,0,0,1,21.919-.467,1.425,1.425,0,0,0,1.234-.333,21.317,21.317,0,0,1,15.828-5.36,1.346,1.346,0,0,1,1.227,1.345v9.357a1.425,1.425,0,0,0,1.426,1.425,1.424,1.424,0,0,0,1.424-1.425v-9.357A4.207,4.207,0,0,0-6557.959-2869.146Z" transform="translate(6598.941 2869.215)" fill="#fafafa"/>
        </g>
      </g>
      <g id="Group_1238" data-name="Group 1238" transform="translate(0.263 73.323)">
        <g id="Group_1237" data-name="Group 1237">
          <path id="Path_2786" data-name="Path 2786" d="M-6664.668-2798.924a1.426,1.426,0,0,0-1.426,1.426v14.321a2.928,2.928,0,0,1-2.04,2.777,153.56,153.56,0,0,1-42.972,1.847c-6.936-.754-14.09-2.353-15.494-2.982a1.422,1.422,0,0,0-.986-.066,23.035,23.035,0,0,1-13.857-1.564,8.525,8.525,0,0,1-4.1-4.021,27.782,27.782,0,0,1-2.414-8.549,1.425,1.425,0,0,0-1.594-1.233,1.426,1.426,0,0,0-1.235,1.594,30.721,30.721,0,0,0,2.676,9.427,11.388,11.388,0,0,0,5.472,5.37,26.055,26.055,0,0,0,15.354,1.826c8.717,2.785,21.19,3.793,30.5,3.793a170.42,170.42,0,0,0,29.4-2.69,5.789,5.789,0,0,0,4.135-5.529V-2797.5A1.425,1.425,0,0,0-6664.668-2798.924Z" transform="translate(6750.797 2798.924)" fill="#fafafa"/>
        </g>
      </g>
      <g id="Group_1240" data-name="Group 1240" transform="translate(0 0)">
        <g id="Group_1239" data-name="Group 1239">
          <path id="Path_2787" data-name="Path 2787" d="M-6698.545-3045.063c-1.166-1.9-3-2.059-5.083-2,1.309-2.268,2.421-3.827,2.421-6.46a4.968,4.968,0,0,0-1.454-3.687c-3.243-3.193-11.212-2.325-22.082-2.325-10.086,0-12.183,12.094-11.691,22.13a5.245,5.245,0,0,1-.849,3.138c-2.779,4.291-.776,7.189-3.715,12.276-6.712,11.618-10.323,22.5-10.733,32.33a1.425,1.425,0,0,0,1.425,1.485,1.426,1.426,0,0,0,1.423-1.366c.39-9.37,3.873-19.807,10.353-31.023,3.226-5.583,1.438-8.753,3.641-12.152a8.106,8.106,0,0,0,1.3-4.827c-.395-8.02.822-19.14,8.843-19.14,12.534,0,20.684-.961,20.684,3.162,0,2.259-1.284,3.44-3.028,6.845-5.259.889-6.861,1.977-9.327,1.006a1.62,1.62,0,0,1-1.039-1.984c.064-.058.075-1.183,1.91-1.369l3.839-.432a1.427,1.427,0,0,0,1.258-1.576,1.427,1.427,0,0,0-1.576-1.257l-3.824.431c-6.157.624-6.391,9.426,1.471,9.426,2.824,0,8.172-2.16,12.413-1.734,1.256.19,1.44,1.473,1.066,2.572-.4,1.188-6.492,3.146-7.68,3.539-4.389,1.452-5.053,4.16-11.2,7.8a7.364,7.364,0,0,0-3.662,6.017c0,.178-1.661,22.577-3.257,33.342l-1.66,1.909a1.424,1.424,0,0,0,.1,1.979,1.425,1.425,0,0,0,1.981-.037,36.525,36.525,0,0,1,11.038-7.485,1.425,1.425,0,0,0,.725-1.881,1.425,1.425,0,0,0-1.88-.725,40.762,40.762,0,0,0-7.15,4.069c1.2-10.673,2.986-29.9,2.952-31.181a4.559,4.559,0,0,1,2.262-3.555c6.463-3.825,6.992-6.338,10.646-7.547,5.062-1.675,8.707-3.037,9.484-5.326A5.162,5.162,0,0,0-6698.545-3045.063Z" transform="translate(6751.732 3059.644)" fill="#fafafa"/>
        </g>
      </g>
    </g>
  </g>
</svg>
