<svg id="Love_icon" xmlns="http://www.w3.org/2000/svg" width="77.199" height="98.063" viewBox="0 0 77.199 98.063">
  <path id="Path_2749" data-name="Path 2749" d="M204.328,53.82a1.691,1.691,0,0,0,2.391,0l10.365-10.364a6.712,6.712,0,1,0-9.493-9.493l-2.068,2.068-2.068-2.068a6.712,6.712,0,0,0-9.493,9.493ZM198.71,35.38a3.307,3.307,0,0,1,2.355.976l3.263,3.264a1.691,1.691,0,0,0,2.391,0l3.264-3.264a3.33,3.33,0,1,1,4.71,4.71h0l-9.169,9.169-9.169-9.169a3.331,3.331,0,0,1,2.355-5.685Z" transform="translate(-164.946 -31.998)" fill="#fafafa"/>
  <path id="Path_2750" data-name="Path 2750" d="M380.332,72a1.691,1.691,0,0,0-1.691,1.691v3.381a1.691,1.691,0,1,0,3.381,0V73.691A1.691,1.691,0,0,0,380.332,72Z" transform="translate(-312.144 -63.546)" fill="#fafafa"/>
  <path id="Path_2751" data-name="Path 2751" d="M349.463,93.916l-2.928-1.691a1.691,1.691,0,1,0-1.691,2.928l2.928,1.691a1.691,1.691,0,1,0,1.691-2.928Z" transform="translate(-284.823 -79.318)" fill="#fafafa"/>
  <path id="Path_2752" data-name="Path 2752" d="M347.773,124.225l-2.928,1.691a1.691,1.691,0,1,0,1.691,2.928l2.928-1.691a1.691,1.691,0,1,0-1.691-2.928Z" transform="translate(-284.823 -104.555)" fill="#fafafa"/>
  <path id="Path_2753" data-name="Path 2753" d="M380.332,136a1.691,1.691,0,0,0-1.691,1.691v3.381a1.691,1.691,0,1,0,3.381,0v-3.381A1.691,1.691,0,0,0,380.332,136Z" transform="translate(-312.144 -114.02)" fill="#fafafa"/>
  <path id="Path_2754" data-name="Path 2754" d="M404.889,125.916l-2.928-1.691a1.691,1.691,0,0,0-1.691,2.928l2.928,1.691a1.691,1.691,0,1,0,1.691-2.928Z" transform="translate(-328.536 -104.555)" fill="#fafafa"/>
  <path id="Path_2755" data-name="Path 2755" d="M401.117,97.07a1.684,1.684,0,0,0,.843-.227l2.929-1.691a1.691,1.691,0,1,0-1.691-2.928l-2.928,1.691a1.691,1.691,0,0,0,.847,3.155Z" transform="translate(-328.535 -79.317)" fill="#fafafa"/>
  <path id="Path_2756" data-name="Path 2756" d="M93.4,221.072a1.691,1.691,0,0,0,1.691-1.691v-1.691a1.691,1.691,0,0,0-3.381,0v1.691A1.691,1.691,0,0,0,93.4,221.072Z" transform="translate(-85.856 -177.113)" fill="#fafafa"/>
  <path id="Path_2757" data-name="Path 2757" d="M66.308,204.226l-1.464.845A1.691,1.691,0,1,0,66.535,208L68,207.154a1.691,1.691,0,1,0-1.691-2.928Z" transform="translate(-63.999 -167.648)" fill="#fafafa"/>
  <path id="Path_2758" data-name="Path 2758" d="M68,177.071l-1.464-.845a1.691,1.691,0,1,0-1.691,2.928l1.464.845A1.691,1.691,0,1,0,68,177.071Z" transform="translate(-63.999 -145.565)" fill="#fafafa"/>
  <path id="Path_2759" data-name="Path 2759" d="M93.4,165.072a1.691,1.691,0,0,0,1.691-1.691v-1.691a1.691,1.691,0,0,0-3.381,0v1.691A1.691,1.691,0,0,0,93.4,165.072Z" transform="translate(-85.856 -132.948)" fill="#fafafa"/>
  <path id="Path_2760" data-name="Path 2760" d="M114.186,180.224a1.686,1.686,0,0,0,.844-.227l1.464-.845a1.691,1.691,0,1,0-1.691-2.929l-1.464.845a1.691,1.691,0,0,0,.847,3.155Z" transform="translate(-102.244 -145.564)" fill="#fafafa"/>
  <path id="Path_2761" data-name="Path 2761" d="M113.344,207.154l1.464.845a1.691,1.691,0,0,0,1.691-2.929l-1.464-.845a1.691,1.691,0,0,0-1.691,2.929Z" transform="translate(-102.248 -167.647)" fill="#fafafa"/>
  <path id="Path_2762" data-name="Path 2762" d="M138.5,134.763a6.771,6.771,0,0,0-6.763,6.763v2.6a6.742,6.742,0,0,0-7.731.68,6.752,6.752,0,0,0-9.176-2.371v-7.673a6.763,6.763,0,1,0-13.526,0V159.64a7.509,7.509,0,1,0-12.153,8.822l12.164,17.568a12.814,12.814,0,0,0,2.148,6.588l1.223,1.833v9.632a1.691,1.691,0,0,0,1.691,1.691h33.814a1.691,1.691,0,0,0,1.691-1.691v-9.751a33.9,33.9,0,0,0,3.381-14.718V141.526a6.771,6.771,0,0,0-6.763-6.763ZM128.352,146.6a3.385,3.385,0,0,1,3.381,3.381v13.526a3.381,3.381,0,1,1-6.763,0V149.979A3.385,3.385,0,0,1,128.352,146.6Zm-10.144-1.691a3.385,3.385,0,0,1,3.381,3.381v13.526a3.381,3.381,0,0,1-6.763,0V148.289A3.385,3.385,0,0,1,118.208,144.907Zm23.67,34.707a30.5,30.5,0,0,1-3.2,13.568,1.688,1.688,0,0,0-.179.756v8.454H108.063v-8.454c0-.04,0-.079-.006-.119h0a1.126,1.126,0,0,0-.2-.676c-.021-.04-.09-.149-.091-.151l-1.5-2.249a9.447,9.447,0,0,1-1.592-5.258,1.691,1.691,0,0,0-.3-.962L91.929,166.536a4.129,4.129,0,0,1,6.816-4.66l3.374,5.422,0,.008,4.5,7.238a1.691,1.691,0,0,0,1.435.8h5.072a8.454,8.454,0,0,1,8.454,8.454v3.381a1.691,1.691,0,1,0,3.381,0v-3.381a11.835,11.835,0,0,0-11.835-11.835H109l-3.813-6.129-.507-4.947v-26.12a3.381,3.381,0,0,1,6.763,0v27.052a6.758,6.758,0,0,0,11.112,5.173,6.761,6.761,0,0,0,12.558-3.483V141.526a3.381,3.381,0,0,1,6.763,0Z" transform="translate(-82.702 -107.711)" fill="#fafafa"/>
</svg>
