<svg xmlns="http://www.w3.org/2000/svg" width="105.861" height="82.877" viewBox="0 0 105.861 82.877">
  <g id="Bag_Money_icon" data-name="Bag&amp;Money_icon" transform="translate(5697.136 -1666.437)">
    <path id="Path_2771" data-name="Path 2771" d="M-5620.369,1678.559h-17.509v-5.386a6.742,6.742,0,0,0-6.734-6.735h-24.242a6.742,6.742,0,0,0-6.733,6.735v5.386H-5693.1a4.041,4.041,0,0,0-4.041,4.041v29.979a4.058,4.058,0,0,0,2.693,3.8v18.745a4.04,4.04,0,0,0,4.041,4.039h49.473c-.014-.145-.022-.292-.022-.44a4.529,4.529,0,0,1,.6-2.253H-5690.4a1.346,1.346,0,0,1-1.346-1.346v-18.282l29.628,4.087v3.42a4.042,4.042,0,0,0,4.041,4.041h2.693a4.042,4.042,0,0,0,4.041-4.041v-3.42l10.922-1.506c-.043-.08-.083-.161-.12-.244a4.543,4.543,0,0,1-.409-1.888,4.038,4.038,0,0,1,.031-.519l-10.424,1.437v-1.942a4.04,4.04,0,0,0-4.041-4.041h-2.693a4.041,4.041,0,0,0-4.041,4.041v1.942l-31.163-4.3a1.35,1.35,0,0,1-1.161-1.335V1682.6a1.348,1.348,0,0,1,1.347-1.347h72.727a1.346,1.346,0,0,1,1.346,1.347v11.136h2.695V1682.6A4.04,4.04,0,0,0-5620.369,1678.559Zm-39.058,37.71a1.348,1.348,0,0,1,1.348-1.348h2.693a1.348,1.348,0,0,1,1.347,1.348v8.081a1.346,1.346,0,0,1-1.347,1.346h-2.693a1.346,1.346,0,0,1-1.348-1.346Zm13.468-37.71h-21.547v-4.041h21.547Zm5.388,0h-2.695v-5.386a1.346,1.346,0,0,0-1.346-1.347h-24.242a1.348,1.348,0,0,0-1.347,1.347v5.386h-2.693v-5.386a4.041,4.041,0,0,1,4.041-4.041h24.242a4.041,4.041,0,0,1,4.041,4.041Z" fill="#fafafa"/>
    <g id="Group_1208" data-name="Group 1208" transform="translate(-5604.41 1719.757)">
      <g id="Group_1207" data-name="Group 1207" transform="translate(0 0)">
        <path id="Path_2772" data-name="Path 2772" d="M-5089.415,2016.84a13.366,13.366,0,0,0-5.458-4.83,1.025,1.025,0,0,0-1.368.48,1.024,1.024,0,0,0,.479,1.369,11.348,11.348,0,0,1,6.4,10.173,11.311,11.311,0,0,1-1.314,5.291,1.025,1.025,0,0,0,.424,1.387,1.015,1.015,0,0,0,.48.12,1.025,1.025,0,0,0,.906-.544,13.356,13.356,0,0,0,1.555-6.254A13.291,13.291,0,0,0-5089.415,2016.84Z" transform="translate(5096.343 -2011.908)" fill="#fafafa"/>
      </g>
    </g>
    <g id="Group_1210" data-name="Group 1210" transform="translate(-5608.196 1718.549)">
      <g id="Group_1209" data-name="Group 1209" transform="translate(0)">
        <path id="Path_2773" data-name="Path 2773" d="M-5119.783,2004.078h-.069a1.026,1.026,0,0,0-1.025,1.026,1.026,1.026,0,0,0,1.025,1.026h.065a1.025,1.025,0,0,0,1.024-1.021A1.025,1.025,0,0,0-5119.783,2004.078Z" transform="translate(5120.878 -2004.078)" fill="#fafafa"/>
      </g>
    </g>
    <g id="Group_1212" data-name="Group 1212" transform="translate(-5622.041 1725.082)">
      <g id="Group_1211" data-name="Group 1211" transform="translate(0)">
        <path id="Path_2774" data-name="Path 2774" d="M-5202.126,2063.382a11.35,11.35,0,0,1-6.4-10.173,11.3,11.3,0,0,1,1.315-5.291,1.025,1.025,0,0,0-.424-1.387,1.025,1.025,0,0,0-1.387.424,13.357,13.357,0,0,0-1.556,6.254,13.284,13.284,0,0,0,2.1,7.191,13.365,13.365,0,0,0,5.458,4.83,1.019,1.019,0,0,0,.443.1,1.026,1.026,0,0,0,.925-.581A1.025,1.025,0,0,0-5202.126,2063.382Z" transform="translate(5210.577 -2046.41)" fill="#fafafa"/>
      </g>
    </g>
    <g id="Group_1214" data-name="Group 1214" transform="translate(-5611.337 1743.161)">
      <g id="Group_1213" data-name="Group 1213" transform="translate(0 0)">
        <path id="Path_2775" data-name="Path 2775" d="M-5140.135,2163.544h-.06a1.024,1.024,0,0,0-1.029,1.021,1.025,1.025,0,0,0,1.021,1.03h.068a1.026,1.026,0,0,0,1.026-1.025A1.026,1.026,0,0,0-5140.135,2163.544Z" transform="translate(5141.224 -2163.544)" fill="#fafafa"/>
      </g>
    </g>
    <g id="Group_1216" data-name="Group 1216" transform="translate(-5643.781 1697.423)">
      <g id="Group_1215" data-name="Group 1215" transform="translate(0 0)">
        <path id="Path_2776" data-name="Path 2776" d="M-5311.71,1884.858a4.705,4.705,0,0,0-.456-.838h2.67a4.723,4.723,0,0,0,4.717-4.717,4.723,4.723,0,0,0-4.717-4.718h-8.212a4.687,4.687,0,0,0,.829-2.666,4.723,4.723,0,0,0-4.717-4.717h-25.125a4.723,4.723,0,0,0-4.718,4.717,4.723,4.723,0,0,0,4.718,4.717h8.212a4.69,4.69,0,0,0-.828,2.666,4.69,4.69,0,0,0,.828,2.666h-2.675a4.723,4.723,0,0,0-4.717,4.717,4.71,4.71,0,0,0,1.786,3.692,4.711,4.711,0,0,0-1.786,3.692,4.71,4.71,0,0,0,1.786,3.692,4.711,4.711,0,0,0-1.786,3.692,4.711,4.711,0,0,0,1.786,3.692,4.711,4.711,0,0,0-1.786,3.692,4.723,4.723,0,0,0,4.717,4.717h12.086a17.387,17.387,0,0,0,12.731,5.538,17.454,17.454,0,0,0,17.434-17.434A17.464,17.464,0,0,0-5311.71,1884.858Zm2.214-8.221a2.669,2.669,0,0,1,2.667,2.666,2.669,2.669,0,0,1-2.667,2.666h-25.125a2.669,2.669,0,0,1-2.667-2.666,2.669,2.669,0,0,1,2.667-2.666Zm-37.226-2.051a2.669,2.669,0,0,1-2.667-2.666,2.669,2.669,0,0,1,2.667-2.666h25.125a2.669,2.669,0,0,1,2.666,2.666,2.669,2.669,0,0,1-2.666,2.666Zm5.537,9.435h25.125a2.664,2.664,0,0,1,1.164.268c-.485-.041-.975-.063-1.471-.063a17.38,17.38,0,0,0-12.336,5.127h-12.481a2.669,2.669,0,0,1-2.666-2.666A2.669,2.669,0,0,1-5341.185,1884.02Zm0,7.384h10.729a17.368,17.368,0,0,0-2.636,5.333h-8.093a2.669,2.669,0,0,1-2.666-2.666A2.669,2.669,0,0,1-5341.185,1891.4Zm0,7.384h7.622a17.452,17.452,0,0,0-.238,2.871,17.489,17.489,0,0,0,.174,2.461h-7.559a2.669,2.669,0,0,1-2.666-2.666A2.669,2.669,0,0,1-5341.185,1898.788Zm0,12.716a2.669,2.669,0,0,1-2.666-2.666,2.669,2.669,0,0,1,2.666-2.666h7.978a17.363,17.363,0,0,0,2.46,5.333Zm24.817,5.538a15.4,15.4,0,0,1-15.382-15.383,15.4,15.4,0,0,1,15.382-15.383,15.4,15.4,0,0,1,15.383,15.383A15.4,15.4,0,0,1-5316.368,1917.042Z" transform="translate(5351.44 -1867.202)" fill="#fafafa"/>
      </g>
    </g>
    <g id="Group_1217" data-name="Group 1217" transform="translate(-5611.991 1722.844)">
      <path id="Path_2777" data-name="Path 2777" d="M-5137.394,2043.608q0,3.259-4,3.756v2.607h-1.024v-2.514h-.5a13.065,13.065,0,0,1-2.545-.28v-12.726a13.093,13.093,0,0,1,2.825-.4h.217v-2.142h1.024v2.2q3.476.465,3.477,3.29a3.011,3.011,0,0,1-1.987,2.949,4.131,4.131,0,0,1,1.676,1.117A3.107,3.107,0,0,1-5137.394,2043.608Zm-1.676-6.177a2.017,2.017,0,0,0-1.18-1.893,5.182,5.182,0,0,0-2.39-.5,8.364,8.364,0,0,0-1.645.217v4.594h2.172a3.306,3.306,0,0,0,2.235-.7A2.191,2.191,0,0,0-5139.07,2037.431Zm.559,6.208a2.386,2.386,0,0,0-1.179-2.142,5.411,5.411,0,0,0-2.763-.621h-1.831v5.432a6.608,6.608,0,0,0,1.614.155,5.692,5.692,0,0,0,2.793-.621A2.379,2.379,0,0,0-5138.511,2043.639Z" transform="translate(5145.464 -2031.906)" fill="#fafafa" stroke="#fff" stroke-miterlimit="10" stroke-width="1.77"/>
    </g>
  </g>
</svg>
