<svg xmlns="http://www.w3.org/2000/svg" xmlns:xlink="http://www.w3.org/1999/xlink" width="375" height="715" viewBox="0 0 375 715">
  <defs>
    <clipPath id="clip-path">
      <rect id="Rectangle_2777" data-name="Rectangle 2777" width="375" height="715" transform="translate(0 812)" fill="#fff" stroke="#707070" stroke-width="1"/>
    </clipPath>
    <linearGradient id="linear-gradient" x1="0.5" y1="-0.211" x2="0.5" y2="1.233" gradientUnits="objectBoundingBox">
      <stop offset="0" stop-color="#fff"/>
      <stop offset="1" stop-color="#93c5eb"/>
    </linearGradient>
    <linearGradient id="linear-gradient-2" x1="0.5" y1="0.154" x2="0.5" y2="3.36" xlink:href="#linear-gradient"/>
    <linearGradient id="linear-gradient-3" x1="0.5" y1="0" x2="0.5" y2="0.999" xlink:href="#linear-gradient"/>
    <linearGradient id="linear-gradient-4" x1="0.5" y1="-0.001" x2="0.5" y2="1" xlink:href="#linear-gradient"/>
    <linearGradient id="linear-gradient-5" x1="0.5" y1="-2.575" x2="0.5" y2="0.665" gradientUnits="objectBoundingBox">
      <stop offset="0" stop-color="#00cce4"/>
      <stop offset="1" stop-color="#192956"/>
    </linearGradient>
    <linearGradient id="linear-gradient-6" x1="0.5" y1="-10.96" x2="0.5" y2="3.129" xlink:href="#linear-gradient-5"/>
  </defs>
  <g id="Mask_Group_3" data-name="Mask Group 3" transform="translate(0 -812)" clip-path="url(#clip-path)">
    <g id="Group_1283" data-name="Group 1283">
      <g id="Snow_ground_01" data-name="Snow ground_01" transform="translate(-54 491.002)">
        <g id="Layer_3" data-name="Layer 3">
          <path id="Path_3988" data-name="Path 3988" d="M420,2.76c-24.78,3.4-49.48,8.31-73.63,14.09-15.42,3.68-30.74,7.71-46.27,11-15.73,3.37-31.7,5.93-47.76,7.83-31.63,3.74-60.37,5.84-92.31,5-31.24-.85-66-4.35-96.16-11.35C49.28,26,35,21.87,21.52,15.9A122.71,122.71,0,0,1,3.29,6C2.14,5.26,1.05,4.47,0,3.66V858H475.23V.53C469.87.27,464.51.08,459.15,0A264,264,0,0,0,420,2.76Z" fill="url(#linear-gradient)"/>
          <path id="Path_3989" data-name="Path 3989" d="M8.17,17.6c5.62,3.64,11.23,7.28,17.2,10.52a175.841,175.841,0,0,0,20.87,9.62,152.651,152.651,0,0,0,23.13,6.53c3.94.83,33.49,5.5,28.54,12.22-1.57,2.12-5.45,2.62-8.11,2.82-4,.31-8,.26-12,.22-8.54-.07-17.88-.83-26.24,1-1.83.4-5.82,1.41-5.4,3.64.29,1.52,2.32,2.49,3.78,3.1,5.92,2.49,12.82,3.46,19.27,4.38,8.45,1.2,17,2,25.51,2.67q22.5,1.725,45,2.16c33.12.59,66.2-1,99.24-2.85,32.09-1.78,64.34-4,95.79-10a298.358,298.358,0,0,0,31.26-7.37,103.21,103.21,0,0,0,11.2-4c2.25-1,6.48-2.53,7.31-4.82,2.31-6.34-31.94-1.9-32.11-9.56-.07-2.79,3.71-5.06,6.13-6.35,4.9-2.63,10.38-4.35,15.81-6,6.77-2,13.35-4.49,20.19-6.39A217.845,217.845,0,0,1,417.55,14a312.8,312.8,0,0,1,47.89-4.37h9.79V.53C469.87.27,464.51.08,459.15,0A264,264,0,0,0,420,2.76c-24.78,3.4-49.48,8.31-73.63,14.09-15.42,3.68-30.74,7.71-46.27,11-15.73,3.37-31.7,5.93-47.76,7.83-31.63,3.74-63.84,5.84-95.79,5-31.24-.85-62.49-4.35-92.68-11.35C49.28,26,35,21.87,21.52,15.9A122.71,122.71,0,0,1,3.29,6C2.14,5.26,1.05,4.47,0,3.66V11.8a68.4,68.4,0,0,0,8.17,5.8Z" opacity="0.39" fill="url(#linear-gradient-2)"/>
          <path id="Path_3990" data-name="Path 3990" d="M457.46,38.61c-1.87-2.15-4.84-3.24-7.78-3.91-3.37-.77-6.86-1-10.27-1.58-3.11-.5-6.34-1.23-8.81-3a7.59,7.59,0,0,1,1.17-.38c1-.27,1.94-.49,2.91-.7,2.56-.55,5.14-1.06,7.69-1.65a38.419,38.419,0,0,0,6.93-2.14c1.23-.55,2.86-1.47,2.79-2.82-.09-1.8-3-3-4.63-3.57-3.69-1.32-7.93-1.53-11.88-1.54a80.82,80.82,0,0,0-26.48,4.33,55.871,55.871,0,0,0-9.1,4.06c-1.12.63-2.38,1-3.58,1.54a19.55,19.55,0,0,0-3.56,2,6.5,6.5,0,0,0-2.16,2.46,4.88,4.88,0,0,0-1.26,3.75,4.08,4.08,0,0,0,1.71,2.91,12,12,0,0,0,4.49,1.59c1.6.32,3.23.5,4.86.71,2.33.31,4.68.83,7,1.25a37.42,37.42,0,0,1,7.32,2c1.69.67,4.14,1.25,4.75,3,.45,1.26-.9,2.47-1.88,3.25A28,28,0,0,1,413,52.91a100.8,100.8,0,0,1-14.37,5.37c-5.4,1.74-10.86,3.34-16.35,4.85-2.42.67-4.81,1.33-7.17,2.15a65.792,65.792,0,0,0-7.5,3.06c-1.94,1-4.16,2.12-5.35,3.79-1,1.43-.48,2.79,1.06,3.73,3.4,2.08,8,2.27,12,2.31,2.55,0,5.11-.07,7.67,0,2.77,0,5.54.13,8.31.18a170,170,0,0,0,17.19-.71,146.339,146.339,0,0,0,16.34-2.31c2.62-.54,5.25-1.13,7.86-1.72a42.728,42.728,0,0,0,6.93-2.11c1.58-.66,7.18-3.13,4.14-5a13.74,13.74,0,0,0-4.18-1.34,25.152,25.152,0,0,0-3.94-.67,36.859,36.859,0,0,1-4.81-.67,13.64,13.64,0,0,1-4.54-1.55c-2.84-1.78,1.71-3.82,3.35-4.51,4.62-2,9.66-3.13,14.42-4.8a58,58,0,0,0,8.72-3.78c2.27-1.24,4.62-2.8,5.81-4.92S458.92,40.29,457.46,38.61Z" opacity="0.4" fill="url(#linear-gradient-3)"/>
          <path id="Path_3991" data-name="Path 3991" d="M52.8,51.12c-6,.46-12.25.12-17.95,1.92-2.18.68-4.29,1.85-5,3.82-1.06,2.81,1.19,5.67,3,7.81,2,2.34,5.3,5.19,4.89,8.35a5.55,5.55,0,0,1-3.1,3.92c-4.14,2.28-9.87,2.26-14.57,1.71-5.2-.59-10.74-2.18-14.58-5.34a8.77,8.77,0,0,1-3.22-5.07c-.48-2.61,1-4.93,3.35-6.49s5.44-2.43,8.15-3.61c2.35-1,4.6-2.39,5.44-4.61.73-2-.55-3.53-2.22-4.77-2-1.52-4.46-2.62-6.38-4.26-1.54-1.32-2.37-3-1.88-4.85s3-2.5,5.07-2.67a40.23,40.23,0,0,1,7.83.31c1.19.13,2.4.31,3.61.45.62.17,1.23.33,1.86.46l4.49,1c2.9.65,5.79,1.32,8.66,2.05,2.46.63,4.89,1.34,7.38,1.89,2.22.48,4.44,1,6.6,1.66s4.63,1.54,5.88,3.26C61.89,50.48,54.43,51,52.8,51.12Z" opacity="0.4" fill="url(#linear-gradient-4)"/>
        </g>
      </g>
      <g id="Section_02" transform="translate(0 41)">
        <g id="Dark_BG" transform="translate(-6 1198.001)">
          <g id="Layer_3-2" data-name="Layer 3">
            <path id="Path_3992" data-name="Path 3992" d="M0,284.55c59.82,5.77,126.12-14.37,180.14-39,67.16-30.59,144.87-35.5,206.09.17V36.64S319.47,8.31,231.87,15.13,134.21,65.06,0,76.5Z" fill="url(#linear-gradient-5)"/>
            <path id="Path_3993" data-name="Path 3993" d="M0,59.37s46.53.35,102.83-16.09,57.65-20.64,91.92-27.22C252.53,5,306.2,26.35,336.78,35s49.45,5.39,49.45,5.39V35.23S334.48,8,278.69,2.59C198.45-5.13,179,5.42,95.2,20.78,55.13,28.13,0,21,0,21Z" fill="url(#linear-gradient-6)"/>
          </g>
        </g>
      </g>
    </g>
  </g>
</svg>
