<svg xmlns="http://www.w3.org/2000/svg" xmlns:xlink="http://www.w3.org/1999/xlink" width="1920" height="1178" viewBox="0 0 1920 1178">
  <defs>
    <clipPath id="clip-path">
      <rect id="Rectangle_2775" data-name="Rectangle 2775" width="1920" height="1178" transform="translate(0 1081)" fill="#fff" stroke="#707070" stroke-width="1"/>
    </clipPath>
    <linearGradient id="linear-gradient" x1="0.5" y1="-0.193" x2="0.5" y2="2.31" gradientUnits="objectBoundingBox">
      <stop offset="0" stop-color="#fff"/>
      <stop offset="1" stop-color="#93c5eb"/>
    </linearGradient>
    <linearGradient id="linear-gradient-2" x1="0.5" y1="0.154" x2="0.5" y2="3.359" xlink:href="#linear-gradient"/>
    <linearGradient id="linear-gradient-3" x1="0.5" y1="0" x2="0.5" y2="1" xlink:href="#linear-gradient"/>
    <linearGradient id="linear-gradient-4" x1="0.5" y1="0" x2="0.5" y2="1" xlink:href="#linear-gradient"/>
    <linearGradient id="linear-gradient-5" x1="0.5" y1="-2.575" x2="0.5" y2="0.665" gradientUnits="objectBoundingBox">
      <stop offset="0" stop-color="#00cce4"/>
      <stop offset="1" stop-color="#192956"/>
    </linearGradient>
    <linearGradient id="linear-gradient-6" x1="0.5" y1="-10.96" x2="0.5" y2="3.129" xlink:href="#linear-gradient-5"/>
  </defs>
  <g id="Mask_Group_3" data-name="Mask Group 3" transform="translate(0 -1081)" clip-path="url(#clip-path)">
    <g id="Group_1248" data-name="Group 1248">
      <g id="Snowground_1" transform="translate(-21 526.852)">
        <g id="Layer_2" data-name="Layer 2">
          <g id="Layer_3" data-name="Layer 3">
            <path id="Path_237" data-name="Path 237" d="M1734.638,9.971c-102.324,12.3-204.345,30.02-304.061,50.864-63.69,13.3-126.944,27.845-191.1,39.874-64.928,12.178-130.948,21.417-197.284,28.269-130.657,13.493-263.692,21.077-395.562,17.948-129.031-3.066-258.111-15.731-382.8-40.988C203.545,93.729,144.392,78.964,88.856,57.409a535.354,535.354,0,0,1-75.23-35.642C8.846,19,4.344,16.145,0,13.217v1384H1962.73V1.9C1940.622.976,1918.49.3,1896.346.053,1842.181-.53,1788.076,3.564,1734.638,9.971Z" transform="translate(0 0.002)" fill="url(#linear-gradient)"/>
            <path id="Path_238" data-name="Path 238" d="M33.732,63.561c23.3,13.143,46.351,26.286,71.056,37.954a775.337,775.337,0,0,0,86.15,34.751c30.893,10.321,62.684,17.513,95.518,23.57,16.3,3,138.326,19.868,117.868,44.128-6.455,7.648-22.5,9.462-33.5,10.194-16.417,1.061-32.956.933-49.421.8-35.273-.276-73.847-3-108.367,3.66-7.547,1.464-24.061,5.092-22.3,13.154,1.213,5.474,9.574,8.974,15.592,11.191,24.474,9,52.94,12.5,79.6,15.805,34.921,4.339,70.134,7.266,105.383,9.642,61.8,4.158,123.9,6.821,185.951,7.8,136.785,2.122,273.424-3.681,409.857-10.289,132.55-6.428,265.731-14.522,395.637-36.14,43.476-7.234,87.157-15.371,129.141-26.593a468.971,468.971,0,0,0,46.266-14.363c9.295-3.543,26.767-9.133,30.2-17.386,9.525-22.913-131.895-6.853-132.623-34.517-.267-10.088,15.325-18.256,25.323-22.944,20.24-9.483,42.857-15.7,65.292-21.629,27.908-7.425,55.161-16.23,83.4-23.1Q1676.52,57.7,1724.512,50.62c65.523-9.462,131.046-15.19,197.782-15.784q20.166-.17,40.394,0V1.952C1940.628.976,1918.5.3,1896.352.053c-54.165-.583-108.27,3.511-161.708,9.918-102.325,12.3-204.346,30.02-304.062,50.864-63.69,13.3-126.944,27.845-191.1,39.874-64.928,12.178-130.949,21.417-197.284,28.269-130.657,13.493-263.693,21.077-395.564,17.948-129.031-3.066-258.111-15.731-382.8-40.988C203.545,93.729,144.393,78.964,88.856,57.409a535.356,535.356,0,0,1-75.23-35.642C8.846,19,4.344,16.145,0,13.217V42.6C10.29,50.556,22.763,57.356,33.732,63.561Z" transform="translate(0 0.002)" opacity="0.39" fill="url(#linear-gradient-2)"/>
            <path id="Path_239" data-name="Path 239" d="M1576.913,135.81c-6.746-7.733-17.492-11.668-28.11-14.119-12.146-2.758-24.748-3.734-37.073-5.7-11.233-1.793-22.881-4.434-31.823-10.8a28.2,28.2,0,0,1,4.243-1.368c3.458-.976,7-1.75,10.533-2.514,9.25-2,18.553-3.819,27.76-5.983,8.486-1.994,17.174-4.179,25-7.7,4.455-1.994,10.353-5.3,10.1-10.2-.329-6.5-10.926-10.777-16.75-12.856-13.323-4.773-28.641-5.537-42.887-5.569-32.523-.064-65.492,5.124-95.607,15.614a205.007,205.007,0,0,0-32.8,14.617c-4.052,2.27-8.6,3.67-12.931,5.558a70.949,70.949,0,0,0-12.846,7.15,23.538,23.538,0,0,0-7.818,8.879c-3.182,3.978-5.219,8.539-4.53,13.557a14.691,14.691,0,0,0,6.163,10.512c4.5,3.182,10.608,4.614,16.188,5.739,5.781,1.167,11.668,1.8,17.556,2.578,8.422,1.114,16.887,2.97,25.225,4.487a137.4,137.4,0,0,1,26.424,7.075c6.078,2.44,14.925,4.529,17.142,10.735,1.612,4.551-3.257,8.921-6.779,11.668-5.06,4.031-11.064,7.213-16.972,10.215-16.219,8.2-34.3,13.705-51.882,19.391-19.5,6.3-39.248,12.072-59.053,17.545-8.741,2.408-17.365,4.795-25.883,7.754a237.191,237.191,0,0,0-27.071,11.053c-7.011,3.448-15.042,7.627-19.338,13.684-3.66,5.155-1.719,10.045,3.84,13.451,12.263,7.5,28.927,8.21,43.428,8.327,9.229.074,18.458-.244,27.686-.159,10,.1,20.006.467,30.02.647a611.836,611.836,0,0,0,62.055-2.578,517.8,517.8,0,0,0,59-8.338c9.483-1.931,18.945-4.063,28.375-6.195a150.784,150.784,0,0,0,25.024-7.627c5.707-2.4,25.936-11.3,14.957-18.1-4.243-2.652-10.067-3.723-15.095-4.848a92.12,92.12,0,0,0-14.214-2.419,130.484,130.484,0,0,1-17.386-2.387c-5.654-1.146-11.668-2.641-16.378-5.611-10.258-6.418,6.195-13.79,12.1-16.283,16.665-7.054,34.878-11.3,52.062-17.333a209.228,209.228,0,0,0,31.473-13.631c8.189-4.508,16.7-10.109,20.982-17.789C1585,148.826,1582.185,141.867,1576.913,135.81Z" transform="translate(321.683 3.587)" opacity="0.22" fill="url(#linear-gradient-3)"/>
            <path id="Path_240" data-name="Path 240" d="M190.186,176.941c-21.512,1.665-44.223.445-64.813,6.906-7.881,2.482-15.466,6.683-18.15,13.79-3.819,10.141,4.243,20.483,11.011,28.206,7.362,8.486,19.094,18.733,17.662,30.136-.774,6.046-5.378,10.947-11.223,14.172-14.936,8.232-35.61,8.136-52.572,6.184-18.776-2.121-38.782-7.881-52.646-19.306-6-4.9-10.364-11.138-11.637-18.256-1.729-9.441,3.416-17.8,12.093-23.454s19.656-8.762,29.489-13.026c8.486-3.681,16.58-8.624,19.614-16.654,2.673-7.043-1.984-12.729-8.009-17.237-7.362-5.463-16.1-9.441-23.019-15.36-5.622-4.742-8.635-10.788-6.842-17.471,1.878-7.054,10.937-9.016,18.288-9.664,9.377-.817,18.966.138,28.269,1.135,4.317.467,8.688,1.135,13.069,1.634,2.206.583,4.423,1.167,6.683,1.665q8.115,1.771,16.23,3.575c10.459,2.344,20.9,4.763,31.261,7.425,8.9,2.259,17.651,4.826,26.646,6.8,8.03,1.761,16.049,3.554,23.835,6s16.718,5.569,21.215,11.775C223,174.618,196.094,176.5,190.186,176.941Z" transform="translate(0.455 7.634)" opacity="0.23" fill="url(#linear-gradient-4)"/>
          </g>
        </g>
      </g>
      <g id="Section_02">
        <g id="Dark_BG" transform="translate(-306.651 1629.494)">
          <g id="Layer_3-2" data-name="Layer 3" transform="translate(0 -0.004)">
            <path id="Path_1401" data-name="Path 1401" d="M0,578.007c353.921,91.252,827.042,41.674,1181.308-42.976,440.435-105.226,950.08-122.117,1351.458.573V85.816S2094.9-11.6,1520.475,11.845,912.439,199.676,0,183.97Z" transform="translate(0 2.485)" fill="url(#linear-gradient-5)"/>
            <path id="Path_1402" data-name="Path 1402" d="M0,153.347s281.565,33.1,674.324-7.605c372.546-38.613,378-71,602.722-93.648,378.917-38.157,730.841,35.4,931.366,65.115s324.3,18.532,324.3,18.532v-17.7S2193.342,24.276,1827.513,5.77c-526.164-26.528-650.462,45.02-1203.225,79.388C360.5,101.58,0,69.166,0,69.166Z" transform="translate(0 0.004)" fill="url(#linear-gradient-6)"/>
          </g>
        </g>
      </g>
    </g>
  </g>
</svg>
