<svg xmlns="http://www.w3.org/2000/svg" xmlns:xlink="http://www.w3.org/1999/xlink" width="375" height="715" viewBox="0 0 375 715">
  <defs>
    <clipPath id="clip-path">
      <rect id="Rectangle_2778" data-name="Rectangle 2778" width="375" height="715" transform="translate(0 811)" fill="#fff" stroke="#707070" stroke-width="1"/>
    </clipPath>
    <linearGradient id="linear-gradient" x1="0.5" y1="-2.575" x2="0.5" y2="0.665" gradientUnits="objectBoundingBox">
      <stop offset="0" stop-color="#00cce4"/>
      <stop offset="1" stop-color="#192956"/>
    </linearGradient>
    <linearGradient id="linear-gradient-2" x1="0.5" y1="-10.96" x2="0.5" y2="3.129" xlink:href="#linear-gradient"/>
  </defs>
  <g id="Mask_Group_4" data-name="Mask Group 4" transform="translate(0 -811)" clip-path="url(#clip-path)">
    <g id="Section_02" transform="translate(0 41)">
      <g id="Dark_BG" transform="translate(-6 1198.001)">
        <g id="Layer_3" data-name="Layer 3">
          <path id="Path_3992" data-name="Path 3992" d="M0,284.55c59.82,5.77,126.12-14.37,180.14-39,67.16-30.59,144.87-35.5,206.09.17V36.64S319.47,8.31,231.87,15.13,134.21,65.06,0,76.5Z" fill="url(#linear-gradient)"/>
          <path id="Path_3993" data-name="Path 3993" d="M0,59.37s46.53.35,102.83-16.09,57.65-20.64,91.92-27.22C252.53,5,306.2,26.35,336.78,35s49.45,5.39,49.45,5.39V35.23S334.48,8,278.69,2.59C198.45-5.13,179,5.42,95.2,20.78,55.13,28.13,0,21,0,21Z" fill="url(#linear-gradient-2)"/>
        </g>
      </g>
    </g>
  </g>
</svg>
