<svg xmlns="http://www.w3.org/2000/svg" xmlns:xlink="http://www.w3.org/1999/xlink" width="375" height="307" viewBox="0 0 375 307">
  <defs>
    <clipPath id="clip-path">
      <rect id="Rectangle_2777" data-name="Rectangle 2777" width="375" height="307" transform="translate(0 746)" fill="#fff" stroke="#707070" stroke-width="1"/>
    </clipPath>
    <linearGradient id="linear-gradient" x1="0.377" y1="-0.372" x2="0.773" y2="2.279" gradientUnits="objectBoundingBox">
      <stop offset="0" stop-color="#00cce4"/>
      <stop offset="0.48" stop-color="#00a4e4"/>
      <stop offset="0.56" stop-color="#01a0e0"/>
      <stop offset="0.65" stop-color="#0396d3"/>
      <stop offset="0.74" stop-color="#0783be"/>
      <stop offset="0.83" stop-color="#0c6aa1"/>
      <stop offset="0.92" stop-color="#124a7c"/>
      <stop offset="1" stop-color="#192956"/>
    </linearGradient>
    <linearGradient id="linear-gradient-2" x1="9.035" y1="-62.401" x2="10.037" y2="-62.401" gradientUnits="objectBoundingBox">
      <stop offset="0.01" stop-color="#6d8cff"/>
      <stop offset="0.99" stop-color="#9552f7"/>
    </linearGradient>
    <linearGradient id="linear-gradient-3" x1="2.039" y1="-7.646" x2="3.047" y2="-7.646" gradientUnits="objectBoundingBox">
      <stop offset="0"/>
      <stop offset="0.98" stop-color="#ffa0ff"/>
    </linearGradient>
    <linearGradient id="linear-gradient-4" x1="0.06" y1="1.087" x2="1.057" y2="1.087" gradientUnits="objectBoundingBox">
      <stop offset="0" stop-color="#dc1d28"/>
      <stop offset="1" stop-color="#ba2529"/>
    </linearGradient>
    <linearGradient id="linear-gradient-5" x1="0.812" y1="26.773" x2="0.812" y2="25.831" gradientUnits="objectBoundingBox">
      <stop offset="0" stop-color="#d80e27"/>
      <stop offset="0.99" stop-color="#f12e44"/>
    </linearGradient>
    <linearGradient id="linear-gradient-6" x1="0.006" y1="1.081" x2="1.006" y2="1.081" xlink:href="#linear-gradient-4"/>
    <linearGradient id="linear-gradient-7" x1="-13.991" y1="86.425" x2="-13.991" y2="85.603" xlink:href="#linear-gradient-5"/>
    <radialGradient id="radial-gradient" cx="0.45" cy="-0.073" r="2.385" gradientTransform="translate(-0.044) scale(1.089 1)" gradientUnits="objectBoundingBox">
      <stop offset="0.01" stop-color="#ffcf25"/>
      <stop offset="0.89" stop-color="#ff6b00"/>
    </radialGradient>
    <linearGradient id="linear-gradient-8" x1="1.558" y1="14.033" x2="2.561" y2="14.033" gradientUnits="objectBoundingBox">
      <stop offset="0" stop-color="#ff9827"/>
      <stop offset="1" stop-color="#ffb309"/>
    </linearGradient>
    <linearGradient id="linear-gradient-9" x1="0.281" y1="-0.072" x2="0.88" y2="1.384" xlink:href="#linear-gradient"/>
    <linearGradient id="linear-gradient-10" x1="-0.925" y1="26.278" x2="0.079" y2="26.278" xlink:href="#linear-gradient-2"/>
    <linearGradient id="linear-gradient-11" y1="0.5" x2="1" y2="0.5" gradientUnits="objectBoundingBox">
      <stop offset="0" stop-color="#f1f9fd"/>
      <stop offset="1" stop-color="#cde1ec"/>
    </linearGradient>
    <linearGradient id="linear-gradient-12" x1="0" y1="0.5" x2="1" y2="0.5" xlink:href="#linear-gradient-11"/>
    <linearGradient id="linear-gradient-13" x1="0.933" y1="-0.052" x2="-0.092" y2="1.157" xlink:href="#linear-gradient"/>
    <linearGradient id="linear-gradient-14" x1="6.843" y1="-77.381" x2="7.864" y2="-77.381" xlink:href="#linear-gradient-2"/>
    <linearGradient id="linear-gradient-15" x1="0" y1="0.5" x2="1" y2="0.5" xlink:href="#linear-gradient-4"/>
    <linearGradient id="linear-gradient-16" x1="-0.261" y1="-12.832" x2="-0.261" y2="-13.791" xlink:href="#linear-gradient-5"/>
    <linearGradient id="linear-gradient-17" x1="0" y1="0.5" x2="1" y2="0.5" xlink:href="#linear-gradient-4"/>
    <linearGradient id="linear-gradient-18" x1="-10.181" y1="49.921" x2="-10.181" y2="48.956" xlink:href="#linear-gradient-5"/>
    <radialGradient id="radial-gradient-2" cx="0.865" cy="0.143" r="1.809" gradientTransform="translate(-0.046) scale(1.092 1)" xlink:href="#radial-gradient"/>
    <linearGradient id="linear-gradient-19" x1="0.824" y1="-24.042" x2="1.832" y2="-24.042" xlink:href="#linear-gradient-8"/>
    <linearGradient id="linear-gradient-20" x1="0.669" y1="0.05" x2="0.048" y2="1.542" xlink:href="#linear-gradient"/>
    <linearGradient id="linear-gradient-21" x1="1.065" y1="-0.879" x2="0.282" y2="1.522" xlink:href="#linear-gradient"/>
    <linearGradient id="linear-gradient-22" x1="-0.128" y1="-13.167" x2="0.873" y2="-13.167" xlink:href="#linear-gradient-2"/>
    <linearGradient id="linear-gradient-23" x1="0" y1="0.5" x2="1" y2="0.5" xlink:href="#linear-gradient-11"/>
    <linearGradient id="linear-gradient-24" x1="0" y1="0.499" x2="1" y2="0.499" xlink:href="#linear-gradient-11"/>
  </defs>
  <g id="Mask_Group_3" data-name="Mask Group 3" transform="translate(0 -746)" clip-path="url(#clip-path)">
    <g id="Layer_3" data-name="Layer 3" transform="translate(-37.427 748.407)">
      <path id="Path_3874" data-name="Path 3874" d="M448.92,81.3c-.28,6.21-3.61,12.7-8.07,17.69-4.72,5.29-10.68,8.88-15.58,8.66-9.12-.4-23.15-15.62-22.59-28.38a23.142,23.142,0,1,1,46.24,2Z" fill-rule="evenodd" fill="url(#linear-gradient)"/>
      <path id="Path_3875" data-name="Path 3875" d="M421.39,110.39a6.33,6.33,0,0,1,2.18-3l3.45.15a5.58,5.58,0,0,1,1.46,3.22S426.39,111.49,421.39,110.39Z" fill-rule="evenodd" fill="url(#linear-gradient-2)"/>
      <path id="Path_3876" data-name="Path 3876" d="M438.52,65.65c-.56.32,1.59,2.66,4.34,4a4.31,4.31,0,0,0-2.07-4A2.46,2.46,0,0,0,438.52,65.65Z" fill="#fff" fill-rule="evenodd"/>
      <path id="Path_3877" data-name="Path 3877" d="M445.6,89.67s1.24-5.62,2.37-8.85C448,80.82,448,86.55,445.6,89.67Z" fill="#fff" fill-rule="evenodd"/>
      <path id="Path_3878" data-name="Path 3878" d="M409.43,94.55a14.16,14.16,0,0,0,8.42,8.69S412.59,96.87,409.43,94.55Z" fill="#fff" fill-rule="evenodd"/>
      <path id="Path_3879" data-name="Path 3879" d="M423.54,58.29S416.66,64.8,417,78.06l13.11.69a68.4,68.4,0,0,0-.71-9.67l2.53-.37s3.81,5.3,6,17.47l9.47-.9C448,82.84,449.93,58.19,423.54,58.29Z" fill-rule="evenodd" opacity="0.5" fill="url(#linear-gradient-3)"/>
      <path id="Path_3880" data-name="Path 3880" d="M448.92,81.3c-.28,6.21-3.61,12.7-8.07,17.69-4.72,5.29-10.68,8.88-15.58,8.66-9.12-.4-23.15-15.62-22.59-28.38a23.142,23.142,0,1,1,46.24,2Z" fill="none" stroke="#1c6dc6" stroke-miterlimit="10" stroke-width="0.86" fill-rule="evenodd"/>
      <path id="Path_3881" data-name="Path 3881" d="M420.49,156.05l2.49,150.29.74-.07-2.38-150.35Z" fill="#707070" fill-rule="evenodd"/>
      <path id="Path_3882" data-name="Path 3882" d="M382.4,124.9l38.06,181.71.52-.06L383.35,124.8Z" fill="#707070" fill-rule="evenodd"/>
      <path id="Path_3883" data-name="Path 3883" d="M392.57,47.4l27.97,257.05.36-.04L393.82,47.27Z" fill="#707070" fill-rule="evenodd"/>
      <path id="Path_3884" data-name="Path 3884" d="M412.29,81.93l9.82,224.5.87-.09-9.8-224.5Z" fill="#707070" fill-rule="evenodd"/>
      <path id="Path_3885" data-name="Path 3885" d="M390.94,71.54l29.52,235.07.52-.06L391.67,71.44Z" fill="#707070" fill-rule="evenodd"/>
      <path id="Path_3886" data-name="Path 3886" d="M400.43,53.79l20.85,252.73.44-.05L401.08,53.72Z" fill="#707070" fill-rule="evenodd"/>
      <path id="Path_3887" data-name="Path 3887" d="M419.71,21.19c1.32,12.71-10,28.54-19.53,29.53C391.1,51.65,375,38.66,373.68,26a23.14,23.14,0,1,1,46-4.76Z" fill-rule="evenodd" fill="url(#linear-gradient-4)"/>
      <path id="Path_3888" data-name="Path 3888" d="M396.75,54a6.31,6.31,0,0,1,1.72-3.25l3.44-.36a5.6,5.6,0,0,1,1.91,3S401.86,54.34,396.75,54Z" fill-rule="evenodd" fill="url(#linear-gradient-5)"/>
      <path id="Path_3889" data-name="Path 3889" d="M378.48,21.93s-.72-17,14.74-20.66c16.68-3.93,25.53,15.29,25.53,15.29l-3.54.19s-3.8-6.74-9.79-7.63l-2.57.4a22.06,22.06,0,0,1,4.82,9.39S402.2,21.8,378.48,21.93Z" fill="#fff" fill-rule="evenodd" opacity="0.25"/>
      <path id="Path_3890" data-name="Path 3890" d="M419.71,21.19c1.32,12.71-10,28.54-19.53,29.53C391.1,51.65,375,38.66,373.68,26a23.14,23.14,0,1,1,46-4.76Z" fill="none" stroke="#99171e" stroke-miterlimit="10" stroke-width="0.86" fill-rule="evenodd"/>
      <path id="Path_3891" data-name="Path 3891" d="M382.59,40.07a14.17,14.17,0,0,0,9.61,7.37S386.06,41.91,382.59,40.07Z" fill="#fff" fill-rule="evenodd"/>
      <path id="Path_3892" data-name="Path 3892" d="M399.76,92.92c2.9,12.44-6.37,29.58-15.67,31.74-8.89,2.08-26.5-8.79-29.4-21.24a23.139,23.139,0,1,1,45.072-10.5Z" fill-rule="evenodd" fill="url(#linear-gradient-6)"/>
      <path id="Path_3893" data-name="Path 3893" d="M381.1,128.34a6.25,6.25,0,0,1,1.3-3.44l3.36-.79a5.56,5.56,0,0,1,2.27,2.71S386.21,128.05,381.1,128.34Z" fill-rule="evenodd" fill="url(#linear-gradient-7)"/>
      <path id="Path_3894" data-name="Path 3894" d="M358.94,98.83S356.09,82,371,76.49c16-6,27.25,12,27.25,12l-3.49.64s-4.61-6.21-10.67-6.34l-2.49.72a22,22,0,0,1,5.95,8.71S382.46,95.73,358.94,98.83Z" fill="#fff" fill-rule="evenodd" opacity="0.25"/>
      <path id="Path_3895" data-name="Path 3895" d="M385.53,80.65c-.45.45,2.25,2.13,5.26,2.69a4.27,4.27,0,0,0-3.07-3.27,2.41,2.41,0,0,0-2.19.58Z" fill="#fff" fill-rule="evenodd"/>
      <path id="Path_3896" data-name="Path 3896" d="M399.76,92.92c2.9,12.44-6.37,29.58-15.67,31.74-8.89,2.08-26.5-8.79-29.4-21.24a23.139,23.139,0,1,1,45.072-10.5Z" fill="none" stroke="#99171e" stroke-miterlimit="10" stroke-width="0.86" fill-rule="evenodd"/>
      <path id="Path_3897" data-name="Path 3897" d="M398.82,101.86s-.31-5.74-.1-9.15C398.72,92.71,400.29,98.21,398.82,101.86Z" fill="#fff" fill-rule="evenodd"/>
      <path id="Path_3898" data-name="Path 3898" d="M365.31,116.31a14.16,14.16,0,0,0,10.45,6.11S369,117.7,365.31,116.31Z" fill="#fff" fill-rule="evenodd"/>
      <path id="Path_3899" data-name="Path 3899" d="M432.48,53c.52,6.4-2.18,13.51-6.19,19.1s-9.25,9.61-14,10c-9.1.74-24.91-12.6-25.95-25.34A23.146,23.146,0,1,1,432.48,53Z" fill-rule="evenodd" fill="url(#radial-gradient)"/>
      <path id="Path_3900" data-name="Path 3900" d="M408.8,85.32a6.42,6.42,0,0,1,1.79-3.22l3.45-.28a5.57,5.57,0,0,1,1.84,3S413.9,85.79,408.8,85.32Z" fill-rule="evenodd" fill="url(#linear-gradient-8)"/>
      <path id="Path_3901" data-name="Path 3901" d="M408.8,85.32a6.42,6.42,0,0,1,1.79-3.22l3.45-.28a5.57,5.57,0,0,1,1.84,3S413.9,85.79,408.8,85.32Z" fill="none" stroke="#f36c21" stroke-miterlimit="10" stroke-width="0.86" fill-rule="evenodd"/>
      <path id="Path_3902" data-name="Path 3902" d="M420.22,38.8c-.52.38,1.9,2.44,4.8,3.44a4.29,4.29,0,0,0-2.55-3.69,2.42,2.42,0,0,0-2.25.25Z" fill="#fff" fill-rule="evenodd"/>
      <path id="Path_3903" data-name="Path 3903" d="M430.23,61.74s.53-5.72,1.25-9.07C431.48,52.67,432.23,58.35,430.23,61.74Z" fill="#fff" fill-rule="evenodd"/>
      <path id="Path_3904" data-name="Path 3904" d="M395,71.1a14.18,14.18,0,0,0,9.44,7.57S398.38,73,395,71.1Z" fill="#fff" fill-rule="evenodd"/>
      <path id="Path_3905" data-name="Path 3905" d="M404.43,33.36s-6,7.32-4,20.43L412,52.85a45.332,45.332,0,0,1-.34-9.52l2.46-.68A58.249,58.249,0,0,1,418,60.7l13.51-3.55C431.78,54.67,430.6,30,404.43,33.36Z" fill="#fff" fill-rule="evenodd" opacity="0.25"/>
      <path id="Path_3906" data-name="Path 3906" d="M432.48,53c.52,6.4-2.18,13.51-6.19,19.1s-9.25,9.61-14,10c-9.1.74-24.91-12.6-25.95-25.34A23.146,23.146,0,1,1,432.48,53Z" fill="none" stroke="#f36c21" stroke-miterlimit="10" stroke-width="0.86" fill-rule="evenodd"/>
      <path id="Path_3907" data-name="Path 3907" d="M410.48,42c1.31,12.71-10,28.54-19.54,29.52-9.08.94-25.18-12.05-26.49-24.76a23.14,23.14,0,1,1,46-4.76Z" fill="#c3d14f" fill-rule="evenodd"/>
      <path id="Path_3908" data-name="Path 3908" d="M387.51,74.82a6.36,6.36,0,0,1,1.72-3.26l3.44-.35a5.55,5.55,0,0,1,1.91,3S392.62,75.17,387.51,74.82Z" fill="#c3d14f" fill-rule="evenodd"/>
      <path id="Path_3909" data-name="Path 3909" d="M387.51,74.82a6.36,6.36,0,0,1,1.72-3.26l3.44-.35a5.55,5.55,0,0,1,1.91,3S392.62,75.17,387.51,74.82Z" fill="none" stroke="#91992c" stroke-miterlimit="10" stroke-width="0.86" fill-rule="evenodd"/>
      <path id="Path_3910" data-name="Path 3910" d="M397.91,28.06c-.51.39,1.95,2.39,4.87,3.33a4.29,4.29,0,0,0-2.63-3.64,2.41,2.41,0,0,0-2.24.31Z" fill="#fff" fill-rule="evenodd"/>
      <path id="Path_3911" data-name="Path 3911" d="M408.42,50.78s.41-5.74,1.05-9.1" fill="#fff" fill-rule="evenodd"/>
      <path id="Path_3912" data-name="Path 3912" d="M373.36,60.9a14.13,14.13,0,0,0,9.6,7.37S376.83,62.73,373.36,60.9Z" fill="#fff" fill-rule="evenodd"/>
      <path id="Path_3913" data-name="Path 3913" d="M382,23s-5.86,7.46-3.56,20.51L390,42.29a45.467,45.467,0,0,1-.55-9.51l2.45-.73a58.169,58.169,0,0,1,4.33,18l13.43-3.84C409.81,43.67,408.1,19,382,23Z" fill="#fff" fill-rule="evenodd" opacity="0.25"/>
      <path id="Path_3914" data-name="Path 3914" d="M410.48,42c1.31,12.71-10,28.54-19.54,29.52-9.08.94-25.18-12.05-26.49-24.76a23.14,23.14,0,1,1,46-4.76Z" fill="none" stroke="#91992c" stroke-miterlimit="10" stroke-width="0.86" fill-rule="evenodd"/>
      <path id="Path_3915" data-name="Path 3915" d="M423.89,105.79c1.32,12.71-10,28.54-19.53,29.53-9.08.93-25.18-12.06-26.5-24.77a23.14,23.14,0,1,1,46-4.76Z" fill-rule="evenodd" fill="url(#linear-gradient-9)"/>
      <path id="Path_3916" data-name="Path 3916" d="M400.93,138.59a6.31,6.31,0,0,1,1.72-3.25l3.44-.36a5.6,5.6,0,0,1,1.91,3S406,138.94,400.93,138.59Z" fill-rule="evenodd" fill="url(#linear-gradient-10)"/>
      <path id="Path_3917" data-name="Path 3917" d="M411.33,91.83c-.51.39,1.95,2.4,4.87,3.34a4.3,4.3,0,0,0-2.63-3.64,2.41,2.41,0,0,0-2.24.3Z" fill="#fff" fill-rule="evenodd"/>
      <path id="Path_3918" data-name="Path 3918" d="M421.84,114.55s.41-5.74,1.05-9.1C422.89,105.45,423.76,111.11,421.84,114.55Z" fill="#fff" fill-rule="evenodd"/>
      <path id="Path_3919" data-name="Path 3919" d="M386.77,124.67a14.17,14.17,0,0,0,9.61,7.37S390.24,126.51,386.77,124.67Z" fill="#fff" fill-rule="evenodd"/>
      <path id="Path_3920" data-name="Path 3920" d="M395.42,86.74s-5.85,7.45-3.55,20.51l11.49-1.19a45.819,45.819,0,0,1-.54-9.51l2.45-.73a58.28,58.28,0,0,1,4.33,18l13.4-3.89C423.23,107.44,421.51,82.77,395.42,86.74Z" fill="#fff" fill-rule="evenodd" opacity="0.25"/>
      <path id="Path_3921" data-name="Path 3921" d="M423.89,105.79c1.32,12.71-10,28.54-19.53,29.53-9.08.93-25.18-12.06-26.5-24.77a23.14,23.14,0,1,1,46-4.76Z" fill="none" stroke="#1c6dc6" stroke-miterlimit="10" stroke-width="0.86" fill-rule="evenodd"/>
      <path id="Path_3922" data-name="Path 3922" d="M441.26,127.37c.77,12.76-11.24,28.1-20.77,28.68-9.11.55-24.65-13.11-25.42-25.87a23.139,23.139,0,1,1,46.192-2.81Z" fill-rule="evenodd" fill="url(#linear-gradient-11)"/>
      <path id="Path_3923" data-name="Path 3923" d="M416.92,159.17a6.389,6.389,0,0,1,1.86-3.18l3.45-.2a5.58,5.58,0,0,1,1.79,3S422,159.74,416.92,159.17Z" fill-rule="evenodd" fill="url(#linear-gradient-12)"/>
      <path id="Path_3924" data-name="Path 3924" d="M416.92,159.17a6.389,6.389,0,0,1,1.86-3.18l3.45-.2a5.58,5.58,0,0,1,1.79,3S422,159.74,416.92,159.17Z" fill="none" stroke="#9bb1ba" stroke-miterlimit="10" stroke-width="0.86" fill-rule="evenodd"/>
      <path id="Path_3925" data-name="Path 3925" d="M429.29,112.89c-.52.38,1.86,2.48,4.73,3.55a4.3,4.3,0,0,0-2.47-3.75,2.42,2.42,0,0,0-2.26.2Z" fill="#fff" fill-rule="evenodd"/>
      <path id="Path_3926" data-name="Path 3926" d="M438.83,136s.66-5.72,1.44-9C440.27,127,440.9,132.69,438.83,136Z" fill="#fff" fill-rule="evenodd"/>
      <path id="Path_3927" data-name="Path 3927" d="M403.37,144.67a14.17,14.17,0,0,0,9.28,7.77S406.76,146.65,403.37,144.67Z" fill="#fff" fill-rule="evenodd"/>
      <path id="Path_3928" data-name="Path 3928" d="M413.62,107.13s-6.16,7.2-4.42,20.35l11.54-.71a45.171,45.171,0,0,1-.15-9.52l2.48-.63a58.309,58.309,0,0,1,3.56,18.13l13.59-3.27C440.53,129,439.86,104.28,413.62,107.13Z" fill="#fff" fill-rule="evenodd" opacity="0.25"/>
      <path id="Path_3929" data-name="Path 3929" d="M441.26,127.37c.77,12.76-11.24,28.1-20.77,28.68-9.11.55-24.65-13.11-25.42-25.87a23.139,23.139,0,1,1,46.192-2.81Z" fill="none" stroke="#9bb1ba" stroke-miterlimit="10" stroke-width="0.86" fill-rule="evenodd"/>
      <path id="Path_3930" data-name="Path 3930" d="M97,89c-1.23,6.09-5.54,12-10.72,16.22-5.48,4.49-11.93,7.11-16.74,6.13-8.95-1.81-20.44-19-17.89-31.54A23.138,23.138,0,1,1,97,89Z" fill-rule="evenodd" fill="url(#linear-gradient-13)"/>
      <path id="Path_3931" data-name="Path 3931" d="M65.29,113.43a6.39,6.39,0,0,1,2.62-2.59l3.39.69a5.59,5.59,0,0,1,.94,3.4S70.07,115.3,65.29,113.43Z" fill-rule="evenodd" fill="url(#linear-gradient-14)"/>
      <path id="Path_3932" data-name="Path 3932" d="M89.18,71.91c-.6.23,1.15,2.87,3.65,4.64a4.29,4.29,0,0,0-1.42-4.26,2.41,2.41,0,0,0-2.23-.38Z" fill="#fff" fill-rule="evenodd"/>
      <path id="Path_3933" data-name="Path 3933" d="M92.43,96.73s2.1-5.35,3.72-8.36C96.15,88.37,95.29,94,92.43,96.73Z" fill="#fff" fill-rule="evenodd"/>
      <path id="Path_3934" data-name="Path 3934" d="M55.94,95.92a14.18,14.18,0,0,0,7,9.9S58.71,98.71,55.94,95.92Z" fill="#fff" fill-rule="evenodd"/>
      <path id="Path_3935" data-name="Path 3935" d="M75.52,62.3S67.71,67.67,66,80.82l12.84,2.72a68.659,68.659,0,0,0,.8-9.66H82.2s2.94,5.82,3.24,18.19l9.5.58C95.88,90.37,101.61,66.31,75.52,62.3Z" fill="#fff" fill-rule="evenodd" opacity="0.25"/>
      <path id="Path_3936" data-name="Path 3936" d="M97,89c-1.23,6.09-5.54,12-10.72,16.22-5.48,4.49-11.93,7.11-16.74,6.13-8.95-1.81-20.44-19-17.89-31.54A23.138,23.138,0,1,1,97,89Z" fill="none" stroke="#1c6dc6" stroke-miterlimit="10" stroke-width="0.86" fill-rule="evenodd"/>
      <path id="Path_3937" data-name="Path 3937" d="M57.3,158.4,36.71,303.11l.74.04L58.16,158.4Z" fill="#707070" fill-rule="evenodd"/>
      <path id="Path_3938" data-name="Path 3938" d="M24.52,121.7l9.66,181.28.52.02L25.48,121.75Z" fill="#707070" fill-rule="evenodd"/>
      <path id="Path_3939" data-name="Path 3939" d="M46.63,46.73,34.59,300.86l.37.02L47.88,46.8Z" fill="#707070" fill-rule="evenodd"/>
      <path id="Path_3940" data-name="Path 3940" d="M60.74,83.91,35.84,303.06l.87.05L61.63,83.95Z" fill="#707070" fill-rule="evenodd"/>
      <path id="Path_3941" data-name="Path 3941" d="M41.26,70.33,34.18,302.98l.52.02L41.99,70.33Z" fill="#707070" fill-rule="evenodd"/>
      <path id="Path_3942" data-name="Path 3942" d="M53.4,54.26,35,303.02l.45.02L54.05,54.3Z" fill="#707070" fill-rule="evenodd"/>
      <path id="Path_3943" data-name="Path 3943" d="M77.52,25.06C76.84,37.82,63.16,51.7,53.63,51.19c-9.12-.49-23-15.83-22.33-28.59a23.143,23.143,0,1,1,46.22,2.46Z" fill-rule="evenodd" fill="url(#linear-gradient-15)"/>
      <path id="Path_3944" data-name="Path 3944" d="M49.73,53.89a6.38,6.38,0,0,1,2.2-3l3.46.19a5.51,5.51,0,0,1,1.42,3.22S54.72,55,49.73,53.89Z" fill-rule="evenodd" fill="url(#linear-gradient-16)"/>
      <path id="Path_3945" data-name="Path 3945" d="M36.66,19.37S38.6,2.46,54.44,1.26C71.53,0,77.29,20.34,77.29,20.34L73.75,20s-2.7-7.25-8.48-9.06H62.68a22.06,22.06,0,0,1,3.29,10S60.12,22.94,36.66,19.37Z" fill="#fff" fill-rule="evenodd" opacity="0.25"/>
      <path id="Path_3946" data-name="Path 3946" d="M67.27,9.31c-.56.32,1.56,2.68,4.3,4.06a4.3,4.3,0,0,0-2-4,2.43,2.43,0,0,0-2.3-.06Z" fill="#fff" fill-rule="evenodd"/>
      <path id="Path_3947" data-name="Path 3947" d="M74.12,33.39s1.3-5.6,2.45-8.82C76.57,24.57,76.55,30.3,74.12,33.39Z" fill="#fff" fill-rule="evenodd"/>
      <path id="Path_3948" data-name="Path 3948" d="M77.52,25.06C76.84,37.82,63.16,51.7,53.63,51.19c-9.12-.49-23-15.83-22.33-28.59a23.143,23.143,0,1,1,46.22,2.46Z" fill="none" stroke="#99171e" stroke-miterlimit="10" stroke-width="0.86" fill-rule="evenodd"/>
      <path id="Path_3949" data-name="Path 3949" d="M37.91,37.94a14.16,14.16,0,0,0,8.34,8.77S41.05,40.29,37.91,37.94Z" fill="#fff" fill-rule="evenodd"/>
      <path id="Path_3950" data-name="Path 3950" d="M46.65,92.81c.93,12.74-10.9,28.23-20.42,28.92C17.12,122.4,1.42,108.92.49,96.18a23.141,23.141,0,1,1,46.16-3.37Z" fill-rule="evenodd" fill="url(#linear-gradient-17)"/>
      <path id="Path_3951" data-name="Path 3951" d="M22.7,124.9a6.31,6.31,0,0,1,1.82-3.2l3.45-.25a5.58,5.58,0,0,1,1.82,3S27.8,125.41,22.7,124.9Z" fill-rule="evenodd" fill="url(#linear-gradient-18)"/>
      <path id="Path_3952" data-name="Path 3952" d="M22.7,124.9a6.31,6.31,0,0,1,1.82-3.2l3.45-.25a5.58,5.58,0,0,1,1.82,3S27.8,125.41,22.7,124.9Z" fill="none" stroke="#99171e" stroke-miterlimit="10" stroke-width="0.86" fill-rule="evenodd"/>
      <path id="Path_3953" data-name="Path 3953" d="M5.4,92.3s-.2-17,15.36-20.2c16.79-3.43,25.07,16.05,25.07,16.05l-3.55.09s-3.6-6.85-9.56-7.92l-2.58.32a22,22,0,0,1,4.53,9.53S29.12,92.9,5.4,92.3Z" fill="#fff" fill-rule="evenodd" opacity="0.25"/>
      <path id="Path_3954" data-name="Path 3954" d="M34.5,78.48c-.52.38,1.89,2.45,4.77,3.48a4.3,4.3,0,0,0-2.51-3.72A2.43,2.43,0,0,0,34.5,78.48Z" fill="#fff" fill-rule="evenodd"/>
      <path id="Path_3955" data-name="Path 3955" d="M46.65,92.81c.93,12.74-10.9,28.23-20.42,28.92C17.12,122.4,1.42,108.92.49,96.18a23.141,23.141,0,1,1,46.16-3.37Z" fill="none" stroke="#99171e" stroke-miterlimit="10" stroke-width="0.86" fill-rule="evenodd"/>
      <path id="Path_3956" data-name="Path 3956" d="M44.33,101.5s.58-5.72,1.32-9.06C45.65,92.44,46.35,98.13,44.33,101.5Z" fill="#fff" fill-rule="evenodd"/>
      <path id="Path_3957" data-name="Path 3957" d="M9,110.56a14.16,14.16,0,0,0,9.38,7.66S12.38,112.5,9,110.56Z" fill="#fff" fill-rule="evenodd"/>
      <path id="Path_3958" data-name="Path 3958" d="M85.17,58.5c-.48,6.4-4.25,13-9.08,17.91s-10.64,8-15.38,7.69C51.61,83.41,38.07,67.78,39,55a23.151,23.151,0,1,1,46.17,3.5Z" fill-rule="evenodd" fill="url(#radial-gradient-2)"/>
      <path id="Path_3959" data-name="Path 3959" d="M56.76,86.71A6.27,6.27,0,0,1,59,83.82l3.45.25a5.55,5.55,0,0,1,1.35,3.26S61.73,88,56.76,86.71Z" fill-rule="evenodd" fill="url(#linear-gradient-19)"/>
      <path id="Path_3960" data-name="Path 3960" d="M75.27,42.53c-.57.3,1.5,2.71,4.21,4.15a4.29,4.29,0,0,0-2-4,2.43,2.43,0,0,0-2.21-.15Z" fill="#fff" fill-rule="evenodd"/>
      <path id="Path_3961" data-name="Path 3961" d="M81.6,66.76S83,61.18,84.24,58C84.24,58,84.1,63.71,81.6,66.76Z" fill="#fff" fill-rule="evenodd"/>
      <path id="Path_3962" data-name="Path 3962" d="M45.29,70.51a14.15,14.15,0,0,0,8.15,8.95S48.38,72.93,45.29,70.51Z" fill="#fff" fill-rule="evenodd"/>
      <path id="Path_3963" data-name="Path 3963" d="M60.52,34.71S53.44,41,53.39,54.26l11.53.87a45.59,45.59,0,0,1,1.14-9.46l2.54-.28a58.07,58.07,0,0,1,1.08,18.44l13.91-1.41C84.22,60,86.9,35.42,60.52,34.71Z" fill="#fff" fill-rule="evenodd" opacity="0.25"/>
      <path id="Path_3964" data-name="Path 3964" d="M85.17,58.5c-.48,6.4-4.25,13-9.08,17.91s-10.64,8-15.38,7.69C51.61,83.41,38.07,67.78,39,55a23.151,23.151,0,1,1,46.17,3.5Z" fill="none" stroke="#f36c21" stroke-miterlimit="10" stroke-width="0.86" fill-rule="evenodd"/>
      <path id="Path_3965" data-name="Path 3965" d="M65.15,44.2C64.47,57,50.79,70.83,41.26,70.33c-9.12-.49-23-15.83-22.32-28.59A23.139,23.139,0,1,1,65.152,44.2Z" fill-rule="evenodd" fill="url(#linear-gradient-20)"/>
      <path id="Path_3966" data-name="Path 3966" d="M37.36,73a6.31,6.31,0,0,1,2.21-3l3.45.18a5.61,5.61,0,0,1,1.43,3.23S42.35,74.17,37.36,73Z" fill-rule="evenodd" fill="url(#linear-gradient-21)"/>
      <path id="Path_3967" data-name="Path 3967" d="M37.36,73a6.31,6.31,0,0,1,2.21-3l3.45.18a5.61,5.61,0,0,1,1.43,3.23S42.35,74.17,37.36,73Z" fill="none" stroke="#1c6dc6" stroke-miterlimit="10" stroke-width="0.86" fill-rule="evenodd"/>
      <path id="Path_3968" data-name="Path 3968" d="M54.91,28.45c-.57.31,1.56,2.68,4.29,4.06a4.3,4.3,0,0,0-2-4A2.4,2.4,0,0,0,54.91,28.45Z" fill="#fff" fill-rule="evenodd"/>
      <path id="Path_3969" data-name="Path 3969" d="M61.76,52.53s1.29-5.6,2.45-8.82C64.21,43.71,64.19,49.43,61.76,52.53Z" fill="#fff" fill-rule="evenodd"/>
      <path id="Path_3970" data-name="Path 3970" d="M25.54,57.07a14.2,14.2,0,0,0,8.34,8.78S28.69,59.43,25.54,57.07Z" fill="#fff" fill-rule="evenodd"/>
      <path id="Path_3971" data-name="Path 3971" d="M40,21s-6.94,6.45-6.7,19.71l11.54.61a45.5,45.5,0,0,1,.94-9.48l2.53-.34a58.17,58.17,0,0,1,1.48,18.41l13.87-1.7C64.24,45.73,66.38,21.09,40,21Z" fill="#fff" fill-rule="evenodd" opacity="0.25"/>
      <path id="Path_3972" data-name="Path 3972" d="M65.15,44.2C64.47,57,50.79,70.83,41.26,70.33c-9.12-.49-23-15.83-22.32-28.59A23.139,23.139,0,1,1,65.152,44.2Z" fill="none" stroke="#1c6dc6" stroke-miterlimit="10" stroke-width="0.86" fill-rule="evenodd"/>
      <path id="Path_3973" data-name="Path 3973" d="M68.48,109.28c-.67,12.76-14.36,26.64-23.89,26.13-9.11-.49-23-15.83-22.32-28.59a23.139,23.139,0,1,1,46.212,2.46Z" fill="#c3d14f" fill-rule="evenodd"/>
      <path id="Path_3974" data-name="Path 3974" d="M40.69,138.11a6.44,6.44,0,0,1,2.21-3l3.45.19a5.54,5.54,0,0,1,1.43,3.22S45.69,139.25,40.69,138.11Z" fill-rule="evenodd" fill="url(#linear-gradient-22)"/>
      <path id="Path_3975" data-name="Path 3975" d="M58.24,93.54c-.56.31,1.56,2.67,4.29,4a4.28,4.28,0,0,0-2-4,2.41,2.41,0,0,0-2.29,0Z" fill="#fff" fill-rule="evenodd"/>
      <path id="Path_3976" data-name="Path 3976" d="M65.09,117.61s1.3-5.6,2.45-8.82C67.54,108.79,67.52,114.52,65.09,117.61Z" fill="#fff" fill-rule="evenodd"/>
      <path id="Path_3977" data-name="Path 3977" d="M28.88,122.16a14.16,14.16,0,0,0,8.34,8.77S32,124.51,28.88,122.16Z" fill="#fff" fill-rule="evenodd"/>
      <path id="Path_3978" data-name="Path 3978" d="M43.32,86s-6.94,6.45-6.7,19.71l11.54.61a45.38,45.38,0,0,1,.94-9.47l2.53-.35A58.38,58.38,0,0,1,53.12,115L67,113.24C67.57,110.81,69.71,86.18,43.32,86Z" fill="#fff" fill-rule="evenodd" opacity="0.25"/>
      <path id="Path_3979" data-name="Path 3979" d="M68.48,109.28c-.67,12.76-14.36,26.64-23.89,26.13-9.11-.49-23-15.83-22.32-28.59a23.139,23.139,0,1,1,46.212,2.46Z" fill="none" stroke="#91992c" stroke-miterlimit="10" stroke-width="0.86" fill-rule="evenodd"/>
      <path id="Path_3980" data-name="Path 3980" d="M82.28,133.3c-1.22,12.73-15.48,26-25,25.1-9.09-.87-22.31-16.79-21.09-29.51a23.14,23.14,0,0,1,46.07,4.41Z" fill-rule="evenodd" fill="url(#linear-gradient-23)"/>
      <path id="Path_3981" data-name="Path 3981" d="M53.29,160.93a6.42,6.42,0,0,1,2.33-2.85l3.44.33a5.59,5.59,0,0,1,1.29,3.29S58.23,162.29,53.29,160.93Z" fill-rule="evenodd" fill="url(#linear-gradient-24)"/>
      <path id="Path_3982" data-name="Path 3982" d="M53.29,160.93a6.42,6.42,0,0,1,2.33-2.85l3.44.33a5.59,5.59,0,0,1,1.29,3.29S58.23,162.29,53.29,160.93Z" fill="none" stroke="#9bb1ba" stroke-miterlimit="10" stroke-width="0.86" fill-rule="evenodd"/>
      <path id="Path_3983" data-name="Path 3983" d="M72.71,117.14c-.58.29,1.45,2.74,4.12,4.23A4.29,4.29,0,0,0,75,117.29a2.42,2.42,0,0,0-2.29-.15Z" fill="#fff" fill-rule="evenodd"/>
      <path id="Path_3984" data-name="Path 3984" d="M78.54,141.49s1.53-5.55,2.82-8.71C81.36,132.78,81.1,138.5,78.54,141.49Z" fill="#fff" fill-rule="evenodd"/>
      <path id="Path_3985" data-name="Path 3985" d="M42.16,144.49a14.16,14.16,0,0,0,8,9.12S45.2,147,42.16,144.49Z" fill="#fff" fill-rule="evenodd"/>
      <path id="Path_3986" data-name="Path 3986" d="M58.13,109s-7.21,6.15-7.53,19.41l11.5,1.1a45.7,45.7,0,0,1,1.34-9.43l2.54-.23a58.1,58.1,0,0,1,.71,18.45l13.93-1.11C81.3,134.8,84.49,110.27,58.13,109Z" fill="#fff" fill-rule="evenodd" opacity="0.25"/>
      <path id="Path_3987" data-name="Path 3987" d="M82.28,133.3c-1.22,12.73-15.48,26-25,25.1-9.09-.87-22.31-16.79-21.09-29.51a23.14,23.14,0,0,1,46.07,4.41Z" fill="none" stroke="#9bb1ba" stroke-miterlimit="10" stroke-width="0.86" fill-rule="evenodd"/>
    </g>
  </g>
</svg>
