<svg id="_004-youtube" data-name="004-youtube" xmlns="http://www.w3.org/2000/svg" width="40.062" height="40.062" viewBox="0 0 40.062 40.062">
  <path id="Path_3744" data-name="Path 3744" d="M224.113,215.545l6.516-3.753-6.516-3.753Zm0,0" transform="translate(-206.577 -191.761)" fill="#043d5d"/>
  <path id="Path_3745" data-name="Path 3745" d="M20.031,0A20.031,20.031,0,1,0,40.062,20.031,20.033,20.033,0,0,0,20.031,0ZM32.547,20.052a33.06,33.06,0,0,1-.515,6.021,3.136,3.136,0,0,1-2.206,2.206c-1.959.516-9.795.516-9.795.516s-7.815,0-9.795-.536A3.137,3.137,0,0,1,8.03,26.052a32.915,32.915,0,0,1-.516-6.021A33.039,33.039,0,0,1,8.03,14.01a3.2,3.2,0,0,1,2.206-2.227c1.959-.516,9.795-.516,9.795-.516s7.836,0,9.795.536a3.137,3.137,0,0,1,2.206,2.206,31.373,31.373,0,0,1,.515,6.041Zm0,0" fill="#043d5d"/>
</svg>
