<svg xmlns="http://www.w3.org/2000/svg" xmlns:xlink="http://www.w3.org/1999/xlink" width="345.133" height="510.896" viewBox="0 0 345.133 510.896">
  <defs>
    <radialGradient id="radial-gradient" cx="0.344" cy="0.05" r="1.593" gradientTransform="matrix(-1.211, -0.183, -0.257, 1.12, 29.227, -0.237)" gradientUnits="objectBoundingBox">
      <stop offset="0.01" stop-color="#ffcf25"/>
      <stop offset="0.89" stop-color="#ff6b00"/>
    </radialGradient>
    <linearGradient id="linear-gradient" x1="35.101" y1="264.57" x2="36.1" y2="264.57" gradientUnits="objectBoundingBox">
      <stop offset="0" stop-color="#ff9827"/>
      <stop offset="1" stop-color="#ffb309"/>
    </linearGradient>
    <linearGradient id="linear-gradient-2" x1="43.584" y1="-77.802" x2="43.008" y2="-76.836" gradientUnits="objectBoundingBox">
      <stop offset="0" stop-color="#dc1d28"/>
      <stop offset="1" stop-color="#ba2529"/>
    </linearGradient>
    <linearGradient id="linear-gradient-3" x1="71.496" y1="-599.187" x2="71.496" y2="-599.922" gradientUnits="objectBoundingBox">
      <stop offset="0" stop-color="#d80e27"/>
      <stop offset="0.99" stop-color="#f12e44"/>
    </linearGradient>
  </defs>
  <g id="Pop-up_Random" transform="translate(-14.465 -1561.777)">
    <g id="Frame" transform="translate(14.499 1561.777)">
      <g id="Layer_3" data-name="Layer 3" transform="translate(0.501)">
        <path id="Path_4470" data-name="Path 4470" d="M324.44,63.13l-3.27,422.7a26.2,26.2,0,0,1-26.2,26.028H61.767a26.2,26.2,0,0,1-26.2-25.646L25.86,59.4A26.2,26.2,0,0,1,52.547,32.58l246.146,4.115A26.2,26.2,0,0,1,324.44,63.13Z" transform="translate(-1.25 -0.962)" fill="#fff"/>
        <path id="Path_4471" data-name="Path 4471" d="M63.439,56.25l6.124-5.211S52.521,35.278,45,52.407C45,52.407,52.337,50.456,63.439,56.25Z" transform="translate(-1.815 -1.312)" fill="#e9417b"/>
        <path id="Path_4472" data-name="Path 4472" d="M56.873,69.115S39.308,56.82,49.11,46.63c0,0-17.468,9.656,3.144,28.386Z" transform="translate(-1.733 -1.378)" fill="#ed5696"/>
        <path id="Path_4473" data-name="Path 4473" d="M51.923,75.568S38.822,69.24,31,72.113c0,0,1.33-9.2,12.917-6.2s12.616,3.756,12.616,3.756Z" transform="translate(-1.402 -1.93)" fill="#e9417b"/>
        <path id="Path_4474" data-name="Path 4474" d="M22.473,89.186s11.044-1.941,11.218-10.811,4.115-12.393,7.764-12.9c0,0-10.335-3.5-11.539,10.219C29.053,85.178,16,84.159,16,84.159Z" transform="translate(-0.959 -1.923)" fill="#ed5696"/>
        <path id="Path_4475" data-name="Path 4475" d="M229,47.716l3.6,6.444s17.216-12.461,3.193-22.33C235.793,31.83,236.22,38.788,229,47.716Z" transform="translate(-7.252 -0.94)" fill="#f6951d"/>
        <path id="Path_4476" data-name="Path 4476" d="M218.2,39.492s14.207-13.586,21.631-2.96c0,0-5.57-17.468-26.115-2.251Z" transform="translate(-6.8 -0.829)" fill="#fdbf10"/>
        <path id="Path_4477" data-name="Path 4477" d="M213.72,33.916s8.035-10.675,6.851-18.186c0,0,8.035,2.834,3.261,12.732S218.2,39.137,218.2,39.137Z" transform="translate(-6.8 -0.465)" fill="#f6951d"/>
        <path id="Path_4478" data-name="Path 4478" d="M206.42,4.852s-.214,10.3,7.764,12.043,11.1,3.173,10.9,6.531c0,0,4.328-5.929-7.812-9.472C208.856,11.539,212.107,0,212.107,0Z" transform="translate(-6.585)" fill="#fdbf10"/>
        <path id="Path_4479" data-name="Path 4479" d="M55.135,118.251l.679-3.882L58.4,115.7s-3.135-11.374-14.1-15.149l-2.145,3.775S49.458,103.413,55.135,118.251Z" transform="translate(-1.731 -2.971)" fill="#0cbad2"/>
        <path id="Path_4480" data-name="Path 4480" d="M45.8,309.018l-2.64-2.31s.592-12.257,7.21-18.439l7.191,3.387S49.264,294.161,45.8,309.018Z" transform="translate(-1.761 -8.517)" fill="#ed5696"/>
        <path id="Path_4481" data-name="Path 4481" d="M286.929,52.558l-2.611,1.3S275.089,49.54,272.44,42.5l4.852-4.464S276.6,45.231,286.929,52.558Z" transform="translate(-8.535 -1.124)" fill="#f6951d"/>
        <path id="Path_4482" data-name="Path 4482" d="M20.3,315.589,17.885,316.8S9.325,312.746,6.87,306.234l4.513-4.134S10.732,308.738,20.3,315.589Z" transform="translate(-0.689 -8.925)" fill="#f6951d"/>
        <path id="Path_4483" data-name="Path 4483" d="M318.118,168.1l2.737,2.242a10.85,10.85,0,0,1-4.716,9.53l.369-1.941H314.45S319.923,172.972,318.118,168.1Z" transform="translate(-9.776 -4.966)" fill="#ed5696"/>
        <path id="Path_4484" data-name="Path 4484" d="M350.4,234.428V229.11S335.18,231,340.6,242.095C340.585,242.095,342.73,237.563,350.4,234.428Z" transform="translate(-10.514 -6.769)" fill="#793291"/>
        <path id="Path_4485" data-name="Path 4485" d="M354.1,243.417s-13.713,3.63-14.683-5.677c0,0-2.562,12.946,15.692,10.529Z" transform="translate(-10.51 -7.024)" fill="#98519e"/>
        <path id="Path_4486" data-name="Path 4486" d="M355.226,248.442s-8.734,3.882-10.675,9.083c0,0-4.086-4.59,2.387-9.171s7.269-4.765,7.269-4.765Z" transform="translate(-10.628 -7.197)" fill="#793291"/>
        <path id="Path_4487" data-name="Path 4487" d="M349.73,269.1s3.727-6.424-.67-10.3-4.513-7.366-3.222-9.413c0,0-6.182,3.727.243,10.2,4.435,4.464-1.64,10.617-1.64,10.617Z" transform="translate(-10.625 -7.368)" fill="#98519e"/>
        <path id="Path_4488" data-name="Path 4488" d="M25.192,218s-4.105,13.383,2.572,24.873c5.823,10.044,6.153,15.217,0,26.066" transform="translate(-1.193 -6.441)" fill="none" stroke="#767676" stroke-miterlimit="10" stroke-width="0.7"/>
        <path id="Path_4489" data-name="Path 4489" d="M.723,174.269c-1.048,8.676,1.708,18.342,6.143,25.979s10.442,13.111,16.09,13.674C33.8,215.008,53.613,197.055,55.7,179.79s-8.54-32.51-23.728-34.024S2.81,157,.723,174.269Z" transform="translate(-0.501 -4.303)" fill-rule="evenodd" fill="url(#radial-gradient)"/>
        <path id="Path_4490" data-name="Path 4490" d="M27.482,220.364a8.608,8.608,0,0,0-1.941-4.377l-4.105-.417A8.162,8.162,0,0,0,19,219.636S21.339,220.946,27.482,220.364Z" transform="translate(-1.047 -6.369)" fill-rule="evenodd" fill="url(#linear-gradient)"/>
        <path id="Path_4491" data-name="Path 4491" d="M27.482,220.364a8.608,8.608,0,0,0-1.941-4.377l-4.105-.417A8.162,8.162,0,0,0,19,219.636S21.339,220.946,27.482,220.364Z" transform="translate(-1.047 -6.369)" fill="none" stroke="#f36c21" stroke-miterlimit="10" stroke-width="1" fill-rule="evenodd"/>
        <path id="Path_4492" data-name="Path 4492" d="M16.638,155.352c.6.524-2.436,3.29-5.968,4.629,0,0,.3-3.756,3.3-4.988a2.543,2.543,0,0,1,2.669.359Z" transform="translate(-0.801 -4.573)" fill="#fff" fill-rule="evenodd"/>
        <path id="Path_4493" data-name="Path 4493" d="M2.872,186.965s-.262-7.764-.9-12.315C1.988,174.65.707,182.346,2.872,186.965Z" transform="translate(-0.534 -5.16)" fill="#fff" fill-rule="evenodd"/>
        <path id="Path_4494" data-name="Path 4494" d="M45.431,200.76s-3.571,8.259-11.8,10.19C33.63,210.95,41.2,203.322,45.431,200.76Z" transform="translate(-1.48 -5.931)" fill="#fff" fill-rule="evenodd"/>
        <path id="Path_4495" data-name="Path 4495" d="M.723,174.269c-1.048,8.676,1.708,18.342,6.143,25.979s10.442,13.111,16.09,13.674C33.8,215.008,53.613,197.055,55.7,179.79s-8.54-32.51-23.728-34.024S2.81,157,.723,174.269Z" transform="translate(-0.501 -4.303)" fill="none" stroke="#f36c21" stroke-miterlimit="10" stroke-width="1" fill-rule="evenodd"/>
        <path id="Path_4496" data-name="Path 4496" d="M35.634,147.905s6.716,10,3.435,27.745l-13.722-1.378a70.261,70.261,0,0,0,1.029-12.907l-2.911-.97a89.98,89.98,0,0,0-5.891,24.465L1.62,179.93C1.484,176.553,4.531,143.063,35.634,147.905Z" transform="translate(-0.534 -4.356)" fill="#fff" fill-rule="evenodd" opacity="0.25"/>
        <path id="Path_4497" data-name="Path 4497" d="M337.24,164.34s2.1,6.716,1.126,18.439c-.767,9.171,1.33,13.082,6.948,17.934" transform="translate(-10.45 -4.855)" fill="none" stroke="#767676" stroke-miterlimit="10" stroke-width="0.68"/>
        <path id="Path_4498" data-name="Path 4498" d="M309.344,132.476c2.669,14.557,17.973,28.91,27.008,27.25,8.656-1.592,19.516-20.748,16.847-35.305s-14.654-24.553-26.765-22.32S306.675,117.919,309.344,132.476Z" transform="translate(-9.61 -3.007)" fill-rule="evenodd" fill="url(#linear-gradient-2)"/>
        <path id="Path_4499" data-name="Path 4499" d="M341.275,164.125A7.57,7.57,0,0,0,338.694,161l-3.27.6a6.793,6.793,0,0,0-.854,3.882S336.675,166.008,341.275,164.125Z" transform="translate(-10.37 -4.757)" fill-rule="evenodd" fill="url(#linear-gradient-3)"/>
        <path id="Path_4500" data-name="Path 4500" d="M341.275,164.125A7.57,7.57,0,0,0,338.694,161l-3.27.6a6.793,6.793,0,0,0-.854,3.882S336.675,166.008,341.275,164.125Z" transform="translate(-10.37 -4.757)" fill="none" stroke="#99171e" stroke-miterlimit="10" stroke-width="1" fill-rule="evenodd"/>
        <path id="Path_4501" data-name="Path 4501" d="M347.561,121.349s-4.542-19.166-19.894-18.749c-16.556.456-18.846,24.455-18.846,24.455l3.319-.815s1.436-8.618,6.686-11.345l2.484-.3a28.532,28.532,0,0,0-1.562,11.859S325.667,128.1,347.561,121.349Z" transform="translate(-9.61 -3.031)" fill="#fff" fill-rule="evenodd" opacity="0.25"/>
        <path id="Path_4502" data-name="Path 4502" d="M316.791,113.6c.592.291-1.068,3.241-3.474,5.134,0,0-.689-3.135,1.31-4.852a2.009,2.009,0,0,1,2.164-.281Z" transform="translate(-9.739 -3.351)" fill="#fff" fill-rule="evenodd"/>
        <path id="Path_4503" data-name="Path 4503" d="M313.956,142.551s-2.125-6.269-3.746-9.831C310.21,132.72,311.132,139.28,313.956,142.551Z" transform="translate(-9.651 -3.921)" fill="#fff" fill-rule="evenodd"/>
        <path id="Path_4504" data-name="Path 4504" d="M309.344,132.476c2.669,14.557,17.973,28.91,27.008,27.25,8.656-1.592,19.516-20.748,16.847-35.305s-14.654-24.553-26.765-22.32S306.675,117.919,309.344,132.476Z" transform="translate(-9.61 -3.007)" fill="none" stroke="#99171e" stroke-miterlimit="10" stroke-width="1" fill-rule="evenodd"/>
        <path id="Path_4505" data-name="Path 4505" d="M350.339,144s-.708,7.55-6.6,11C343.74,155,347.7,147.057,350.339,144Z" transform="translate(-10.642 -4.254)" fill="#fff" fill-rule="evenodd"/>
      </g>
    </g>
  </g>
</svg>
