<svg xmlns="http://www.w3.org/2000/svg" width="50" height="50" viewBox="0 0 50 50">
  <g id="Line" transform="translate(-849 -1745)">
    <g id="Group_1170" data-name="Group 1170" transform="translate(849 1745)">
      <circle id="Ellipse_245" data-name="Ellipse 245" cx="25.741" cy="25.741" r="25.741" fill="#00a4e4"/>
    </g>
    <path id="Icon_awesome-line" data-name="Icon awesome-line" d="M29.956,13.629V23.777a.451.451,0,0,1-.457.457H27.872a.472.472,0,0,1-.371-.186l-4.653-6.28v6.023a.451.451,0,0,1-.457.457H20.764a.451.451,0,0,1-.457-.457V13.643a.451.451,0,0,1,.457-.457h1.613a.431.431,0,0,1,.371.2l4.653,6.28V13.643a.451.451,0,0,1,.457-.457h1.627A.451.451,0,0,1,29.956,13.629Zm-11.7-.457H16.625a.451.451,0,0,0-.457.457V23.777a.451.451,0,0,0,.457.457h1.627a.451.451,0,0,0,.457-.457V13.629A.46.46,0,0,0,18.252,13.172Zm-3.925,8.506H9.889v-8.05a.451.451,0,0,0-.457-.457H7.805a.451.451,0,0,0-.457.457V23.777a.42.42,0,0,0,.128.314.481.481,0,0,0,.314.128h6.522a.451.451,0,0,0,.457-.457V22.135a.457.457,0,0,0-.442-.457Zm24.191-8.506H32a.46.46,0,0,0-.457.457V23.777a.46.46,0,0,0,.457.457h6.522a.451.451,0,0,0,.457-.457V22.15a.451.451,0,0,0-.457-.457H34.08V19.98h4.439a.451.451,0,0,0,.457-.457V17.882a.451.451,0,0,0-.457-.457H34.08V15.713h4.439a.451.451,0,0,0,.457-.457V13.629a.48.48,0,0,0-.457-.457Z" transform="translate(851.1 1752.701)" fill="#fafafa"/>
  </g>
</svg>
