<svg id="Light_Right" xmlns="http://www.w3.org/2000/svg" width="535.913" height="311.425" viewBox="0 0 535.913 311.425">
  <g id="Layer_3" data-name="Layer 3">
    <path id="Path_1057" data-name="Path 1057" d="M514.3,269.82l-1.86-.05-7.17-.3c-3.12-.16-6.95-.24-11.4-.58l-15.18-1.17c-5.64-.52-11.82-1.24-18.49-1.94s-13.78-1.82-21.31-2.91L427.34,261l-6-1-6.08-1.19-12.55-2.47-12.91-2.91A688.429,688.429,0,0,1,280,217.87c-18.24-7.71-36-16.11-52.89-24.87s-32.61-18-47-27a702.892,702.892,0,0,1-78.48-57.29A674.006,674.006,0,0,1,45.07,54.84c-15.16-16.11-26.23-30-33.88-39.56C7.49,10.41,4.66,6.62,2.76,4A28,28,0,0,1,0,0,8.011,8.011,0,0,1,.9.91L3.28,3.75l9,11.1c8,9.45,19.45,23.35,34.91,39.39a705.292,705.292,0,0,0,57.23,53.61,719.279,719.279,0,0,0,78.28,56.7c14.28,9,30.07,18,46.72,26.81s34.42,17.07,52.51,24.78a696.15,696.15,0,0,0,108.9,35.75l12.8,3,12.44,2.54,6,1.22,5.94,1,11.46,2c7.46,1.13,14.53,2.2,21.13,3.08s12.75,1.56,18.34,2.14l15.06,1.4c4.42.41,8.22.56,11.32.8l7.12.5,1.84.15a2.43,2.43,0,0,1,.62.09A2.723,2.723,0,0,1,514.3,269.82Z" fill="#14253f" fill-rule="evenodd"/>
    <path id="Path_1058" data-name="Path 1058" d="M436.33,276.38l2,.59a4,4,0,0,0,4.94-2.72h0a4,4,0,0,0-2.72-4.94l-2-.59a4,4,0,0,0-4.94,2.72h0A4,4,0,0,0,436.33,276.38Z" fill="#fbab40"/>
    <path id="Path_1059" data-name="Path 1059" d="M436.55,267.15a6.44,6.44,0,0,1,.16-5.35,4.47,4.47,0,0,1,4.92-2.32,3.93,3.93,0,0,1,2.42,2,5.79,5.79,0,0,1,.46,4.34c-.28.95-2,4.65-3.82,5.13a2.18,2.18,0,0,1-.83.07C437.94,270.81,436.92,268.12,436.55,267.15Zm1.4-4.68a5.08,5.08,0,0,0-.08,4.18c.56,1.48,1.44,3.19,2.47,2.92.86-.22,2.41-2.8,2.82-4.17h0a4.31,4.31,0,0,0-.34-3.25,2.56,2.56,0,0,0-1.56-1.31,2.137,2.137,0,0,0-.35-.06,3.16,3.16,0,0,0-2.91,1.69Z" fill="#8b5d1f"/>
    <path id="Path_1060" data-name="Path 1060" d="M437.76,276.86c1.32.74-3.66-7.2-7-5.85-4.82,1.94-4.73,19.13,2.06,21.2,9,2.73,18.43-11.11,12.9-17.34C443.71,272.63,435.64,275.68,437.76,276.86Z" fill="#d34f4f" stroke="#782d25" stroke-miterlimit="10" stroke-width="1.5"/>
    <path id="Path_1061" data-name="Path 1061" d="M397.73,239.93l2.06.43a4,4,0,0,1,3.08,4.73h0a4,4,0,0,1-4.72,3.08l-2.07-.44A4,4,0,0,1,393,243h0A4,4,0,0,1,397.73,239.93Z" fill="#fbab40"/>
    <path id="Path_1062" data-name="Path 1062" d="M394.45,257.33A4.47,4.47,0,0,1,391.2,253a6.44,6.44,0,0,1,2.38-4.79c.88-.77,3.57-3.11,5.43-1.39,1.42,1.3,1.16,5.35,1,6.32a5.8,5.8,0,0,1-2.45,3.62,4,4,0,0,1-2.62.68A3.542,3.542,0,0,1,394.45,257.33Zm.06-8.09a5.09,5.09,0,0,0-1.9,3.73,3.09,3.09,0,0,0,2.15,3,2.56,2.56,0,0,0,2-.41,4.37,4.37,0,0,0,1.83-2.71h0c.28-1.4.13-4.41-.53-5a.9.9,0,0,0-.51-.22c-.84-.12-2.07.76-3.04,1.61Z" fill="#8b5d1f"/>
    <path id="Path_1063" data-name="Path 1063" d="M399.22,240.18c1.51,0-6.62,4.63-8.94,1.86-3.34-4,4.83-19.1,11.79-17.73,9.19,1.8,11,18.47,3.22,21.36C402.47,246.72,396.79,240.22,399.22,240.18Z" fill="#ffd679" stroke="#b7892c" stroke-miterlimit="10" stroke-width="1.5"/>
    <path id="Path_1064" data-name="Path 1064" d="M476.1,251.77l2.11.11a4,4,0,0,1,3.77,4.2h0a4,4,0,0,1-4.2,3.76l-2.11-.11a4,4,0,0,1-3.77-4.2h0A4,4,0,0,1,476.1,251.77Z" fill="#fbab40"/>
    <path id="Path_1065" data-name="Path 1065" d="M471.65,265.66a6.49,6.49,0,0,1,1.62-5.11c.75-.89,3-3.62,5.15-2.2,1.59,1.07,2,5.11,1.92,6.1h0a5.8,5.8,0,0,1-1.87,3.95,4,4,0,0,1-2.94,1.07h-.11a4.5,4.5,0,0,1-3.77-3.81Zm7.28-1.27c.06-1.43-.55-4.38-1.29-4.87s-2.28.73-3.3,1.94a5.12,5.12,0,0,0-1.3,4,3,3,0,0,0,2.59,2.62,2.61,2.61,0,0,0,1.91-.71,4.36,4.36,0,0,0,1.39-3Z" fill="#8b5d1f"/>
    <path id="Path_1066" data-name="Path 1066" d="M477.61,251.79c1.49-.26-5.83,5.58-8.55,3.21-3.91-3.42,1.84-19.62,8.93-19.34,9.36.38,13.74,16.57,6.47,20.62C481.83,257.75,475.22,252.2,477.61,251.79Z" fill="#d34f4f" stroke="#782d25" stroke-miterlimit="10" stroke-width="1.5"/>
    <path id="Path_1067" data-name="Path 1067" d="M301.11,208.86l2,.8a4,4,0,0,1,2.19,5.2h0a4,4,0,0,1-5.19,2.19l-2-.79a4,4,0,0,1-2.19-5.2h0A4,4,0,0,1,301.11,208.86Z" fill="#fbab40"/>
    <path id="Path_1068" data-name="Path 1068" d="M294.8,225.41a4.47,4.47,0,0,1-2.42-4.86,6.45,6.45,0,0,1,3.19-4.3c1-.6,4.06-2.43,5.59-.41,1.16,1.54.19,5.48-.18,6.4a5.8,5.8,0,0,1-3,3.12,4.2,4.2,0,0,1-2.06.33A3.741,3.741,0,0,1,294.8,225.41Zm1.49-7.95a5.16,5.16,0,0,0-2.53,3.33,3.09,3.09,0,0,0,1.6,3.33,2.59,2.59,0,0,0,2-.06,4.29,4.29,0,0,0,2.28-2.34h0c.53-1.33.91-4.31.37-5a1,1,0,0,0-.68-.35,6.19,6.19,0,0,0-3.04,1.09Z" fill="#14253f"/>
    <path id="Path_1069" data-name="Path 1069" d="M302.53,209.38c1.5.24-7.33,3.38-9.12.25-2.59-4.51,8.13-17.95,14.75-15.37,8.72,3.4,7.58,20.14-.62,21.6C304.58,216.39,300.14,209,302.53,209.38Z" fill="#d34f4f" stroke="#782d25" stroke-miterlimit="10" stroke-width="1.5"/>
    <path id="Path_1070" data-name="Path 1070" d="M218.18,170.23l1.78,1.14a4,4,0,0,1,1.21,5.51h0a4,4,0,0,1-5.51,1.21L213.88,177a4,4,0,0,1-1.21-5.51h0A4,4,0,0,1,218.18,170.23Z" fill="#fbab40"/>
    <path id="Path_1071" data-name="Path 1071" d="M209,185.36a4.49,4.49,0,0,1-1.5-5.23,6.44,6.44,0,0,1,3.92-3.65c1.1-.41,4.43-1.65,5.57.62.87,1.72-.81,5.42-1.34,6.26h0a5.79,5.79,0,0,1-3.56,2.52,4.41,4.41,0,0,1-1.39.08,3.82,3.82,0,0,1-1.7-.6Zm2.91-7.56a5.14,5.14,0,0,0-3.09,2.82,3.07,3.07,0,0,0,1,3.56,2.62,2.62,0,0,0,2,.32,4.35,4.35,0,0,0,2.67-1.89h0c.76-1.21,1.68-4.08,1.28-4.88a1.12,1.12,0,0,0-.93-.53,7.42,7.42,0,0,0-2.97.6Z" fill="#14253f"/>
    <path id="Path_1072" data-name="Path 1072" d="M219.48,171c1.42.51-7.83,2-9-1.41-1.72-4.9,11.27-16.17,17.3-12.43,8,4.94,3.79,21.18-4.53,21.13C220.22,178.26,217.2,170.18,219.48,171Z" fill="#ffd679" stroke="#b7892c" stroke-miterlimit="10" stroke-width="1.5"/>
    <path id="Path_1073" data-name="Path 1073" d="M84.7,72.35l1.78,1.13A4,4,0,0,1,87.69,79h0a4,4,0,0,1-5.51,1.22L80.4,79.07a4,4,0,0,1-1.21-5.51h0A4,4,0,0,1,84.7,72.35Z" fill="#fbab40"/>
    <path id="Path_1074" data-name="Path 1074" d="M75.48,87.47A4.48,4.48,0,0,1,74,82.25a6.43,6.43,0,0,1,3.93-3.65c1.09-.41,4.43-1.65,5.57.62.86,1.72-.82,5.41-1.35,6.25h0A5.75,5.75,0,0,1,78.57,88a4.72,4.72,0,0,1-1.39.09,3.83,3.83,0,0,1-1.7-.62Zm2.92-7.55a5.11,5.11,0,0,0-3.1,2.82,3.11,3.11,0,0,0,1,3.56,2.56,2.56,0,0,0,2,.31,4.34,4.34,0,0,0,2.67-1.88h0c.76-1.21,1.68-4.08,1.28-4.88a1.07,1.07,0,0,0-.92-.53A7.35,7.35,0,0,0,78.4,79.92Z" fill="#14253f"/>
    <path id="Path_1075" data-name="Path 1075" d="M86,73.11c1.43.51-7.82,2-9-1.42-1.72-4.9,11.27-16.16,17.3-12.42,8,4.93,3.8,21.18-4.53,21.13C86.74,80.37,83.72,72.29,86,73.11Z" fill="#ffd679" stroke="#b7892c" stroke-miterlimit="10" stroke-width="1.5"/>
    <path id="Path_1076" data-name="Path 1076" d="M143.06,120.92l1.78,1.14a4,4,0,0,1,1.21,5.51h0a4,4,0,0,1-5.51,1.21l-1.78-1.14a4,4,0,0,1-1.21-5.51h0A4,4,0,0,1,143.06,120.92Z" fill="#fbab40"/>
    <path id="Path_1077" data-name="Path 1077" d="M133.84,136.05a4.49,4.49,0,0,1-1.49-5.23,6.44,6.44,0,0,1,3.92-3.65c1.09-.4,4.43-1.64,5.57.62.86,1.72-.82,5.42-1.34,6.26h0a5.84,5.84,0,0,1-3.57,2.52,4.39,4.39,0,0,1-1.39.08,3.74,3.74,0,0,1-1.7-.6Zm2.92-7.56a5.16,5.16,0,0,0-3.1,2.82,3.1,3.1,0,0,0,1,3.56,2.64,2.64,0,0,0,2,.32,4.3,4.3,0,0,0,2.66-1.89h0c.76-1.21,1.68-4.08,1.28-4.88a1.1,1.1,0,0,0-.92-.53,7.42,7.42,0,0,0-2.92.6Z" fill="#14253f"/>
    <path id="Path_1078" data-name="Path 1078" d="M144.36,121.68c1.43.51-7.82,2-9-1.41-1.72-4.9,11.27-16.17,17.3-12.43,8,4.94,3.8,21.19-4.53,21.13C145.1,129,142.08,120.87,144.36,121.68Z" fill="#d34f4f" stroke="#782d25" stroke-miterlimit="10" stroke-width="1.5"/>
    <path id="Path_1079" data-name="Path 1079" d="M338.75,252.25l1.9.91A4,4,0,0,0,346,251.3h0a4,4,0,0,0-1.86-5.33l-1.91-.91a4,4,0,0,0-5.32,1.87h0a4,4,0,0,0,1.84,5.32Z" fill="#fbab40"/>
    <path id="Path_1080" data-name="Path 1080" d="M340.49,243.18a6.5,6.5,0,0,1,1-5.25,4.47,4.47,0,0,1,5.23-1.47,3.91,3.91,0,0,1,2.07,2.35,5.76,5.76,0,0,1-.26,4.35h0c-.44.89-2.71,4.26-4.62,4.43a2.531,2.531,0,0,1-.48,0C341.33,247.37,340.71,244.25,340.49,243.18Zm7-3.9a2.57,2.57,0,0,0-1.32-1.54,3.08,3.08,0,0,0-3.53,1,5.13,5.13,0,0,0-.78,4.12c.31,1.55.92,3.38,1.95,3.28s2.85-2.36,3.48-3.65a4.29,4.29,0,0,0,.21-3.21Z" fill="#14253f"/>
    <path id="Path_1081" data-name="Path 1081" d="M340.08,253c1.18.94-2.42-7.71-5.95-6.93-5.07,1.11-7.82,18.08-1.47,21.25,8.38,4.17,20-7.91,15.59-15C346.65,249.76,338.18,251.44,340.08,253Z" fill="#58c7ed" stroke="#267287" stroke-miterlimit="10" stroke-width="1.5"/>
    <path id="Path_1082" data-name="Path 1082" d="M507.24,282.67l2.1.16a4,4,0,0,0,4.28-3.68h0a4,4,0,0,0-3.69-4.28l-2.1-.15a4,4,0,0,0-4.28,3.68h0a4,4,0,0,0,3.69,4.27Z" fill="#fbab40"/>
    <path id="Path_1083" data-name="Path 1083" d="M505.55,273.6a6.48,6.48,0,0,1-.95-5.28,4.49,4.49,0,0,1,4.33-3.28,4,4,0,0,1,2.79,1.44,5.8,5.8,0,0,1,1.34,4.15c-.08,1-1,5-2.68,5.81a2.21,2.21,0,0,1-1.25.24C507.42,276.51,506.06,274.39,505.55,273.6Zm3.3-7.15a3.09,3.09,0,0,0-2.9,2.27,5.14,5.14,0,0,0,.78,4.11c.86,1.33,2.09,2.82,3,2.35s1.79-3.24,1.91-4.67h0a4.4,4.4,0,0,0-1-3.11,2.67,2.67,0,0,0-1.7-.94Z" fill="#8b5d1f"/>
    <path id="Path_1084" data-name="Path 1084" d="M508.73,282.85c1.45.44-5.06-6.29-8.06-4.28-4.32,2.89-.68,19.69,6.39,20.32,9.33.82,15.74-14.68,9-19.63C513.69,277.47,506.42,282.13,508.73,282.85Z" fill="#58c7ed" stroke="#267287" stroke-miterlimit="10" stroke-width="1.5"/>
    <path id="Path_1085" data-name="Path 1085" d="M246.53,214.79l1.74,1.2a4,4,0,0,0,5.55-1h0a4,4,0,0,0-1-5.55l-1.74-1.2a4,4,0,0,0-5.55,1h0A4,4,0,0,0,246.53,214.79Z" fill="#fbab40"/>
    <path id="Path_1086" data-name="Path 1086" d="M249.68,206.11a6.47,6.47,0,0,1,1.85-5,4.49,4.49,0,0,1,5.4-.63,3.94,3.94,0,0,1,1.67,2.65,5.83,5.83,0,0,1-.94,4.26h0c-.58.81-3.34,3.78-5.26,3.65h-.09C249.86,210.75,249.72,207.26,249.68,206.11Zm6.83.44a4.4,4.4,0,0,0,.71-3.2,2.62,2.62,0,0,0-1.07-1.73,3.1,3.1,0,0,0-3.66.49,5.12,5.12,0,0,0-1.4,3.94c.06,1.58.41,3.45,1.41,3.56s3.18-1.9,4-3.06Z" fill="#14253f"/>
    <path id="Path_1087" data-name="Path 1087" d="M247.74,215.7c1,1.11-1.19-8-4.79-7.78-5.18.31-10.57,16.63-4.79,20.76,7.63,5.43,21-4.68,17.75-12.34C254.73,213.57,246.1,213.9,247.74,215.7Z" fill="#d34f4f" stroke="#782d25" stroke-miterlimit="10" stroke-width="1.5"/>
    <path id="Path_1088" data-name="Path 1088" d="M164.06,169.66l1.71,1.24a4,4,0,0,0,5.57-.88h0a4,4,0,0,0-.89-5.57l-1.7-1.24a4,4,0,0,0-5.58.88h0A4,4,0,0,0,164.06,169.66Z" fill="#fbab40"/>
    <path id="Path_1089" data-name="Path 1089" d="M167.4,161.05a6.46,6.46,0,0,1,2-5,4.49,4.49,0,0,1,5.41-.51,4,4,0,0,1,1.62,2.69,5.78,5.78,0,0,1-1,4.23h0c-.59.8-3.42,3.71-5.33,3.54h0C167.48,165.76,167.42,162.22,167.4,161.05Zm2.9-3.93a5.19,5.19,0,0,0-1.5,3.91c0,1.58.28,3.48,1.33,3.58h0c.89.09,3.22-1.82,4.07-3h0a4.37,4.37,0,0,0,.79-3.18,2.65,2.65,0,0,0-1-1.76,2.49,2.49,0,0,0-1.17-.41,3.33,3.33,0,0,0-2.52.86Z" fill="#14253f"/>
    <path id="Path_1090" data-name="Path 1090" d="M165.24,170.6c1,1.14-1-8-4.61-7.89-5.19.19-10.94,16.39-5.25,20.65,7.5,5.61,21.1-4.2,18-11.94C172.28,168.63,163.65,168.77,165.24,170.6Z" fill="#58c7ed" stroke="#267287" stroke-miterlimit="10" stroke-width="1.5"/>
    <path id="Path_1091" data-name="Path 1091" d="M34.77,60.19l1.29,1.67a4,4,0,0,0,5.59.75h0A4,4,0,0,0,42.39,57l-1.28-1.68a4,4,0,0,0-5.59-.74h0a4,4,0,0,0-.75,5.61Z" fill="#fbab40"/>
    <path id="Path_1092" data-name="Path 1092" d="M41.52,58.39c-2.36-.94-1.41-4.37-1.09-5.5a6.46,6.46,0,0,1,3.31-4.22,4.48,4.48,0,0,1,5.32,1.06,3.94,3.94,0,0,1,.78,3,5.82,5.82,0,0,1-2.2,3.77h0c-.71.53-3.66,2.19-5.54,2A2.14,2.14,0,0,1,41.52,58.39Zm5.27-3a4.31,4.31,0,0,0,1.66-2.82,2.61,2.61,0,0,0-.49-2A3.09,3.09,0,0,0,44.33,50a5.14,5.14,0,0,0-2.55,3.32c-.42,1.52-.72,3.42.26,3.81s3.61-.82,4.75-1.68Z" fill="#14253f"/>
    <path id="Path_1093" data-name="Path 1093" d="M35.64,61.42c.63,1.38,1.33-8-2.17-8.87-5-1.3-15.16,12.59-10.92,18.29,5.59,7.52,21.43,2,20.67-6.3C42.94,61.55,34.64,59.22,35.64,61.42Z" fill="#58c7ed" stroke="#267287" stroke-miterlimit="10" stroke-width="1.5"/>
    <path id="Path_1094" data-name="Path 1094" d="M97.89,123.18l1.41,1.58a4,4,0,0,0,5.63.31h0a4,4,0,0,0,.32-5.63l-1.41-1.57a4,4,0,0,0-5.63-.32h0A4,4,0,0,0,97.89,123.18Z" fill="#fbab40"/>
    <path id="Path_1095" data-name="Path 1095" d="M104.48,120.88c-2.42-.76-1.73-4.25-1.5-5.4a6.46,6.46,0,0,1,3-4.46,4.49,4.49,0,0,1,5.39.65,4,4,0,0,1,1,3,5.8,5.8,0,0,1-1.92,3.92c-.69.61-3.67,2.59-5.56,2.4a1.77,1.77,0,0,1-.41-.11Zm2.17-8.63a5.16,5.16,0,0,0-2.29,3.5c-.31,1.55-.46,3.47.54,3.79.85.26,3.54-1.1,4.61-2h0a4.32,4.32,0,0,0,1.44-2.93,2.62,2.62,0,0,0-.63-1.94,2.68,2.68,0,0,0-1.69-.79,3.31,3.31,0,0,0-1.98.37Z" fill="#14253f"/>
    <path id="Path_1096" data-name="Path 1096" d="M98.85,124.35c.73,1.32.72-8-2.84-8.68-5.11-.92-14.16,13.69-9.51,19,6.14,7.08,21.52.38,20.14-7.84C106.14,123.92,97.68,122.22,98.85,124.35Z" fill="#d34f4f" stroke="#782d25" stroke-miterlimit="10" stroke-width="1.5"/>
    <path id="Path_1097" data-name="Path 1097" d="M361.33,256.15c2.22.22,3.9.7,3.84,1.53s-1.86,1.38-4.05,1.08-5.57-1.23-5.53-1.82S359.17,255.93,361.33,256.15Z" fill="#58c7ed" fill-rule="evenodd"/>
    <path id="Path_1098" data-name="Path 1098" d="M352.92,269.81c1.16,1.78,1.79,3.33,1.1,3.8s-2.19-.52-3.27-2.33-2.37-4.92-1.89-5.25S351.8,268.07,352.92,269.81Z" fill="#58c7ed" fill-rule="evenodd"/>
    <path id="Path_1099" data-name="Path 1099" d="M331.24,273.18a7.869,7.869,0,0,1-1.3,3.72c-1.4,2-3.23,2.85-3.69,2.17s.37-2.1,1.52-3.63a26.182,26.182,0,0,0,1.87-2.74c.56-.93.94-1.75,1.24-1.72S331.36,271.94,331.24,273.18Z" fill="#58c7ed" fill-rule="evenodd"/>
    <path id="Path_1100" data-name="Path 1100" d="M321.41,263.6a15.78,15.78,0,0,1-5-.51c-3-.83-5-2.22-4.6-2.95s2.64-.4,5.29.42c1.31.43,3,1,4.48,1.37s2.58.74,2.57,1S323,263.52,321.41,263.6Z" fill="#58c7ed" fill-rule="evenodd"/>
    <path id="Path_1101" data-name="Path 1101" d="M318.49,245.72c-2-1.12-3.42-2.27-3-3s2.31-.5,4.27.69,4.79,3.45,4.52,4S320.45,246.81,318.49,245.72Z" fill="#58c7ed" fill-rule="evenodd"/>
    <path id="Path_1102" data-name="Path 1102" d="M182.61,178.29c1.72.67,2.94,1.47,2.67,2.26s-1.87.95-3.56.21-4.14-2.33-3.95-2.88S180.93,177.64,182.61,178.29Z" fill="#58c7ed" fill-rule="evenodd"/>
    <path id="Path_1103" data-name="Path 1103" d="M174.54,191.85c.46,2,.73,3.66,0,4s-2.08-1.11-2.5-3.34-.16-5.73.45-5.76C172.88,186.72,174,189.91,174.54,191.85Z" fill="#58c7ed" fill-rule="evenodd"/>
    <path id="Path_1104" data-name="Path 1104" d="M157.3,193.54c-.84,1-1.74,1.58-2.4,1.07s-.58-1.73.32-2.68,2.68-2.12,3.14-1.76S158.12,192.57,157.3,193.54Z" fill="#58c7ed" fill-rule="evenodd"/>
    <path id="Path_1105" data-name="Path 1105" d="M141.63,180.37c-1.84.18-3.3,0-3.4-.82s1.24-1.68,3.07-1.79,4.76.22,4.83.8S143.42,180.19,141.63,180.37Z" fill="#58c7ed" fill-rule="evenodd"/>
    <path id="Path_1106" data-name="Path 1106" d="M142.56,164.5c-1.75-1.1-2.95-2.21-2.52-2.93s2.16-.49,3.86.67,4.11,3.37,3.81,3.88S144.27,165.56,142.56,164.5Z" fill="#58c7ed" fill-rule="evenodd"/>
    <path id="Path_1107" data-name="Path 1107" d="M165.06,131.45c2.19,1.06,3.76,2.15,3.42,2.91s-2.37.6-4.52-.52-5.29-3.3-5.05-3.83S162.92,130.43,165.06,131.45Z" fill="#d34f4f" fill-rule="evenodd"/>
    <path id="Path_1108" data-name="Path 1108" d="M167.44,118.44c1.42-.22,3.11-.57,4.39-.81,2.65-.44,4.68-1.07,5-.29s-1.54,2.43-4.57,2.87a15,15,0,0,1-4.9-.09c-1.52-.27-2.59-.78-2.55-1.05S166,118.69,167.44,118.44Z" fill="#d34f4f" fill-rule="evenodd"/>
    <path id="Path_1109" data-name="Path 1109" d="M156.38,100.68A30.831,30.831,0,0,0,158,97.94c1-1.63,1.42-3.1,2.28-3s1.37,2.16,0,4.31a8.17,8.17,0,0,1-2.85,2.72c-1.07.62-2,.74-2.15.5S155.8,101.56,156.38,100.68Z" fill="#d34f4f" fill-rule="evenodd"/>
    <path id="Path_1110" data-name="Path 1110" d="M138.4,100.16c-.45-1.54-.5-2.83.3-3.1s1.83.73,2.2,2.29.49,4.13-.06,4.31S138.84,101.66,138.4,100.16Z" fill="#d34f4f" fill-rule="evenodd"/>
    <path id="Path_1111" data-name="Path 1111" d="M126.16,107.28c-2.18-1.4-3.89-2.49-3.56-3.27s2.64-.53,5,1,5.17,4.81,4.72,5.26C132,110.61,128.31,108.56,126.16,107.28Z" fill="#d34f4f" fill-rule="evenodd"/>
    <path id="Path_1112" data-name="Path 1112" d="M282.26,200.2c-1.54-.73-2.6-1.58-2.27-2.35s1.83-.85,3.33,0,3.64,2.48,3.4,3S283.76,200.91,282.26,200.2Z" fill="#d34f4f" fill-rule="evenodd"/>
    <path id="Path_1113" data-name="Path 1113" d="M290.45,185.27c-.86-2.17-1.24-4-.47-4.3s2.11,1.1,2.89,3.29,1.55,5.78,1,6S291.28,187.38,290.45,185.27Z" fill="#d34f4f" fill-rule="evenodd"/>
    <path id="Path_1114" data-name="Path 1114" d="M310,186l1.59-2.55c1-1.46,1.68-2.74,2.5-2.53s1,2.13-.29,4a8.71,8.71,0,0,1-2.67,2.37c-1,.55-1.84.71-2,.47S309.5,186.83,310,186Z" fill="#d34f4f" fill-rule="evenodd"/>
    <path id="Path_1115" data-name="Path 1115" d="M323.94,193.51c2.31-.48,4.15-.54,4.34.27s-1.46,1.89-3.76,2.29-6,.54-6.14,0S321.7,194,323.94,193.51Z" fill="#d34f4f" fill-rule="evenodd"/>
    <path id="Path_1116" data-name="Path 1116" d="M324.73,212.38c1.83.5,3.17,1.19,3,2s-1.81,1.12-3.61.54-4.49-1.94-4.36-2.5S322.94,211.9,324.73,212.38Z" fill="#d34f4f" fill-rule="evenodd"/>
    <path id="Path_1117" data-name="Path 1117" d="M268.73,222c2.49.76,4.32,1.65,4.1,2.45s-2.38.9-4.83.07-6.13-2.58-6-3.14S266.31,221.26,268.73,222Z" fill="#d34f4f" fill-rule="evenodd"/>
    <path id="Path_1118" data-name="Path 1118" d="M257.48,236c.71,2,1,3.62.19,3.93s-2-1-2.64-3-1.17-5.27-.62-5.49S256.79,234.11,257.48,236Z" fill="#d34f4f" fill-rule="evenodd"/>
    <path id="Path_1119" data-name="Path 1119" d="M234.66,240.68c-.86,1.42-1.53,2.57-2.35,2.34s-1-2,.06-3.63,3.63-3.43,4-2.93C236.65,236.8,235.4,239.28,234.66,240.68Z" fill="#d34f4f" fill-rule="evenodd"/>
    <path id="Path_1120" data-name="Path 1120" d="M223.65,227.79c-2.19,1-4.07,1-4.27.23s1.24-1.86,3.19-2.62,5.09-2.1,5.45-1.7S225.86,226.94,223.65,227.79Z" fill="#d34f4f" fill-rule="evenodd"/>
    <path id="Path_1121" data-name="Path 1121" d="M225.14,209.33c-1.87-.85-3.19-1.8-2.87-2.57s2.08-.76,3.91.16,4.48,2.79,4.26,3.33S227,210.16,225.14,209.33Z" fill="#d34f4f" fill-rule="evenodd"/>
    <path id="Path_1122" data-name="Path 1122" d="M117.55,135.26c1.88,1.52,2.83,3.17,2.21,3.72s-2.24-.26-3.83-1.66-4.27-3.6-4.09-4.11S115.75,133.68,117.55,135.26Z" fill="#d34f4f" fill-rule="evenodd"/>
    <path id="Path_1123" data-name="Path 1123" d="M100.47,144c.34,1.94.3,3.51-.51,3.68s-1.8-1.21-2.06-3.16-.21-5.08.36-5.2S100.13,142.14,100.47,144Z" fill="#d34f4f" fill-rule="evenodd"/>
    <path id="Path_1124" data-name="Path 1124" d="M79.93,142.69a7.24,7.24,0,0,1-1.61,3.72c-1.67,2-3.72,2.45-4,1.7s.74-2,2-3.38a16,16,0,0,0,2-2.58c.6-.91,1-1.75,1.27-1.72S80.11,141.41,79.93,142.69Z" fill="#d34f4f" fill-rule="evenodd"/>
    <path id="Path_1125" data-name="Path 1125" d="M74,128.84c-1.67-.41-2.89-1-2.73-1.84s1.63-1.21,3.28-.73,4.1,1.69,4,2.26S75.58,129.23,74,128.84Z" fill="#d34f4f" fill-rule="evenodd"/>
    <path id="Path_1126" data-name="Path 1126" d="M80.32,110.38c-1.3-1.21-2.1-2.38-1.55-3s2-.22,3.29,1,2.86,3.59,2.47,4S81.59,111.56,80.32,110.38Z" fill="#d34f4f" fill-rule="evenodd"/>
    <path id="Path_1127" data-name="Path 1127" d="M414.91,268c-1.94-.8-3.1-2-2.65-2.69s2-.5,3.6.25,4.32,1.93,4.31,2.47S416.81,268.86,414.91,268Z" fill="#d34f4f" fill-rule="evenodd"/>
    <path id="Path_1128" data-name="Path 1128" d="M409.13,277.74c-2.89-.36-5.08-.94-5-1.77s2.43-1.27,5.29-.84,7.26,1.59,7.2,2.17S411.94,278.09,409.13,277.74Z" fill="#d34f4f" fill-rule="evenodd"/>
    <path id="Path_1129" data-name="Path 1129" d="M411.17,292.39c-2.16.76-3.94,1.06-4.24.27s1.15-2.05,3.33-2.73,5.74-1.29,5.95-.74S413.28,291.65,411.17,292.39Z" fill="#d34f4f" fill-rule="evenodd"/>
    <path id="Path_1130" data-name="Path 1130" d="M426.77,302.82c-.66,1.72-1.47,2.95-2.26,2.67s-.94-1.87-.21-3.55,2.34-4.15,2.89-3.95S427.42,301.14,426.77,302.82Z" fill="#d34f4f" fill-rule="evenodd"/>
    <path id="Path_1131" data-name="Path 1131" d="M444.43,303.93c.92,1.51,1.36,2.84.67,3.3s-2-.33-2.87-1.87-1.76-4.2-1.27-4.52S443.54,302.47,444.43,303.93Z" fill="#d34f4f" fill-rule="evenodd"/>
    <path id="Path_1132" data-name="Path 1132" d="M455.43,289.24c2,.38,3.6.71,3.6,1.56s-1.8,1.53-4,1-5.3-2.19-5.06-2.76C450.14,288.68,453.48,289,455.43,289.24Z" fill="#d34f4f" fill-rule="evenodd"/>
    <path id="Path_1133" data-name="Path 1133" d="M457.18,253c-1.42-.38-2.44-1-2.25-1.79s1.46-1.22,2.84-.76,3.44,1.64,3.31,2.21S458.55,253.37,457.18,253Z" fill="#d34f4f" fill-rule="evenodd"/>
    <path id="Path_1134" data-name="Path 1134" d="M461.77,234.59c-1.07-1.77-1.64-3.31-.94-3.76s2.15.55,3.15,2.35,2.16,4.86,1.67,5.18S462.82,236.31,461.77,234.59Z" fill="#d34f4f" fill-rule="evenodd"/>
    <path id="Path_1135" data-name="Path 1135" d="M473.18,225.08c.27-1.26.79-2.18,1.61-2s1.32,1.25,1,2.48-1.37,3.08-1.94,3S472.91,226.3,473.18,225.08Z" fill="#d34f4f" fill-rule="evenodd"/>
    <path id="Path_1136" data-name="Path 1136" d="M490.4,230.55c1.4-1.26,2.7-2,3.28-1.41s0,2.12-1.47,3.32-4,2.7-4.43,2.28S489,231.78,490.4,230.55Z" fill="#d34f4f" fill-rule="evenodd"/>
    <path id="Path_1137" data-name="Path 1137" d="M496.51,245c1.7-.47,3.09-.23,3.17.59s-1,1.61-2.41,1.92-3.86.79-4.18.34S494.79,245.42,496.51,245Z" fill="#d34f4f" fill-rule="evenodd"/>
    <path id="Path_1138" data-name="Path 1138" d="M495.62,260.52c2.88.44,5.05,1.09,4.94,1.92s-2.47,1.2-5.31.68-7.21-1.8-7.13-2.38S492.82,260.09,495.62,260.52Z" fill="#d34f4f" fill-rule="evenodd"/>
    <path id="Path_1139" data-name="Path 1139" d="M488,296.38c-1.82.61-3.32.79-3.61,0s.88-1.95,2.71-2.48,4.83-.92,5-.37S489.8,295.78,488,296.38Z" fill="#58c7ed" fill-rule="evenodd"/>
    <path id="Path_1140" data-name="Path 1140" d="M498.18,308.78c-1.29,1.8-2.54,3-3.23,2.55s-.28-2.29,1.07-4,3.85-4.19,4.33-3.87S499.44,307,498.18,308.78Z" fill="#58c7ed" fill-rule="evenodd"/>
    <path id="Path_1141" data-name="Path 1141" d="M518.69,306c1,2,1.54,3.62.81,4s-2.17-.78-3.12-2.76-2-5.29-1.49-5.58S517.69,304.09,518.69,306Z" fill="#58c7ed" fill-rule="evenodd"/>
    <path id="Path_1142" data-name="Path 1142" d="M525.82,285.74a15.739,15.739,0,0,1,5-.49c3.07.23,5.28,1.2,5.08,2s-2.51.91-5.27.63c-1.36-.16-3.15-.35-4.64-.46s-2.67-.22-2.73-.51S524.29,286.13,525.82,285.74Z" fill="#71af97" fill-rule="evenodd"/>
    <path id="Path_1143" data-name="Path 1143" d="M489.14,279a18.46,18.46,0,0,1-5.23.18c-3.19-.4-5.48-1.44-5.26-2.23s2.66-.82,5.57-.38,7.63.93,7.71,1.46C492,278.23,490.76,278.69,489.14,279Z" fill="#58c7ed" fill-rule="evenodd"/>
    <path id="Path_1144" data-name="Path 1144" d="M48,72.88c1.12,1.28,1.75,2.48,1.14,3.05s-2,.06-3.07-1.27-2.33-3.72-1.9-4.11S46.88,71.64,48,72.88Z" fill="#58c7ed" fill-rule="evenodd"/>
    <path id="Path_1145" data-name="Path 1145" d="M36.24,83.07c.34,2,.29,3.65-.53,3.82s-1.79-1.3-2.05-3.33-.19-5.28.38-5.39S35.91,81.1,36.24,83.07Z" fill="#58c7ed" fill-rule="evenodd"/>
    <path id="Path_1146" data-name="Path 1146" d="M16.37,82.53c-1.22,1.57-2.42,2.6-3.1,2.11s-.29-2.16,1-3.68,3.66-3.59,4.13-3.24S17.57,81,16.37,82.53Z" fill="#58c7ed" fill-rule="evenodd"/>
    <path id="Path_1147" data-name="Path 1147" d="M11.19,69.47c-2.31-.13-4.09-.54-4.06-1.37S9,66.64,11.29,66.85s5.85,1,5.83,1.6S13.44,69.6,11.19,69.47Z" fill="#58c7ed" fill-rule="evenodd"/>
    <path id="Path_1148" data-name="Path 1148" d="M15.21,50.7c-1.48-1.84-2.39-3.45-1.76-4s2.36.43,3.77,2.3,3.26,5.1,2.78,5.48S16.66,52.48,15.21,50.7Z" fill="#58c7ed" fill-rule="evenodd"/>
    <path id="Path_1149" data-name="Path 1149" d="M24.46,45.71a20.72,20.72,0,0,0-1.61-2.31c-1-1.35-2.07-2.13-1.74-2.93.15-.35.69-.55,1.45-.38a4.16,4.16,0,0,1,2.35,1.69,6.64,6.64,0,0,1,1.18,3.51c0,1.16-.33,2-.61,2S25,46.51,24.46,45.71Z" fill="#58c7ed" fill-rule="evenodd"/>
    <path id="Path_1150" data-name="Path 1150" d="M68.14,60c-1-1.34-1.59-2.58-.94-3.11s2,.07,3,1.46,2.09,3.84,1.64,4.21S69.14,61.27,68.14,60Z" fill="#caa85a" fill-rule="evenodd"/>
    <path id="Path_1151" data-name="Path 1151" d="M79.88,53.23a29.241,29.241,0,0,0-1.08-3.66c-.7-2.19-1.72-3.71-1.09-4.3s2.73.65,3.57,3.43a10,10,0,0,1,.28,4.52c-.23,1.41-.79,2.35-1.06,2.29S80.17,54.45,79.88,53.23Z" fill="#caa85a" fill-rule="evenodd"/>
    <path id="Path_1152" data-name="Path 1152" d="M105.57,49.21c-1.76,1.67-3.34,2.74-3.93,2.15s.29-2.43,2.1-4,5-3.76,5.37-3.35S107.29,47.58,105.57,49.21Z" fill="#caa85a" fill-rule="evenodd"/>
    <path id="Path_1153" data-name="Path 1153" d="M108.89,65.77c-2.49.52-4.48.61-4.67-.2s1.6-1.92,4.1-2.36,6.47-.65,6.6-.09S111.31,65.26,108.89,65.77Z" fill="#caa85a" fill-rule="evenodd"/>
    <path id="Path_1154" data-name="Path 1154" d="M108.54,83.52c-1.23-.44-2.09-1.08-1.84-1.88s1.43-1.14,2.63-.62,2.92,1.78,2.75,2.34S109.74,84,108.54,83.52Z" fill="#caa85a" fill-rule="evenodd"/>
    <path id="Path_1155" data-name="Path 1155" d="M199.16,156.81c-1.65-1.25-2.73-2.47-2.25-3.15s2.21-.28,3.79,1,3.79,3.74,3.45,4.21S200.76,158,199.16,156.81Z" fill="#caa85a" fill-rule="evenodd"/>
    <path id="Path_1156" data-name="Path 1156" d="M211.65,145.19c-1-2.33-1.85-4.14-1.15-4.62s2.5,1,3.54,3.54,1.52,6.83.89,6.94C214.51,151.1,212.72,147.4,211.65,145.19Z" fill="#caa85a" fill-rule="evenodd"/>
    <path id="Path_1157" data-name="Path 1157" d="M230,146.39c-1.22,2.18-2.44,3.71-3.18,3.32s-.41-2.45.87-4.57,3.7-5.2,4.22-4.92S231.2,144.27,230,146.39Z" fill="#caa85a" fill-rule="evenodd"/>
    <path id="Path_1158" data-name="Path 1158" d="M240.25,157.36c-1.85,1.07-3.45,1.63-3.88.92s.64-2.17,2.52-3.16,5.05-2.14,5.36-1.64S242.05,156.32,240.25,157.36Z" fill="#caa85a" fill-rule="evenodd"/>
    <path id="Path_1159" data-name="Path 1159" d="M240.46,171.28c-2.34-.56-4.08-1.3-3.9-2.12s2.17-1.08,4.48-.44,5.79,2.11,5.67,2.68S242.74,171.84,240.46,171.28Z" fill="#caa85a" fill-rule="evenodd"/>
    <path id="Path_1160" data-name="Path 1160" d="M237.05,182.64c-1.88-.93-3.35-1.69-3.13-2.5s2.19-1,4.24.12,4.61,3.61,4.21,4.09S238.89,183.46,237.05,182.64Z" fill="#caa85a" fill-rule="evenodd"/>
    <path id="Path_1161" data-name="Path 1161" d="M377.16,236.32c-2.59-.87-4.3-2.17-3.93-2.9s2.43-.46,4.74.4,6.11,2.14,6.09,2.68S379.7,237.27,377.16,236.32Z" fill="#caa85a" fill-rule="evenodd"/>
    <path id="Path_1162" data-name="Path 1162" d="M379.14,224.28c-2.32-1.84-3.63-3.76-3-4.33s2.57.51,4.65,2.26,5.49,4.45,5.29,4.95S381.37,226.17,379.14,224.28Z" fill="#caa85a" fill-rule="evenodd"/>
    <path id="Path_1163" data-name="Path 1163" d="M395.49,212.48c0,1.9-.3,3.37-1.14,3.4s-1.56-1.44-1.48-3.33.67-4.84,1.25-4.86S395.49,210.63,395.49,212.48Z" fill="#caa85a" fill-rule="evenodd"/>
    <path id="Path_1164" data-name="Path 1164" d="M410.78,214.24c-.74,2-1.61,3.38-2.4,3.1s-.89-2.05-.08-4,2.52-4.76,3.07-4.57S411.49,212.33,410.78,214.24Z" fill="#caa85a" fill-rule="evenodd"/>
    <path id="Path_1165" data-name="Path 1165" d="M421,229.16c-2.08,1.46-3.87,2.34-4.37,1.67s.72-2.41,2.83-3.79,5.69-3.16,6-2.69S423,227.74,421,229.16Z" fill="#caa85a" fill-rule="evenodd"/>
    <path id="Path_1166" data-name="Path 1166" d="M418.22,242.67c-2.63-.34-4.63-.9-4.54-1.73s2.23-1.29,4.83-.88,6.61,1.52,6.55,2.1S420.78,243,418.22,242.67Z" fill="#caa85a" fill-rule="evenodd"/>
  </g>
</svg>
