<svg xmlns="http://www.w3.org/2000/svg" width="549.359" height="286.81" viewBox="0 0 549.359 286.81">
  <g id="Light_Left" transform="translate(-0.001 -0.048)">
    <g id="Layer_3" data-name="Layer 3">
      <path id="Path_1167" data-name="Path 1167" d="M21.78,244.33a4.309,4.309,0,0,1,.63-.05l1.85-.07,7.13-.15c3.1-.08,6.91-.05,11.35-.24l15.11-.64c5.62-.3,11.78-.79,18.42-1.23s13.75-1.29,21.27-2l11.53-1.45,6-.74,6.09-.93,12.54-1.93,12.93-2.35a696.68,696.68,0,0,0,110.52-30.39c18.45-6.82,36.54-14.27,53.66-22.18s33.27-16.22,48-24.5a720.07,720.07,0,0,0,81-52.8A708.01,708.01,0,0,0,499.6,51.92c16.23-15.27,28.31-28.59,36.79-37.64l9.52-10.64c1.1-1.2,1.95-2.11,2.52-2.72s.9-.9.93-.87a28.64,28.64,0,0,1-2.95,3.89c-2,2.49-5,6.14-9,10.83-8.11,9.14-19.85,22.51-35.78,37.86a672.5,672.5,0,0,1-59.16,51.1,700,700,0,0,1-81.18,53.39c-14.78,8.29-31.05,16.59-48.22,24.64-17.25,7.89-35.45,15.41-54,22.22A688.788,688.788,0,0,1,147.55,234l-13,2.27-12.65,1.85-6.14.9-6,.71-11.63,1.35c-7.57.72-14.74,1.35-21.42,1.87-6.7.37-12.91.78-18.56,1l-15.22.42c-4.47.12-8.3,0-11.42,0l-7.18-.06H22.47A3,3,0,0,1,21.78,244.33Z" fill="#14253f" fill-rule="evenodd"/>
      <path id="Path_1168" data-name="Path 1168" d="M100,254.74l-2.06.49a4,4,0,0,1-4.8-3h0a4,4,0,0,1,3-4.81l2.05-.48a4,4,0,0,1,4.81,3h0a4,4,0,0,1-3,4.8Z" fill="#fbab40"/>
      <path id="Path_1169" data-name="Path 1169" d="M96.71,249.19a2,2,0,0,1-.83-.11c-1.84-.57-3.33-4.35-3.57-5.31a5.84,5.84,0,0,1,.67-4.31,4,4,0,0,1,2.52-1.86,4.46,4.46,0,0,1,4.8,2.55,6.44,6.44,0,0,1-.1,5.36C99.79,246.45,98.63,249.09,96.71,249.19Zm-.55-10.26a2,2,0,0,0-.35,0,2.62,2.62,0,0,0-1.63,1.23,4.38,4.38,0,0,0-.5,3.23h0c.34,1.39,1.76,4,2.62,4.31,1,.31,2-1.35,2.61-2.8a5.1,5.1,0,0,0,.12-4.18,3.18,3.18,0,0,0-2.87-1.79Z" fill="#8b5d1f"/>
      <path id="Path_1170" data-name="Path 1170" d="M98.52,255.15c-1.36.67,4-7,7.28-5.51,4.72,2.17,3.79,19.34-3.09,21.08-9.08,2.29-17.87-12-12-18C92.78,250.63,100.69,254.07,98.52,255.15Z" fill="#d34f4f" stroke="#782d25" stroke-miterlimit="10" stroke-width="1.5"/>
      <path id="Path_1171" data-name="Path 1171" d="M140.31,220.21l-2.09.34a4,4,0,0,0-3.31,4.57h0a4,4,0,0,0,4.57,3.3l2.09-.33a4,4,0,0,0,3.31-4.57h0A4,4,0,0,0,140.31,220.21Z" fill="#fbab40"/>
      <path id="Path_1172" data-name="Path 1172" d="M142.27,237.81a4,4,0,0,1-2.58-.81,5.78,5.78,0,0,1-2.27-3.73c-.15-1-.21-5,1.27-6.27,1.94-1.63,4.51.84,5.35,1.65a6.46,6.46,0,0,1,2.15,4.91,4.49,4.49,0,0,1-3.46,4.2Zm-2.16-9.93a.84.84,0,0,0-.52.2c-.69.58-1,3.57-.77,5h0a4.31,4.31,0,0,0,1.69,2.8,2.56,2.56,0,0,0,2,.51,3.07,3.07,0,0,0,2.3-2.88,5.13,5.13,0,0,0-1.71-3.82C142.14,228.77,141,227.84,140.11,227.88Z" fill="#8b5d1f"/>
      <path id="Path_1173" data-name="Path 1173" d="M138.81,220.39c-1.51-.1,6.38,5,8.83,2.3,3.53-3.81-3.88-19.32-10.91-18.29-9.27,1.35-11.92,17.91-4.26,21.18C135.23,226.76,141.23,220.55,138.81,220.39Z" fill="#ffd679" stroke="#b7892c" stroke-miterlimit="10" stroke-width="1.5"/>
      <path id="Path_1174" data-name="Path 1174" d="M61.45,228.21H59.34a4,4,0,0,0-4,4h0a4,4,0,0,0,4,4h2.11a4,4,0,0,0,4-4h0A4,4,0,0,0,61.45,228.21Z" fill="#fbab40"/>
      <path id="Path_1175" data-name="Path 1175" d="M61.26,245.91h-.11a4,4,0,0,1-2.88-1.22,5.73,5.73,0,0,1-1.67-4h0c0-1,.57-5,2.21-6,2.18-1.32,4.33,1.52,5,2.45a6.46,6.46,0,0,1,1.36,5.18A4.49,4.49,0,0,1,61.26,245.91ZM58,240.68a4.34,4.34,0,0,0,1.24,3,2.6,2.6,0,0,0,1.87.81,3.05,3.05,0,0,0,2.72-2.5,5.14,5.14,0,0,0-1.11-4c-1-1.25-2.31-2.64-3.19-2.1S58,239.25,58,240.68Z" fill="#8b5d1f"/>
      <path id="Path_1176" data-name="Path 1176" d="M59.94,228.15c-1.47-.33,5.55,5.87,8.38,3.63,4.07-3.22-.88-19.69-8-19.75C51,212,45.81,227.91,52.88,232.31,55.43,233.9,62.31,228.69,59.94,228.15Z" fill="#d34f4f" stroke="#782d25" stroke-miterlimit="10" stroke-width="1.5"/>
      <path id="Path_1177" data-name="Path 1177" d="M238.32,193.91l-2,.69a4,4,0,0,0-2.45,5.09h0a4,4,0,0,0,5.09,2.44l2-.7a4,4,0,0,0,2.45-5.08h0a4,4,0,0,0-5.09-2.44Z" fill="#fbab40"/>
      <path id="Path_1178" data-name="Path 1178" d="M242.73,211a4.29,4.29,0,0,1-2-.43,5.79,5.79,0,0,1-2.89-3.27c-.32-.94-1.1-4.92.13-6.4,1.63-1.94,4.6,0,5.57.68a6.48,6.48,0,0,1,3,4.45,4.48,4.48,0,0,1-2.66,4.74,3.791,3.791,0,0,1-1.15.23Zm-3-9.51a.89.89,0,0,0-.7.32c-.57.68-.34,3.68.12,5h0a4.4,4.4,0,0,0,2.17,2.45,2.59,2.59,0,0,0,2,.15,3.09,3.09,0,0,0,1.75-3.24,5.12,5.12,0,0,0-2.36-3.46,6.13,6.13,0,0,0-3-1.25Z" fill="#14253f"/>
      <path id="Path_1179" data-name="Path 1179" d="M236.88,194.35c-1.5.16,7.16,3.73,9.1.69,2.8-4.37-7.25-18.32-14-16.07-8.88,3-8.56,19.75-.44,21.61C234.49,201.25,239.29,194.08,236.88,194.35Z" fill="#d34f4f" stroke="#782d25" stroke-miterlimit="10" stroke-width="1.5"/>
      <path id="Path_1180" data-name="Path 1180" d="M323.05,159.37l-1.83,1a4,4,0,0,0-1.48,5.44h0a4,4,0,0,0,5.44,1.48l1.83-1.05a4,4,0,0,0,1.48-5.44h0A4,4,0,0,0,323.05,159.37Z" fill="#fbab40"/>
      <path id="Path_1181" data-name="Path 1181" d="M329.79,175.45a4.51,4.51,0,0,1-1.39-.16,5.77,5.77,0,0,1-3.43-2.68h0c-.49-.87-2-4.65-1-6.32,1.25-2.21,4.52-.81,5.6-.35a6.53,6.53,0,0,1,3.74,3.84,4.48,4.48,0,0,1-1.76,5.15A3.72,3.72,0,0,1,329.79,175.45Zm-3.68-8.95a1.08,1.08,0,0,0-.95.48c-.44.78.33,3.69,1,4.94h0a4.32,4.32,0,0,0,2.58,2,2.56,2.56,0,0,0,2-.21,3.1,3.1,0,0,0,1.14-3.51,5.14,5.14,0,0,0-3-3,7.31,7.31,0,0,0-2.77-.7Z" fill="#14253f"/>
      <path id="Path_1182" data-name="Path 1182" d="M321.71,160.07c-1.45.43,7.72,2.37,9.08-1,1.95-4.81-10.47-16.69-16.67-13.25-8.2,4.54-4.83,21,3.49,21.32C320.62,167.29,324,159.36,321.71,160.07Z" fill="#ffd679" stroke="#b7892c" stroke-miterlimit="10" stroke-width="1.5"/>
      <path id="Path_1183" data-name="Path 1183" d="M461.15,68.12l-1.83,1a4,4,0,0,0-1.48,5.45h0a4,4,0,0,0,5.44,1.48l1.83-1a4,4,0,0,0,1.48-5.45h0a4,4,0,0,0-5.44-1.48Z" fill="#fbab40"/>
      <path id="Path_1184" data-name="Path 1184" d="M467.89,84.2a4.49,4.49,0,0,1-1.39-.15,5.83,5.83,0,0,1-3.43-2.69h0c-.49-.86-2-4.64-1-6.31,1.25-2.22,4.52-.81,5.6-.35a6.45,6.45,0,0,1,3.74,3.84,4.48,4.48,0,0,1-1.75,5.14,3.79,3.79,0,0,1-1.77.52Zm-3.68-9a1.09,1.09,0,0,0-.95.49c-.44.78.34,3.69,1,4.93h0a4.36,4.36,0,0,0,2.58,2,2.61,2.61,0,0,0,2-.22A3.07,3.07,0,0,0,470,79a5.15,5.15,0,0,0-2.95-3,7.53,7.53,0,0,0-2.84-.75Z" fill="#14253f"/>
      <path id="Path_1185" data-name="Path 1185" d="M459.81,68.82c-1.45.44,7.72,2.37,9.08-1,1.95-4.81-10.47-16.7-16.67-13.26-8.2,4.54-4.83,21,3.49,21.33C458.72,76,462.13,68.12,459.81,68.82Z" fill="#ffd679" stroke="#b7892c" stroke-miterlimit="10" stroke-width="1.5"/>
      <path id="Path_1186" data-name="Path 1186" d="M400.48,113.79l-1.83,1a4,4,0,0,0-1.48,5.44h0a4,4,0,0,0,5.44,1.48l1.84-1.05a4,4,0,0,0,1.48-5.44h0A4,4,0,0,0,400.48,113.79Z" fill="#fbab40"/>
      <path id="Path_1187" data-name="Path 1187" d="M407.22,129.87a4.44,4.44,0,0,1-1.38-.16A5.79,5.79,0,0,1,402.4,127h0c-.48-.87-2-4.65-1-6.32,1.25-2.21,4.52-.81,5.59-.35a6.47,6.47,0,0,1,3.74,3.84,4.48,4.48,0,0,1-1.75,5.15A3.88,3.88,0,0,1,407.22,129.87Zm-3.68-9a1.06,1.06,0,0,0-1,.48c-.44.78.34,3.69,1,4.94h0a4.33,4.33,0,0,0,2.57,2,2.62,2.62,0,0,0,2-.21,3.1,3.1,0,0,0,1.13-3.51,5.12,5.12,0,0,0-2.95-3,7.35,7.35,0,0,0-2.75-.65Z" fill="#14253f"/>
      <path id="Path_1188" data-name="Path 1188" d="M399.14,114.49c-1.44.43,7.72,2.37,9.08-1,2-4.81-10.46-16.69-16.67-13.25-8.19,4.54-4.82,21,3.5,21.32C398.05,121.71,401.47,113.78,399.14,114.49Z" fill="#d34f4f" stroke="#782d25" stroke-miterlimit="10" stroke-width="1.5"/>
      <path id="Path_1189" data-name="Path 1189" d="M198.61,235.4l-1.94.82a4,4,0,0,1-5.23-2.12h0a4,4,0,0,1,2.13-5.23l1.94-.82a4,4,0,0,1,5.23,2.12h0A4,4,0,0,1,198.61,235.4Z" fill="#fbab40"/>
      <path id="Path_1190" data-name="Path 1190" d="M194.12,230.52a2.639,2.639,0,0,1-.48,0c-1.89-.26-4-3.74-4.39-4.65h0a5.85,5.85,0,0,1-.05-4.37,3.94,3.94,0,0,1,2.18-2.24,4.47,4.47,0,0,1,5.15,1.72,6.43,6.43,0,0,1,.78,5.3C197.05,227.32,196.27,230.4,194.12,230.52Zm-3.58-5.23c.57,1.31,2.42,3.69,3.3,3.81s1.72-1.65,2.11-3.18a5.18,5.18,0,0,0-.57-4.15,3.1,3.1,0,0,0-3.48-1.23,2.65,2.65,0,0,0-1.4,1.48,4.35,4.35,0,0,0,.04,3.27Z" fill="#14253f"/>
      <path id="Path_1191" data-name="Path 1191" d="M197.25,236c-1.23.89,2.79-7.57,6.28-6.63,5,1.36,6.93,18.45.43,21.3-8.58,3.76-19.6-8.88-14.84-15.71C190.84,232.53,199.22,234.62,197.25,236Z" fill="#58c7ed" stroke="#267287" stroke-miterlimit="10" stroke-width="1.5"/>
      <path id="Path_1192" data-name="Path 1192" d="M28.84,257.56l-2.11.05a4,4,0,0,1-4.09-3.89h0a4,4,0,0,1,3.89-4.08l2.11-.06a4,4,0,0,1,4.09,3.89h0A4,4,0,0,1,28.84,257.56Z" fill="#fbab40"/>
      <path id="Path_1193" data-name="Path 1193" d="M27.24,251.48a2.23,2.23,0,0,1-1.24-.3c-1.67-.94-2.35-4.94-2.39-5.93a5.79,5.79,0,0,1,1.55-4.09A3.92,3.92,0,0,1,28,239.87a4.45,4.45,0,0,1,4.16,3.48,6.45,6.45,0,0,1-1.2,5.22C30.42,249.34,29,251.39,27.24,251.48Zm.67-10.2a2.61,2.61,0,0,0-1.74.86A4.32,4.32,0,0,0,25,245.2h0c.05,1.43.9,4.31,1.67,4.75s2.21-.91,3.13-2.2a5.16,5.16,0,0,0,1-4.06,3.09,3.09,0,0,0-2.8-2.42Z" fill="#8b5d1f"/>
      <path id="Path_1194" data-name="Path 1194" d="M27.33,257.66c-1.46.37,5.37-6,8.27-3.88,4.17,3.09-.28,19.7-7.37,20-9.36.37-15-15.43-8.08-20C22.65,252.05,29.68,257.05,27.33,257.66Z" fill="#58c7ed" stroke="#267287" stroke-miterlimit="10" stroke-width="1.5"/>
      <path id="Path_1195" data-name="Path 1195" d="M292.55,202.49l-1.79,1.11a4,4,0,0,1-5.5-1.27h0a4,4,0,0,1,1.28-5.5l1.79-1.11a4,4,0,0,1,5.5,1.27h0A4,4,0,0,1,292.55,202.49Z" fill="#fbab40"/>
      <path id="Path_1196" data-name="Path 1196" d="M287,198.43h-.09c-1.92,0-4.54-3.07-5.07-3.91h0a5.76,5.76,0,0,1-.73-4.3,4,4,0,0,1,1.79-2.56,4.49,4.49,0,0,1,5.37.9,6.43,6.43,0,0,1,1.6,5.11C289.73,194.82,289.42,198.29,287,198.43Zm-4-4.66c.77,1.21,3,3.27,3.85,3.25s1.45-1.9,1.59-3.48a5.15,5.15,0,0,0-1.21-4,3.1,3.1,0,0,0-3.63-.66,2.55,2.55,0,0,0-1.15,1.68,4.31,4.31,0,0,0,.55,3.22Z" fill="#14253f"/>
      <path id="Path_1197" data-name="Path 1197" d="M291.3,203.34c-1.07,1.06,1.57-7.92,5.16-7.54,5.16.56,9.74,17.13,3.77,21-7.88,5.06-20.76-5.7-17.12-13.19C284.42,200.88,293,201.63,291.3,203.34Z" fill="#d34f4f" stroke="#782d25" stroke-miterlimit="10" stroke-width="1.5"/>
      <path id="Path_1198" data-name="Path 1198" d="M377.13,161.44l-1.77,1.16a4,4,0,0,1-5.52-1.15h0a4,4,0,0,1,1.16-5.52l1.76-1.16a4,4,0,0,1,5.52,1.15h0a4,4,0,0,1-1.15,5.52Z" fill="#fbab40"/>
      <path id="Path_1199" data-name="Path 1199" d="M371.39,157.51h0c-1.92.08-4.6-3-5.15-3.79h0a5.79,5.79,0,0,1-.84-4.28,4,4,0,0,1,1.74-2.6,4.5,4.5,0,0,1,5.39.77,6.51,6.51,0,0,1,1.72,5.08C374.14,153.85,373.9,157.38,371.39,157.51Zm-2.34-9.84a2.44,2.44,0,0,0-1.19.36,2.6,2.6,0,0,0-1.11,1.7,4.3,4.3,0,0,0,.63,3.21h0c.79,1.19,3,3.2,3.92,3.17h0c1.05-.06,1.4-1.94,1.5-3.52a5.13,5.13,0,0,0-1.3-4,3.34,3.34,0,0,0-2.45-.92Z" fill="#14253f"/>
      <path id="Path_1200" data-name="Path 1200" d="M375.9,162.32c-1,1.09,1.39-7.95,5-7.65,5.17.44,10.13,16.91,4.24,20.88-7.76,5.23-20.88-5.23-17.41-12.8C369,160,377.58,160.57,375.9,162.32Z" fill="#58c7ed" stroke="#267287" stroke-miterlimit="10" stroke-width="1.5"/>
      <path id="Path_1201" data-name="Path 1201" d="M511.61,58.42,510.24,60a4,4,0,0,1-5.62.47h0a4,4,0,0,1-.47-5.62l1.37-1.61a4,4,0,0,1,5.62-.47h0a4,4,0,0,1,.47,5.65Z" fill="#fbab40"/>
      <path id="Path_1202" data-name="Path 1202" d="M504.37,56.4c-1.89.1-4.75-1.7-5.43-2.27h0a5.78,5.78,0,0,1-2-3.87,4,4,0,0,1,.92-3,4.48,4.48,0,0,1,5.38-.79,6.48,6.48,0,0,1,3.1,4.37c.25,1.15,1,4.62-1.36,5.45a2.21,2.21,0,0,1-.61.11Zm-4.53-3.35c1.1.91,3.81,2.2,4.66,1.91s.79-2.25.44-3.8a5.15,5.15,0,0,0-2.38-3.44,3.12,3.12,0,0,0-3.66.48,2.6,2.6,0,0,0-.58,1.95,4.35,4.35,0,0,0,1.52,2.9Z" fill="#14253f"/>
      <path id="Path_1203" data-name="Path 1203" d="M510.68,59.61c-.69,1.34-.93-8,2.6-8.75,5.09-1.06,14.53,13.31,10,18.8-5.95,7.23-21.5.94-20.34-7.31C503.38,59.38,511.79,57.45,510.68,59.61Z" fill="#58c7ed" stroke="#267287" stroke-miterlimit="10" stroke-width="1.5"/>
      <path id="Path_1204" data-name="Path 1204" d="M445.49,118.25,444,119.76a4,4,0,0,1-5.64,0h0a4,4,0,0,1-.05-5.64l1.48-1.51a4,4,0,0,1,5.65,0h0A4,4,0,0,1,445.49,118.25Z" fill="#fbab40"/>
      <path id="Path_1205" data-name="Path 1205" d="M438.62,115.69c-1.9.11-4.78-2-5.44-2.67a5.82,5.82,0,0,1-1.73-4,4,4,0,0,1,1.15-2.91,4.48,4.48,0,0,1,5.43-.38,6.44,6.44,0,0,1,2.75,4.59c.17,1.16.69,4.68-1.76,5.32a1.34,1.34,0,0,1-.4.05Zm-3.3-9.29a2.65,2.65,0,0,0-1.73.71,2.59,2.59,0,0,0-.73,1.9,4.36,4.36,0,0,0,1.3,3h0c1,1,3.65,2.48,4.5,2.26,1-.27,1-2.19.73-3.75a5.13,5.13,0,0,0-2.12-3.61,3.35,3.35,0,0,0-1.95-.51Z" fill="#14253f"/>
      <path id="Path_1206" data-name="Path 1206" d="M444.47,119.37c-.79,1.29-.32-8.07,3.26-8.53,5.15-.67,13.48,14.37,8.57,19.5-6.48,6.76-21.51-.68-19.73-8.82C437.21,118.59,445.75,117.3,444.47,119.37Z" fill="#d34f4f" stroke="#782d25" stroke-miterlimit="10" stroke-width="1.5"/>
      <path id="Path_1207" data-name="Path 1207" d="M181.56,239.27c0,.58-3.45,1.36-5.61,1.55s-4-.49-4-1.28,1.68-1.24,3.91-1.35S181.55,238.8,181.56,239.27Z" fill="#58c7ed" fill-rule="evenodd"/>
      <path id="Path_1208" data-name="Path 1208" d="M187.84,248.67c.46.35-1,3.42-2.14,5.15s-2.75,2.66-3.38,2.17,0-2,1.28-3.75S187.46,248.38,187.84,248.67Z" fill="#58c7ed" fill-rule="evenodd"/>
      <path id="Path_1209" data-name="Path 1209" d="M205.55,254.49c.3,0,.65.82,1.17,1.78a23.1,23.1,0,0,0,1.73,2.83c1.07,1.59,1.83,3,1.33,3.7s-2.27-.24-3.58-2.34a7.93,7.93,0,0,1-1.11-3.78C205,255.42,205.33,254.5,205.55,254.49Z" fill="#58c7ed" fill-rule="evenodd"/>
      <path id="Path_1210" data-name="Path 1210" d="M212.65,246.82c0-.3,1.16-.56,2.62-.91s3.21-.79,4.54-1.15c2.69-.7,5-.91,5.31-.17s-1.73,2-4.74,2.73a16.06,16.06,0,0,1-5,.26C213.8,247.43,212.64,247,212.65,246.82Z" fill="#58c7ed" fill-rule="evenodd"/>
      <path id="Path_1211" data-name="Path 1211" d="M213.34,231.24c-.25-.53,2.72-2.68,4.7-3.74s4-1.21,4.3-.48-1.11,1.82-3.18,2.85S213.53,231.67,213.34,231.24Z" fill="#58c7ed" fill-rule="evenodd"/>
      <path id="Path_1212" data-name="Path 1212" d="M363,169c.17.56-2.4,2.05-4.09,2.69s-3.31.38-3.54-.38,1-1.55,2.78-2.13S362.9,168.53,363,169Z" fill="#58c7ed" fill-rule="evenodd"/>
      <path id="Path_1213" data-name="Path 1213" d="M367.92,178.08c.61,0,.75,3.62.17,5.77s-1.95,3.55-2.66,3.21-.41-2,.14-4S367.48,178.05,367.92,178.08Z" fill="#58c7ed" fill-rule="evenodd"/>
      <path id="Path_1214" data-name="Path 1214" d="M381.81,182.2c.48-.33,2.22,1,3.06,1.92s.84,2.24.19,2.69-1.55-.15-2.35-1.18S381.43,182.47,381.81,182.2Z" fill="#58c7ed" fill-rule="evenodd"/>
      <path id="Path_1215" data-name="Path 1215" d="M394.6,171.21c.1-.58,3.07-.75,4.86-.56s3.13,1.16,3,1.94-1.62.92-3.44.64S394.51,171.67,394.6,171.21Z" fill="#58c7ed" fill-rule="evenodd"/>
      <path id="Path_1216" data-name="Path 1216" d="M393.63,158.7c-.27-.52,2.27-2.63,4-3.68s3.53-1.19,3.9-.49-.86,1.8-2.67,2.81S393.85,159.12,393.63,158.7Z" fill="#58c7ed" fill-rule="evenodd"/>
      <path id="Path_1217" data-name="Path 1217" d="M384.21,122.09c.21.54-3.08,2.59-5.23,3.58s-4.25,1-4.54.3,1.31-1.79,3.56-2.74S384,121.65,384.21,122.09Z" fill="#d34f4f" fill-rule="evenodd"/>
      <path id="Path_1218" data-name="Path 1218" d="M378.8,110.87c0,.28-1.07.73-2.6.93a15.15,15.15,0,0,1-4.9-.15c-3-.58-4.81-2.42-4.42-3.09s2.4,0,5,.54c1.27.3,2.93.73,4.34,1S378.78,110.63,378.8,110.87Z" fill="#d34f4f" fill-rule="evenodd"/>
      <path id="Path_1219" data-name="Path 1219" d="M389.12,94.73c-.14.23-1.08.07-2.13-.6a8.119,8.119,0,0,1-2.7-2.86c-1.25-2.21-.55-4.34.23-4.31s1.21,1.47,2.12,3.14c.41.83,1,1.93,1.52,2.82S389.26,94.52,389.12,94.73Z" fill="#d34f4f" fill-rule="evenodd"/>
      <path id="Path_1220" data-name="Path 1220" d="M403.54,96.66c-.54-.21-.28-2.81.15-4.32s1.58-2.45,2.32-2.17.66,1.59.14,3.11S404,96.83,403.54,96.66Z" fill="#d34f4f" fill-rule="evenodd"/>
      <path id="Path_1221" data-name="Path 1221" d="M411.77,103.72c-.42-.47,2.59-3.66,5-5s4.74-1.54,5-.8S420.27,99.7,418,101,412.07,104,411.77,103.72Z" fill="#d34f4f" fill-rule="evenodd"/>
      <path id="Path_1222" data-name="Path 1222" d="M253.09,186.57c-.21-.54,2-2.14,3.55-2.85s3-.53,3.32.22-.81,1.58-2.38,2.23S253.25,187,253.09,186.57Z" fill="#d34f4f" fill-rule="evenodd"/>
      <path id="Path_1223" data-name="Path 1223" d="M246.45,175.68c-.52-.25.44-3.84,1.31-6s2.33-3.49,3-3.14.29,2.14-.67,4.27S246.88,175.89,246.45,175.68Z" fill="#d34f4f" fill-rule="evenodd"/>
      <path id="Path_1224" data-name="Path 1224" d="M231.31,172.37c-.16.23-1,0-2-.57a8.42,8.42,0,0,1-2.55-2.49c-1.25-1.88-.88-3.84-.11-4s1.43,1.14,2.38,2.65l1.47,2.62C231,171.48,231.46,172.18,231.31,172.37Z" fill="#d34f4f" fill-rule="evenodd"/>
      <path id="Path_1225" data-name="Path 1225" d="M221.7,180.26c-.16.56-3.89.22-6.13-.28s-3.87-1.7-3.65-2.47,2.07-.65,4.35-.06S221.83,179.8,221.7,180.26Z" fill="#d34f4f" fill-rule="evenodd"/>
      <path id="Path_1226" data-name="Path 1226" d="M219.54,196.55c.11.58-2.68,1.82-4.47,2.29s-3.43.06-3.58-.72,1.22-1.44,3.07-1.85S219.45,196.09,219.54,196.55Z" fill="#d34f4f" fill-rule="evenodd"/>
      <path id="Path_1227" data-name="Path 1227" d="M276.75,208.31c.13.57-3.68,2.16-6.12,2.85s-4.64.47-4.82-.3,1.69-1.61,4.22-2.25S276.65,207.86,276.75,208.31Z" fill="#d34f4f" fill-rule="evenodd"/>
      <path id="Path_1228" data-name="Path 1228" d="M283.87,218.78c.53.24-.18,3.53-.89,5.45s-2.06,3.18-2.79,2.85-.42-2,.38-3.91S283.44,218.59,283.87,218.78Z" fill="#d34f4f" fill-rule="evenodd"/>
      <path id="Path_1229" data-name="Path 1229" d="M301.61,224.63c.43-.48,2.95,1.37,3.88,3.13s.65,3.47-.12,3.62-1.44-1-2.23-2.45S301.34,225,301.61,224.63Z" fill="#d34f4f" fill-rule="evenodd"/>
      <path id="Path_1230" data-name="Path 1230" d="M310.6,212.29c.38-.38,3.45,1.22,5.37,2s3.27,2,3,2.77-2.11.62-4.25-.43S310.22,212.65,310.6,212.29Z" fill="#d34f4f" fill-rule="evenodd"/>
      <path id="Path_1231" data-name="Path 1231" d="M308.85,198.74c-.2-.55,2.58-2.31,4.41-3.12s3.64-.71,3.91,0-1.08,1.66-3,2.42S309,199.18,308.85,198.74Z" fill="#d34f4f" fill-rule="evenodd"/>
      <path id="Path_1232" data-name="Path 1232" d="M431.06,127.59c.16.51-2.71,2.53-4.28,3.9s-3.32,2-3.9,1.47.43-2.18,2.38-3.6S430.92,127.09,431.06,127.59Z" fill="#d34f4f" fill-rule="evenodd"/>
      <path id="Path_1233" data-name="Path 1233" d="M444.33,134.39c.56.14.46,3.31.11,5.2s-1.44,3.26-2.21,3.06-.77-1.77-.34-3.7S443.87,134.27,444.33,134.39Z" fill="#d34f4f" fill-rule="evenodd"/>
      <path id="Path_1234" data-name="Path 1234" d="M462.9,136.38c.31,0,.63.83,1.19,1.77a16.52,16.52,0,0,0,1.9,2.68c1.21,1.46,2.21,2.74,1.85,3.48s-2.37.15-3.94-1.9a7.3,7.3,0,0,1-1.43-3.8C462.36,137.32,462.68,136.38,462.9,136.38Z" fill="#d34f4f" fill-rule="evenodd"/>
      <path id="Path_1235" data-name="Path 1235" d="M464.61,124.55c-.09-.58,2.46-1.68,4.09-2.07s3.12.1,3.24.89-1.13,1.38-2.82,1.7S464.68,125,464.61,124.55Z" fill="#d34f4f" fill-rule="evenodd"/>
      <path id="Path_1236" data-name="Path 1236" d="M459.35,108.19c-.36-.46,1.39-2.73,2.67-3.91s2.84-1.51,3.33-.89-.33,1.79-1.69,2.94S459.64,108.56,459.35,108.19Z" fill="#d34f4f" fill-rule="evenodd"/>
      <path id="Path_1237" data-name="Path 1237" d="M116.52,247.17c0-.54,2.84-1.51,4.42-2.26s3.2-.77,3.61-.07-.8,1.85-2.78,2.56S116.49,247.69,116.52,247.17Z" fill="#d34f4f" fill-rule="evenodd"/>
      <path id="Path_1238" data-name="Path 1238" d="M119.61,256.62c0-.59,4.48-1.53,7.29-1.82s5.21.3,5.25,1.1-2.18,1.31-5.08,1.52S119.64,257.09,119.61,256.62Z" fill="#d34f4f" fill-rule="evenodd"/>
      <path id="Path_1239" data-name="Path 1239" d="M119.44,268.51c.23-.53,3.8.26,5.9,1s3.52,2.17,3.2,2.9-2.1.38-4.23-.48S119.25,268.94,119.44,268.51Z" fill="#d34f4f" fill-rule="evenodd"/>
      <path id="Path_1240" data-name="Path 1240" d="M108,276.76c.56-.16,2,2.41,2.69,4.09s.38,3.32-.38,3.54-1.55-1-2.13-2.78S107.59,276.89,108,276.76Z" fill="#d34f4f" fill-rule="evenodd"/>
      <path id="Path_1241" data-name="Path 1241" d="M94.15,278.94c.47.34-.59,3-1.49,4.45s-2.31,2.2-3,1.73-.17-1.8.82-3.26S93.77,278.66,94.15,278.94Z" fill="#d34f4f" fill-rule="evenodd"/>
      <path id="Path_1242" data-name="Path 1242" d="M85.74,266.75c.22.59-3,2.21-5.18,2.51s-4-.45-4-1.23,1.65-1.1,3.68-1.38S85.58,266.35,85.74,266.75Z" fill="#d34f4f" fill-rule="evenodd"/>
      <path id="Path_1243" data-name="Path 1243" d="M76.41,229.82c-.1-.57,2-1.66,3.41-2s2.66.11,2.8.89-.9,1.37-2.33,1.69S76.49,230.28,76.41,229.82Z" fill="#d34f4f" fill-rule="evenodd"/>
      <path id="Path_1244" data-name="Path 1244" d="M72.54,215.33c-.47-.34.85-3.38,1.92-5.1s2.62-2.65,3.26-2.19,0,2-1.12,3.71S72.92,215.6,72.54,215.33Z" fill="#d34f4f" fill-rule="evenodd"/>
      <path id="Path_1245" data-name="Path 1245" d="M64.86,205.09c-.58.07-1.51-1.85-1.8-3.08s.31-2.34,1.1-2.43,1.3.84,1.51,2.11S65.32,205,64.86,205.09Z" fill="#d34f4f" fill-rule="evenodd"/>
      <path id="Path_1246" data-name="Path 1246" d="M50.62,210.63c-.43.41-3-1.26-4.32-2.5s-1.88-2.83-1.3-3.38,1.86.24,3.2,1.57S51,210.31,50.62,210.63Z" fill="#d34f4f" fill-rule="evenodd"/>
      <path id="Path_1247" data-name="Path 1247" d="M44.67,223.49c-.35.43-2.75-.25-4.16-.55s-2.43-1.24-2.32-2,1.53-1,3.2-.43S45,223.09,44.67,223.49Z" fill="#d34f4f" fill-rule="evenodd"/>
      <path id="Path_1248" data-name="Path 1248" d="M49,236.59c.05.58-4.43,1.65-7.24,2s-5.21-.14-5.28-.94,2.14-1.37,5-1.67S49,236.12,49,236.59Z" fill="#d34f4f" fill-rule="evenodd"/>
      <path id="Path_1249" data-name="Path 1249" d="M43.35,269.15c.23-.54,3.25,0,5,.61s2.9,1.88,2.58,2.61-1.82.51-3.6-.19S43.16,269.58,43.35,269.15Z" fill="#58c7ed" fill-rule="evenodd"/>
      <path id="Path_1250" data-name="Path 1250" d="M34.7,278.62c.5-.31,2.9,2.3,4.14,4.07s1.55,3.68.87,4.09-1.9-.84-3.1-2.71S34.3,278.86,34.7,278.62Z" fill="#58c7ed" fill-rule="evenodd"/>
      <path id="Path_1251" data-name="Path 1251" d="M20.27,276.16c.49.31-.75,3.61-1.77,5.5s-2.57,3-3.24,2.6-.11-2.07,1-4S19.87,275.91,20.27,276.16Z" fill="#58c7ed" fill-rule="evenodd"/>
      <path id="Path_1252" data-name="Path 1252" d="M12.65,261c-.07.29-1.26.31-2.75.37s-3.3.14-4.66.23c-2.77.15-5.06-.09-5.23-.88S2.1,259.06,5.18,259a15.8,15.8,0,0,1,5,.73C11.64,260.17,12.7,260.78,12.65,261Z" fill="#71af97" fill-rule="evenodd"/>
      <path id="Path_1253" data-name="Path 1253" d="M44.36,253.64c.1-.51,4.89-.66,7.76-1.07s5.37-.14,5.55.65-2.15,1.72-5.36,2a18.19,18.19,0,0,1-5.21-.43C45.49,254.39,44.32,253.87,44.36,253.64Z" fill="#58c7ed" fill-rule="evenodd"/>
      <path id="Path_1254" data-name="Path 1254" d="M501.76,68.31c.4.42-1,2.77-2.11,4s-2.57,1.7-3.12,1.13.11-1.77,1.29-3S501.43,68,501.76,68.31Z" fill="#58c7ed" fill-rule="evenodd"/>
      <path id="Path_1255" data-name="Path 1255" d="M511.46,76.41c.57.14.47,3.43.12,5.41s-1.44,3.41-2.21,3.22-.78-1.83-.34-3.84S511,76.3,511.46,76.41Z" fill="#58c7ed" fill-rule="evenodd"/>
      <path id="Path_1256" data-name="Path 1256" d="M527.1,76.73c.49-.33,2.79,1.89,4,3.44s1.48,3.28.82,3.72-1.85-.63-3-2.26S526.71,77,527.1,76.73Z" fill="#58c7ed" fill-rule="evenodd"/>
      <path id="Path_1257" data-name="Path 1257" d="M528.84,67.53c0-.58,3.64-1.22,5.9-1.31s4.11.65,4.09,1.45-1.8,1.16-4.12,1.17S528.83,68,528.84,67.53Z" fill="#58c7ed" fill-rule="evenodd"/>
      <path id="Path_1258" data-name="Path 1258" d="M526.61,53.44c-.43-.4,1.6-3.57,3.07-5.33s3.3-2.66,3.88-2.12-.38,2.15-1.95,3.9S527,53.76,526.61,53.44Z" fill="#58c7ed" fill-rule="evenodd"/>
      <path id="Path_1259" data-name="Path 1259" d="M521.52,46c-.28,0-.61-.84-.51-2a6.64,6.64,0,0,1,1.34-3.44,4.13,4.13,0,0,1,2.43-1.58c.77-.13,1.3.09,1.44.45.28.81-.85,1.54-1.88,2.85a19.628,19.628,0,0,0-1.72,2.22C522.09,45.23,521.77,46,521.52,46Z" fill="#58c7ed" fill-rule="evenodd"/>
      <path id="Path_1260" data-name="Path 1260" d="M474.5,58.94c-.43-.39.84-2.82,1.84-4.13s2.46-1.84,3.05-1.31,0,1.77-1.09,3.06S474.85,59.26,474.5,58.94Z" fill="#caa85a" fill-rule="evenodd"/>
      <path id="Path_1261" data-name="Path 1261" d="M466.16,51.52c-.27,0-.78-.93-1-2.34a10.09,10.09,0,0,1,.51-4.51c1-2.74,3.24-3.84,3.73-3.25s-.49,2.09-1.3,4.24a29.885,29.885,0,0,0-1.26,3.61C466.55,50.47,466.41,51.48,466.16,51.52Z" fill="#caa85a" fill-rule="evenodd"/>
      <path id="Path_1262" data-name="Path 1262" d="M438.15,38.6c.43-.39,3.51,1.95,5.21,3.61s2.48,3.58,1.9,4.12-2.15-.58-3.83-2.34S437.81,38.92,438.15,38.6Z" fill="#caa85a" fill-rule="evenodd"/>
      <path id="Path_1263" data-name="Path 1263" d="M431.41,57.44c.16-.57,4.18-.15,6.6.4s4.19,1.8,4,2.56-2.21.61-4.67,0S431.28,57.89,431.41,57.44Z" fill="#caa85a" fill-rule="evenodd"/>
      <path id="Path_1264" data-name="Path 1264" d="M433.26,77.78c-.15-.56,1.66-1.75,2.86-2.2s2.4,0,2.6.75-.68,1.41-1.93,1.79S433.38,78.24,433.26,77.78Z" fill="#caa85a" fill-rule="evenodd"/>
      <path id="Path_1265" data-name="Path 1265" d="M337.61,148.74c-.31-.49,2-2.83,3.65-4s3.41-1.51,3.84-.84-.7,1.86-2.4,3S337.87,149.13,337.61,148.74Z" fill="#caa85a" fill-rule="evenodd"/>
      <path id="Path_1266" data-name="Path 1266" d="M327.22,140.37c-.62-.14,0-4.45,1.23-6.89s3.1-3.85,3.72-3.36-.26,2.28-1.38,4.56S327.64,140.45,327.22,140.37Z" fill="#caa85a" fill-rule="evenodd"/>
      <path id="Path_1267" data-name="Path 1267" d="M310.79,128.72c.53-.25,2.82,3,4,5.12s1.37,4.27.65,4.61-1.9-1.24-3-3.47S310.36,128.92,310.79,128.72Z" fill="#caa85a" fill-rule="evenodd"/>
      <path id="Path_1268" data-name="Path 1268" d="M297.82,141.37c.33-.49,3.49.83,5.28,1.89s2.81,2.63,2.36,3.29-2,0-3.83-1.11S297.56,141.75,297.82,141.37Z" fill="#caa85a" fill-rule="evenodd"/>
      <path id="Path_1269" data-name="Path 1269" d="M294.49,159.14c-.1-.57,3.51-1.88,5.8-2.39s4.32-.13,4.45.65-1.64,1.48-4,1.93S294.57,159.61,294.49,159.14Z" fill="#caa85a" fill-rule="evenodd"/>
      <path id="Path_1270" data-name="Path 1270" d="M298.19,172.29c-.37-.5,2.31-3,4.41-3.88s4.08-.68,4.23.09-1.32,1.51-3.24,2.34S298.46,172.63,298.19,172.29Z" fill="#caa85a" fill-rule="evenodd"/>
      <path id="Path_1271" data-name="Path 1271" d="M154.12,217.45c0-.54,3.93-1.55,6.21-2.37s4.43-.91,4.76-.17-1.44,2-4.07,2.7S154.1,218,154.12,217.45Z" fill="#caa85a" fill-rule="evenodd"/>
      <path id="Path_1272" data-name="Path 1272" d="M152.6,208c-.19-.51,3.46-3,5.52-4.69s4.2-2.61,4.76-2-.84,2.44-3.25,4.17S152.77,208.52,152.6,208Z" fill="#caa85a" fill-rule="evenodd"/>
      <path id="Path_1273" data-name="Path 1273" d="M145.48,188.18c.58,0,1,3.07,1,4.92s-.85,3.33-1.65,3.26-1.06-1.56-1-3.45S145,188.15,145.48,188.18Z" fill="#caa85a" fill-rule="evenodd"/>
      <path id="Path_1274" data-name="Path 1274" d="M128.2,188.46c.56-.17,2.14,2.79,2.84,4.71s.49,3.74-.27,4-1.6-1.22-2.24-3.22S127.75,188.59,128.2,188.46Z" fill="#caa85a" fill-rule="evenodd"/>
      <path id="Path_1275" data-name="Path 1275" d="M113.36,203.3c.37-.46,3.9,1.52,5.9,3s3.14,3.31,2.64,3.93-2.27-.32-4.28-1.88S113.06,203.66,113.36,203.3Z" fill="#caa85a" fill-rule="evenodd"/>
      <path id="Path_1276" data-name="Path 1276" d="M112.9,221.1c0-.58,4.07-1.5,6.64-1.77s4.74.32,4.79,1.11-2,1.3-4.62,1.51S112.92,221.57,112.9,221.1Z" fill="#caa85a" fill-rule="evenodd"/>
    </g>
  </g>
</svg>
