<svg xmlns="http://www.w3.org/2000/svg" xmlns:xlink="http://www.w3.org/1999/xlink" width="1712.229" height="758.303" viewBox="0 0 1712.229 758.303">
  <defs>
    <linearGradient id="linear-gradient" x1="0.933" y1="-0.051" x2="-0.092" y2="1.157" gradientUnits="objectBoundingBox">
      <stop offset="0" stop-color="#00cce4"/>
      <stop offset="0.48" stop-color="#00a4e4"/>
      <stop offset="0.56" stop-color="#01a0e0"/>
      <stop offset="0.65" stop-color="#0396d3"/>
      <stop offset="0.74" stop-color="#0783be"/>
      <stop offset="0.83" stop-color="#0c6aa1"/>
      <stop offset="0.92" stop-color="#124a7c"/>
      <stop offset="1" stop-color="#192956"/>
    </linearGradient>
    <linearGradient id="linear-gradient-2" x1="-70.493" y1="34.595" x2="-69.473" y2="34.595" gradientUnits="objectBoundingBox">
      <stop offset="0.01" stop-color="#6d8cff"/>
      <stop offset="0.99" stop-color="#9552f7"/>
    </linearGradient>
    <linearGradient id="linear-gradient-3" y1="0.5" x2="1" y2="0.5" gradientUnits="objectBoundingBox">
      <stop offset="0" stop-color="#dc1d28"/>
      <stop offset="1" stop-color="#ba2529"/>
    </linearGradient>
    <linearGradient id="linear-gradient-4" x1="-20.033" y1="12.822" x2="-20.033" y2="11.859" gradientUnits="objectBoundingBox">
      <stop offset="0" stop-color="#d80e27"/>
      <stop offset="0.99" stop-color="#f12e44"/>
    </linearGradient>
    <linearGradient id="linear-gradient-5" x1="0" y1="0.5" x2="1" y2="0.5" xlink:href="#linear-gradient-3"/>
    <linearGradient id="linear-gradient-6" x1="23.913" y1="0.696" x2="23.913" y2="-0.268" xlink:href="#linear-gradient-4"/>
    <radialGradient id="radial-gradient" cx="0.865" cy="0.143" r="1.809" gradientTransform="translate(-0.046) scale(1.092 1)" gradientUnits="objectBoundingBox">
      <stop offset="0.01" stop-color="#ffcf25"/>
      <stop offset="0.89" stop-color="#ff6b00"/>
    </radialGradient>
    <linearGradient id="linear-gradient-7" x1="-27.84" y1="15.107" x2="-26.834" y2="15.107" gradientUnits="objectBoundingBox">
      <stop offset="0" stop-color="#ff9827"/>
      <stop offset="1" stop-color="#ffb309"/>
    </linearGradient>
    <linearGradient id="linear-gradient-8" x1="0.669" y1="0.05" x2="0.048" y2="1.542" xlink:href="#linear-gradient"/>
    <linearGradient id="linear-gradient-9" x1="1.069" y1="-0.91" x2="0.284" y2="1.518" xlink:href="#linear-gradient"/>
    <linearGradient id="linear-gradient-10" x1="-19.9" y1="12.433" x2="-18.895" y2="12.433" xlink:href="#linear-gradient-2"/>
    <linearGradient id="linear-gradient-11" y1="0.5" x2="1" y2="0.5" gradientUnits="objectBoundingBox">
      <stop offset="0" stop-color="#f1f9fd"/>
      <stop offset="1" stop-color="#cde1ec"/>
    </linearGradient>
    <linearGradient id="linear-gradient-12" x1="0" y1="0.5" x2="1.001" y2="0.5" xlink:href="#linear-gradient-11"/>
    <linearGradient id="linear-gradient-13" x1="0.377" y1="-0.372" x2="0.774" y2="2.279" xlink:href="#linear-gradient"/>
    <linearGradient id="linear-gradient-14" x1="-12.769" y1="-16.618" x2="-11.765" y2="-16.618" xlink:href="#linear-gradient-2"/>
    <linearGradient id="linear-gradient-15" x1="1.931" y1="0.287" x2="2.932" y2="0.287" xlink:href="#linear-gradient-3"/>
    <linearGradient id="linear-gradient-16" x1="40.949" y1="-5.67" x2="40.949" y2="-6.612" xlink:href="#linear-gradient-4"/>
    <linearGradient id="linear-gradient-17" x1="1.882" y1="0.272" x2="2.882" y2="0.272" xlink:href="#linear-gradient-3"/>
    <linearGradient id="linear-gradient-18" x1="85.274" y1="12.119" x2="85.274" y2="11.295" xlink:href="#linear-gradient-4"/>
    <radialGradient id="radial-gradient-2" cx="0.45" cy="-0.074" r="2.386" gradientTransform="translate(-0.044) scale(1.089 1)" xlink:href="#radial-gradient"/>
    <linearGradient id="linear-gradient-19" x1="32.116" y1="-8.427" x2="33.119" y2="-8.427" xlink:href="#linear-gradient-7"/>
    <linearGradient id="linear-gradient-20" x1="0.279" y1="-0.09" x2="0.88" y2="1.391" xlink:href="#linear-gradient"/>
    <linearGradient id="linear-gradient-21" x1="39.21" y1="-6.149" x2="40.216" y2="-6.149" xlink:href="#linear-gradient-2"/>
    <linearGradient id="linear-gradient-22" x1="0" y1="0.5" x2="1" y2="0.5" xlink:href="#linear-gradient-11"/>
    <linearGradient id="linear-gradient-23" x1="0" y1="0.5" x2="1.002" y2="0.5" xlink:href="#linear-gradient-11"/>
  </defs>
  <g id="Group_1244" data-name="Group 1244" transform="translate(-44.157 -884.967)">
    <g id="Layer_3" data-name="Layer 3" transform="translate(44.161 1223.695)">
      <path id="Path_1280" data-name="Path 1280" d="M122.6,10.19a168,168,0,0,0-29.67-.62c-18.75,1-38.36,4.84-54.23,15.36-.09.06-.46,0-.34-.09,15.74-10.43,35-14.15,53.53-15.37a166.152,166.152,0,0,1,30.82.57C122.98,10.04,122.77,10.2,122.6,10.19Z" fill="none" stroke="#64acbf" stroke-linecap="round" stroke-linejoin="round" stroke-width="2.61"/>
      <path id="Path_1281" data-name="Path 1281" d="M62.19,14.32C45.74.07,21-1.89,1.56,6.43c-.16.06-.39,0-.14-.12,19.64-8.4,44.51-6.52,61.13,7.87.07.07-.27.21-.36.14Z" fill="none" stroke="#64acbf" stroke-linecap="round" stroke-linejoin="round" stroke-width="2.61"/>
    </g>
    <g id="Gift_Box" data-name="Gift Box" transform="translate(206 1463.74)">
      <g id="Layer_3-2" data-name="Layer 3">
        <path id="Path_2775" data-name="Path 2775" d="M265.71,166.77c0,7-47.29,12.76-105.64,12.76S54.43,173.82,54.43,166.77,101.73,154,160.07,154,265.71,159.72,265.71,166.77Z" fill="#93c5eb" opacity="0.4"/>
        <ellipse id="Ellipse_273" data-name="Ellipse 273" cx="211.22" cy="18.34" rx="211.22" ry="18.34" transform="translate(0 124.13)" fill="#93c5eb" opacity="0.4"/>
        <path id="Path_2776" data-name="Path 2776" d="M342.49,92.17c0-2,2.4-3.7,5.7-4.25-1.95-2.71-2.45-5.61-1-7s4.32-.92,7,1c.55-3.3,2.24-5.7,4.25-5.7s3.7,2.4,4.24,5.7c2.72-2,5.62-2.45,7-1s.91,4.32-1,7c3.29.55,5.7,2.24,5.7,4.25s-2.41,3.7-5.7,4.25c1.94,2.71,2.45,5.61,1,7s-4.32.92-7-1c-.54,3.3-2.23,5.7-4.24,5.7s-3.7-2.4-4.25-5.7c-2.71,2-5.61,2.45-7,1s-.92-4.32,1-7C344.89,95.87,342.49,94.18,342.49,92.17Z" fill="#fff" stroke="#707070" stroke-linecap="round" stroke-linejoin="round" stroke-width="2.46"/>
        <path id="Path_2777" data-name="Path 2777" d="M86.51,32.05c0-3.88,4.65-7.15,11-8.2-3.76-5.25-4.73-10.85-2-13.59s8.34-1.77,13.59,2c1.05-6.37,4.32-11,8.2-11s7.16,4.65,8.21,11c5.24-3.76,10.84-4.74,13.59-2s1.77,8.34-2,13.59c6.37,1,11,4.32,11,8.2s-4.64,7.15-11,8.21c3.76,5.24,4.73,10.84,2,13.59s-8.35,1.77-13.59-2c-1.05,6.37-4.33,11-8.21,11s-7.15-4.64-8.2-11c-5.25,3.76-10.85,4.73-13.59,2s-1.77-8.35,2-13.59C91.16,39.2,86.51,35.93,86.51,32.05Z" fill="#fff" stroke="#707070" stroke-linecap="round" stroke-linejoin="round" stroke-width="2.46"/>
        <rect id="Rectangle_2754" data-name="Rectangle 2754" width="74.33" height="21.73" transform="translate(395.6 117.4) rotate(180)" fill="#00cce4"/>
        <rect id="Rectangle_2755" data-name="Rectangle 2755" width="65.64" height="25.08" transform="translate(391.26 142.47) rotate(180)" fill="#00cce4"/>
        <rect id="Rectangle_2756" data-name="Rectangle 2756" width="18.06" height="46.8" transform="translate(367.47 142.48) rotate(180)" fill="#fff"/>
        <rect id="Rectangle_2757" data-name="Rectangle 2757" width="74.33" height="21.73" transform="translate(395.6 117.4) rotate(180)" fill="none" stroke="#006166" stroke-miterlimit="10" stroke-width="1.72"/>
        <rect id="Rectangle_2758" data-name="Rectangle 2758" width="65.64" height="25.08" transform="translate(391.26 142.47) rotate(180)" fill="none" stroke="#006166" stroke-miterlimit="10" stroke-width="1.72"/>
        <path id="Path_2778" data-name="Path 2778" d="M235.24,46.91c4.81,5.34,11.54,7.7,17.47,9.78l2.29.8a130.7,130.7,0,0,0,17.22,4.95l1.68-7.9,3.1-1.49,3.1,1.49,1.68,7.9A130.4,130.4,0,0,0,299,57.49l2.28-.8c5.94-2.08,12.67-4.44,17.48-9.78,4.43-4.93,6.29-12.29,4.64-18.32a14.23,14.23,0,0,0-9.83-10c-8.74-2.71-18.41,2.5-23.71,8.48a62.861,62.861,0,0,0-9.12,14.3h-7.49A63.372,63.372,0,0,0,264.14,27c-5.3-6-15-11.19-23.71-8.48a14.23,14.23,0,0,0-9.83,10.05A20.448,20.448,0,0,0,235.24,46.91Zm50.2,5.48.48-1C289,44.54,292,38.12,296.57,32.94a19.56,19.56,0,0,1,9.89-6,9,9,0,0,1,4.48.1A5.3,5.3,0,0,1,314.8,31a11.46,11.46,0,0,1-2.67,10c-3.27,3.64-8.61,5.51-13.78,7.32l-2.36.84Q290.71,51,285.44,52.39ZM239.22,31a5.3,5.3,0,0,1,3.85-3.88,9,9,0,0,1,4.48-.1,19.55,19.55,0,0,1,9.9,6c4.58,5.18,7.53,11.6,10.64,18.41l.48,1c-3.5-.93-7-2-10.54-3.3l-2.36-.84c-5.17-1.81-10.51-3.68-13.79-7.32A11.48,11.48,0,0,1,239.22,31Z" fill="#c21f1f"/>
        <rect id="Rectangle_2759" data-name="Rectangle 2759" width="127.35" height="37.22" transform="translate(340.69 85.5) rotate(180)" fill="#fdd670"/>
        <rect id="Rectangle_2760" data-name="Rectangle 2760" width="112.46" height="65.52" transform="translate(333.24 151.01) rotate(180)" fill="#fdd670"/>
        <rect id="Rectangle_2761" data-name="Rectangle 2761" width="112.46" height="65.52" transform="translate(333.24 151.01) rotate(180)" fill="none" stroke="#c67626" stroke-miterlimit="10" stroke-width="1.78"/>
        <rect id="Rectangle_2762" data-name="Rectangle 2762" width="127.35" height="37.22" transform="translate(340.69 85.5) rotate(180)" fill="none" stroke="#c67626" stroke-miterlimit="10" stroke-width="1.78"/>
        <rect id="Rectangle_2763" data-name="Rectangle 2763" width="30.94" height="104.82" transform="translate(292.48 152.04) rotate(180)" fill="#c21f1f"/>
        <rect id="Rectangle_2764" data-name="Rectangle 2764" width="134.94" height="21.53" transform="translate(184.81 60.69) rotate(180)" fill="#fdd670"/>
        <rect id="Rectangle_2765" data-name="Rectangle 2765" width="119.16" height="81.78" transform="translate(176.92 142.48) rotate(180)" fill="#fdd670"/>
        <rect id="Rectangle_2766" data-name="Rectangle 2766" width="32.78" height="103.32" transform="translate(133.73 142.47) rotate(180)" fill="#fff"/>
        <rect id="Rectangle_2767" data-name="Rectangle 2767" width="119.16" height="81.78" transform="translate(176.92 142.48) rotate(180)" fill="none" stroke="#c67626" stroke-miterlimit="10" stroke-width="2.1"/>
        <rect id="Rectangle_2768" data-name="Rectangle 2768" width="134.94" height="21.53" transform="translate(184.81 60.69) rotate(180)" fill="none" stroke="#c67626" stroke-miterlimit="10" stroke-width="2.1"/>
        <rect id="Rectangle_2769" data-name="Rectangle 2769" width="172.56" height="37.51" transform="translate(238.84 122.88) rotate(180)" fill="#00cce4"/>
        <rect id="Rectangle_2770" data-name="Rectangle 2770" width="172.56" height="37.51" transform="translate(238.84 122.88) rotate(180)" fill="none" stroke="#006166" stroke-miterlimit="10" stroke-width="1.72"/>
        <rect id="Rectangle_2771" data-name="Rectangle 2771" width="157.56" height="38.26" transform="translate(231.34 161.14) rotate(180)" fill="#00a8e2"/>
        <rect id="Rectangle_2772" data-name="Rectangle 2772" width="157.56" height="38.26" transform="translate(231.34 161.14) rotate(180)" fill="none" stroke="#006166" stroke-miterlimit="10" stroke-width="1.72"/>
        <path id="Path_2779" data-name="Path 2779" d="M219.5,97.38a3.75,3.75,0,1,0,3.75-3.75,3.75,3.75,0,0,0-3.75,3.75Z" fill="#7de4ea"/>
        <path id="Path_2780" data-name="Path 2780" d="M190.22,97.38a3.75,3.75,0,1,0,1.109-2.662,3.75,3.75,0,0,0-1.109,2.662Z" fill="#7de4ea"/>
        <path id="Path_2781" data-name="Path 2781" d="M161,97.38a3.75,3.75,0,1,0,3.75-3.75A3.75,3.75,0,0,0,161,97.38Z" fill="#7de4ea"/>
        <path id="Path_2782" data-name="Path 2782" d="M131.67,97.38a3.75,3.75,0,1,0,3.75-3.75A3.75,3.75,0,0,0,131.67,97.38Z" fill="#7de4ea"/>
        <path id="Path_2783" data-name="Path 2783" d="M102.4,97.38a3.75,3.75,0,1,0,3.75-3.75,3.75,3.75,0,0,0-3.75,3.75Z" fill="#7de4ea"/>
        <path id="Path_2784" data-name="Path 2784" d="M73.12,97.38a3.75,3.75,0,1,0,3.75-3.75,3.75,3.75,0,0,0-3.75,3.75Z" fill="#7de4ea"/>
        <path id="Path_2785" data-name="Path 2785" d="M204.86,113.13a3.75,3.75,0,1,0,3.75-3.75,3.75,3.75,0,0,0-3.75,3.75Z" fill="#7de4ea"/>
        <path id="Path_2786" data-name="Path 2786" d="M175.59,113.13a3.75,3.75,0,1,0,3.75-3.75,3.75,3.75,0,0,0-3.75,3.75Z" fill="#7de4ea"/>
        <path id="Path_2787" data-name="Path 2787" d="M146.31,113.13a3.75,3.75,0,1,0,3.75-3.75,3.75,3.75,0,0,0-3.75,3.75Z" fill="#7de4ea"/>
        <path id="Path_2788" data-name="Path 2788" d="M117,113.13a3.74,3.74,0,1,0,1.1-2.655A3.75,3.75,0,0,0,117,113.13Z" fill="#7de4ea"/>
        <path id="Path_2789" data-name="Path 2789" d="M87.76,113.13a3.75,3.75,0,1,0,3.75-3.75,3.75,3.75,0,0,0-3.75,3.75Z" fill="#7de4ea"/>
        <path id="Path_2790" data-name="Path 2790" d="M221.23,134.51a3.75,3.75,0,1,0,3.75-3.75,3.75,3.75,0,0,0-3.75,3.75Z" fill="#00cce4"/>
        <path id="Path_2791" data-name="Path 2791" d="M192,134.51a3.74,3.74,0,1,0,1.1-2.655A3.75,3.75,0,0,0,192,134.51Z" fill="#00cce4"/>
        <path id="Path_2792" data-name="Path 2792" d="M162.68,134.51a3.75,3.75,0,1,0,3.75-3.75,3.75,3.75,0,0,0-3.75,3.75Z" fill="#00cce4"/>
        <path id="Path_2793" data-name="Path 2793" d="M133.41,134.51a3.74,3.74,0,1,0,1.1-2.655A3.75,3.75,0,0,0,133.41,134.51Z" fill="#00cce4"/>
        <path id="Path_2794" data-name="Path 2794" d="M104.13,134.51a3.75,3.75,0,1,0,3.75-3.75,3.75,3.75,0,0,0-3.75,3.75Z" fill="#00cce4"/>
        <path id="Path_2795" data-name="Path 2795" d="M74.86,134.51a3.74,3.74,0,1,0,1.1-2.655,3.75,3.75,0,0,0-1.1,2.655Z" fill="#00cce4"/>
        <path id="Path_2796" data-name="Path 2796" d="M206.59,150.26a3.75,3.75,0,1,0,3.75-3.75A3.75,3.75,0,0,0,206.59,150.26Z" fill="#00cce4"/>
        <path id="Path_2797" data-name="Path 2797" d="M177.32,150.26a3.75,3.75,0,1,0,3.75-3.75,3.75,3.75,0,0,0-3.75,3.75Z" fill="#00cce4"/>
        <path id="Path_2798" data-name="Path 2798" d="M148,150.26a3.75,3.75,0,1,0,3.75-3.75A3.75,3.75,0,0,0,148,150.26Z" fill="#00cce4"/>
        <path id="Path_2799" data-name="Path 2799" d="M118.77,150.26a3.75,3.75,0,1,0,3.75-3.75,3.75,3.75,0,0,0-3.75,3.75Z" fill="#00cce4"/>
        <path id="Path_2800" data-name="Path 2800" d="M89.49,150.26a3.75,3.75,0,1,0,3.75-3.75A3.75,3.75,0,0,0,89.49,150.26Z" fill="#00cce4"/>
      </g>
    </g>
    <g id="Balloon" transform="translate(-24.919 5)">
      <g id="Balloon_Left" transform="translate(188.915 908.007)">
        <g id="Layer_2" data-name="Layer 2">
          <g id="Layer_3-3" data-name="Layer 3">
            <path id="Path_1282" data-name="Path 1282" d="M226,206.67c-2.87,14.19-12.91,27.92-25,37.79-12.77,10.45-27.79,16.56-39,14.28-20.84-4.23-47.61-44.32-41.69-73.49A53.919,53.919,0,1,1,226,206.67Z" fill-rule="evenodd" fill="url(#linear-gradient)"/>
            <path id="Path_1283" data-name="Path 1283" d="M152.11,263.63a14.75,14.75,0,0,1,6.09-6l7.89,1.6s2.69,3.83,2.18,7.92C168.27,267.12,163.22,268,152.11,263.63Z" fill-rule="evenodd" fill="url(#linear-gradient-2)"/>
            <path id="Path_1284" data-name="Path 1284" d="M207.75,166.9c-1.41.53,2.68,6.7,8.51,10.82,0,0,1.56-6.27-3.31-9.92a5.64,5.64,0,0,0-5.2-.9Z" fill="#fff" fill-rule="evenodd"/>
            <path id="Path_1285" data-name="Path 1285" d="M215.32,224.73s4.9-12.47,8.66-19.49C224,205.24,222,218.42,215.32,224.73Z" fill="#fff" fill-rule="evenodd"/>
            <path id="Path_1286" data-name="Path 1286" d="M130.32,222.84s2,15.38,16.22,23.07C146.54,245.91,136.76,229.34,130.32,222.84Z" fill="#fff" fill-rule="evenodd"/>
            <path id="Path_1287" data-name="Path 1287" d="M175.94,144.53s-18.2,12.49-22.17,43.12L183.68,194a160.065,160.065,0,0,0,1.87-22.51l5.95.08s6.86,13.57,7.55,42.37l22.13,1.36C223.36,209.9,236.7,153.86,175.94,144.53Z" fill="#fff" fill-rule="evenodd" opacity="0.25"/>
            <path id="Path_1288" data-name="Path 1288" d="M226,206.67c-2.87,14.19-12.91,27.92-25,37.79-12.77,10.45-27.79,16.56-39,14.28-20.84-4.23-47.61-44.32-41.69-73.49A53.919,53.919,0,1,1,226,206.67Z" fill="none" stroke="#1c6dc6" stroke-miterlimit="10" stroke-width="2" fill-rule="evenodd"/>
            <path id="Path_1289" data-name="Path 1289" d="M133.49,368.38,85.52,536.28l1.73.09,48.24-167.98Z" fill="#707070" fill-rule="evenodd"/>
            <path id="Path_1290" data-name="Path 1290" d="M57.12,282.89l22.5,253.08,1.22.06L59.36,283.01Z" fill="#707070" fill-rule="evenodd"/>
            <path id="Path_1291" data-name="Path 1291" d="M108.63,108.25,80.59,531.04l.85.04,30.09-422.67Z" fill="#707070" fill-rule="evenodd"/>
            <path id="Path_1292" data-name="Path 1292" d="M141.49,194.85,83.48,536.17l2.04.11,58.04-341.32Z" fill="#707070" fill-rule="evenodd"/>
            <path id="Path_1293" data-name="Path 1293" d="M96.12,163.21,79.62,535.97l1.22.06,16.99-372.8Z" fill="#707070" fill-rule="evenodd"/>
            <path id="Path_1294" data-name="Path 1294" d="M124.39,125.79,81.54,536.07l1.03.05L125.9,125.87Z" fill="#707070" fill-rule="evenodd"/>
            <path id="Path_1295" data-name="Path 1295" d="M180.58,57.77c-1.59,29.72-33.46,62-55.66,60.86-21.24-1.13-53.58-36.86-52-66.59a53.908,53.908,0,1,1,107.664,5.73Z" fill-rule="evenodd" fill="url(#linear-gradient-3)"/>
            <path id="Path_1296" data-name="Path 1296" d="M115.84,124.92a14.72,14.72,0,0,1,5.14-6.86l8,.43s3.22,3.39,3.32,7.52C132.34,126,127.47,127.59,115.84,124.92Z" fill-rule="evenodd" fill="url(#linear-gradient-4)"/>
            <path id="Path_1297" data-name="Path 1297" d="M85.41,44.52S89.93,5.11,126.82,2.33C166.62-.68,180,46.76,180,46.76l-8.23-.83S165.52,29,152.05,24.82H146s7.08,10.57,7.68,23.34C153.68,48.15,140.06,52.84,85.41,44.52Z" fill="#fff" fill-rule="evenodd" opacity="0.25"/>
            <path id="Path_1298" data-name="Path 1298" d="M156.71,21.09c-1.31.72,3.63,6.22,10,9.44,0,0,.63-6.42-4.73-9.32A5.62,5.62,0,0,0,156.71,21.09Z" fill="#fff" fill-rule="evenodd"/>
            <path id="Path_1299" data-name="Path 1299" d="M172.67,77.18s3-13.05,5.71-20.55C178.38,56.63,178.34,70,172.67,77.18Z" fill="#fff" fill-rule="evenodd"/>
            <path id="Path_1300" data-name="Path 1300" d="M180.58,57.77c-1.59,29.72-33.46,62-55.66,60.86-21.24-1.13-53.58-36.86-52-66.59a53.908,53.908,0,1,1,107.664,5.73Z" fill="none" stroke="#99171e" stroke-miterlimit="10" stroke-width="2" fill-rule="evenodd"/>
            <path id="Path_1301" data-name="Path 1301" d="M88.31,87.76s4.2,14.93,19.43,20.44C107.74,108.2,95.63,93.24,88.31,87.76Z" fill="#fff" fill-rule="evenodd"/>
            <path id="Path_1302" data-name="Path 1302" d="M108.66,215.59c2.17,29.69-25.39,65.76-47.56,67.38-21.21,1.55-57.79-29.84-59.95-59.53a53.9,53.9,0,1,1,107.512-7.85Z" fill-rule="evenodd" fill="url(#linear-gradient-5)"/>
            <path id="Path_1303" data-name="Path 1303" d="M52.88,290.35a14.79,14.79,0,0,1,4.24-7.46l8-.58s3.62,3,4.24,7C69.39,289.35,64.75,291.53,52.88,290.35Z" fill-rule="evenodd" fill="url(#linear-gradient-6)"/>
            <path id="Path_1304" data-name="Path 1304" d="M52.88,290.35a14.79,14.79,0,0,1,4.24-7.46l8-.58s3.62,3,4.24,7C69.39,289.35,64.75,291.53,52.88,290.35Z" fill="none" stroke="#99171e" stroke-miterlimit="10" stroke-width="2" fill-rule="evenodd"/>
            <path id="Path_1305" data-name="Path 1305" d="M12.59,214.41s-.47-39.66,35.78-47.06c39.11-8,58.38,37.39,58.38,37.39l-8.27.21s-8.36-16-22.25-18.46l-6,.75s8.36,9.6,10.55,22.19C80.77,209.43,67.84,215.79,12.59,214.41Z" fill="#fff" fill-rule="evenodd" opacity="0.25"/>
            <path id="Path_1306" data-name="Path 1306" d="M80.38,182.2c-1.21.88,4.38,5.72,11.11,8.11,0,0-.19-6.45-5.87-8.65a5.62,5.62,0,0,0-5.24.54Z" fill="#fff" fill-rule="evenodd"/>
            <path id="Path_1307" data-name="Path 1307" d="M108.66,215.59c2.17,29.69-25.39,65.76-47.56,67.38-21.21,1.55-57.79-29.84-59.95-59.53a53.9,53.9,0,1,1,107.512-7.85Z" fill="none" stroke="#99171e" stroke-miterlimit="10" stroke-width="2" fill-rule="evenodd"/>
            <path id="Path_1308" data-name="Path 1308" d="M103.26,235.84s1.35-13.33,3.08-21.1C106.34,214.74,108,228,103.26,235.84Z" fill="#fff" fill-rule="evenodd"/>
            <path id="Path_1309" data-name="Path 1309" d="M20.9,257s6,14.27,21.84,17.83C42.74,274.78,28.85,261.46,20.9,257Z" fill="#fff" fill-rule="evenodd"/>
            <path id="Path_1310" data-name="Path 1310" d="M198.41,135.66c-1.12,14.91-9.9,30.3-21.17,41.72s-24.76,18.75-35.8,17.92c-21.22-1.6-52.76-38-50.54-67.71a53.908,53.908,0,1,1,107.514,8.07Z" fill-rule="evenodd" fill="url(#radial-gradient)"/>
            <path id="Path_1311" data-name="Path 1311" d="M132.22,201.39a14.73,14.73,0,0,1,5.29-6.75l8,.6s3.15,3.47,3.16,7.59C148.7,202.83,143.79,204.31,132.22,201.39Z" fill-rule="evenodd" fill="url(#linear-gradient-7)"/>
            <path id="Path_1312" data-name="Path 1312" d="M175.35,98.47c-1.33.69,3.5,6.3,9.79,9.66,0,0,.77-6.41-4.52-9.43A5.65,5.65,0,0,0,175.35,98.47Z" fill="#fff" fill-rule="evenodd"/>
            <path id="Path_1313" data-name="Path 1313" d="M190.08,154.9s3.3-13,6.16-20.43C196.24,134.47,195.9,147.81,190.08,154.9Z" fill="#fff" fill-rule="evenodd"/>
            <path id="Path_1314" data-name="Path 1314" d="M105.51,163.64s3.87,15,19,20.86C124.49,184.5,112.71,169.28,105.51,163.64Z" fill="#fff" fill-rule="evenodd"/>
            <path id="Path_1315" data-name="Path 1315" d="M141,80.24s-16.5,14.66-16.61,45.55l26.85,2s.07-12,2.67-22l5.91-.66s5.12,20.63,2.52,42.95l32.39-3.27C196.2,139.18,202.44,81.91,141,80.24Z" fill="#fff" fill-rule="evenodd" opacity="0.25"/>
            <path id="Path_1316" data-name="Path 1316" d="M198.41,135.66c-1.12,14.91-9.9,30.3-21.17,41.72s-24.76,18.75-35.8,17.92c-21.22-1.6-52.76-38-50.54-67.71a53.908,53.908,0,1,1,107.514,8.07Z" fill="none" stroke="#f36c21" stroke-miterlimit="10" stroke-width="2" fill-rule="evenodd"/>
            <path id="Path_1317" data-name="Path 1317" d="M151.77,102.34c-1.58,29.73-33.45,62-55.65,60.87-21.24-1.13-53.58-36.86-52-66.59a53.9,53.9,0,0,1,107.65,5.72Z" fill-rule="evenodd" fill="url(#linear-gradient-8)"/>
            <path id="Path_1318" data-name="Path 1318" d="M87,169.5a14.78,14.78,0,0,1,5.15-6.86l8,.43s3.22,3.39,3.32,7.51C103.54,170.58,98.67,172.17,87,169.5Z" fill-rule="evenodd" fill="url(#linear-gradient-9)"/>
            <path id="Path_1319" data-name="Path 1319" d="M87,169.5a14.78,14.78,0,0,1,5.15-6.86l8,.43s3.22,3.39,3.32,7.51C103.54,170.58,98.67,172.17,87,169.5Z" fill="none" stroke="#1c6dc6" stroke-miterlimit="10" stroke-width="2" fill-rule="evenodd"/>
            <path id="Path_1320" data-name="Path 1320" d="M127.91,65.66c-1.32.73,3.63,6.23,10,9.45,0,0,.63-6.42-4.73-9.32a5.63,5.63,0,0,0-5.27-.13Z" fill="#fff" fill-rule="evenodd"/>
            <path id="Path_1321" data-name="Path 1321" d="M143.87,121.76s3-13.05,5.71-20.55C149.58,101.21,149.53,114.54,143.87,121.76Z" fill="#fff" fill-rule="evenodd"/>
            <path id="Path_1322" data-name="Path 1322" d="M59.51,132.34s4.19,14.93,19.42,20.44C78.93,152.78,66.82,137.82,59.51,132.34Z" fill="#fff" fill-rule="evenodd"/>
            <path id="Path_1323" data-name="Path 1323" d="M93.16,48.19S77,63.21,77.55,94.1l26.88,1.42s-.19-12,2.19-22.07l5.9-.8s5.57,20.51,3.45,42.89l32.31-4C149.64,105.91,154.63,48.52,93.16,48.19Z" fill="#fff" fill-rule="evenodd" opacity="0.25"/>
            <path id="Path_1324" data-name="Path 1324" d="M151.77,102.34c-1.58,29.73-33.45,62-55.65,60.87-21.24-1.13-53.58-36.86-52-66.59a53.9,53.9,0,0,1,107.65,5.72Z" fill="none" stroke="#1c6dc6" stroke-miterlimit="10" stroke-width="2" fill-rule="evenodd"/>
            <path id="Path_1325" data-name="Path 1325" d="M159.54,254c-1.59,29.73-33.46,62-55.66,60.87-21.24-1.13-53.58-36.87-52-66.6A53.906,53.906,0,0,1,159.54,254Z" fill="#c3d14f" fill-rule="evenodd"/>
            <path id="Path_1326" data-name="Path 1326" d="M94.8,321.12a14.72,14.72,0,0,1,5.14-6.87l8,.43s3.22,3.4,3.32,7.52C111.3,322.2,106.43,323.78,94.8,321.12Z" fill-rule="evenodd" fill="url(#linear-gradient-10)"/>
            <path id="Path_1327" data-name="Path 1327" d="M135.67,217.28c-1.31.73,3.64,6.23,10,9.45,0,0,.62-6.43-4.74-9.33a5.62,5.62,0,0,0-5.26-.12Z" fill="#fff" fill-rule="evenodd"/>
            <path id="Path_1328" data-name="Path 1328" d="M151.63,273.37s3-13.05,5.71-20.55C157.34,252.82,157.3,266.16,151.63,273.37Z" fill="#fff" fill-rule="evenodd"/>
            <path id="Path_1329" data-name="Path 1329" d="M67.27,284s4.2,14.92,19.43,20.44C86.7,304.4,74.59,289.44,67.27,284Z" fill="#fff" fill-rule="evenodd"/>
            <path id="Path_1330" data-name="Path 1330" d="M100.93,199.8s-16.18,15-15.61,45.91l26.87,1.43s-.18-12,2.19-22.08l5.9-.79s5.57,20.51,3.46,42.89l32.31-4C157.41,257.53,162.4,200.13,100.93,199.8Z" fill="#fff" fill-rule="evenodd" opacity="0.25"/>
            <path id="Path_1331" data-name="Path 1331" d="M159.54,254c-1.59,29.73-33.46,62-55.66,60.87-21.24-1.13-53.58-36.87-52-66.6A53.906,53.906,0,0,1,159.54,254Z" fill="none" stroke="#91992c" stroke-miterlimit="10" stroke-width="2" fill-rule="evenodd"/>
            <path id="Path_1332" data-name="Path 1332" d="M191.67,309.92c-2.84,29.64-36,60.58-58.18,58.46-21.17-2-52-39.1-49.13-68.73a53.9,53.9,0,1,1,107.31,10.27Z" fill-rule="evenodd" fill="url(#linear-gradient-11)"/>
            <path id="Path_1333" data-name="Path 1333" d="M124.15,374.28a14.69,14.69,0,0,1,5.43-6.64l8,.77s3.08,3.53,3,7.65C140.59,376.06,135.66,377.44,124.15,374.28Z" fill-rule="evenodd" fill="url(#linear-gradient-12)"/>
            <path id="Path_1334" data-name="Path 1334" d="M124.15,374.28a14.69,14.69,0,0,1,5.43-6.64l8,.77s3.08,3.53,3,7.65C140.59,376.06,135.66,377.44,124.15,374.28Z" fill="none" stroke="#9bb1ba" stroke-miterlimit="10" stroke-width="2" fill-rule="evenodd"/>
            <path id="Path_1335" data-name="Path 1335" d="M169.38,272.27c-1.34.67,3.37,6.37,9.6,9.86,0,0,.89-6.39-4.34-9.52a5.64,5.64,0,0,0-5.26-.34Z" fill="#fff" fill-rule="evenodd"/>
            <path id="Path_1336" data-name="Path 1336" d="M183,329s3.57-12.92,6.58-20.3C189.53,308.69,188.92,322,183,329Z" fill="#fff" fill-rule="evenodd"/>
            <path id="Path_1337" data-name="Path 1337" d="M98.22,336s3.56,15.09,18.54,21.24C116.76,357.23,105.3,341.77,98.22,336Z" fill="#fff" fill-rule="evenodd"/>
            <path id="Path_1338" data-name="Path 1338" d="M135.41,253.33s-16.8,14.33-17.54,45.21l26.79,2.57s.32-12,3.12-22l5.93-.55s4.7,20.73,1.64,43L187.8,319C189.39,313.4,196.81,256.27,135.41,253.33Z" fill="#fff" fill-rule="evenodd" opacity="0.25"/>
            <path id="Path_1339" data-name="Path 1339" d="M191.67,309.92c-2.84,29.64-36,60.58-58.18,58.46-21.17-2-52-39.1-49.13-68.73a53.9,53.9,0,1,1,107.31,10.27Z" fill="none" stroke="#9bb1ba" stroke-miterlimit="10" stroke-width="2" fill-rule="evenodd"/>
            <path id="Path_1340" data-name="Path 1340" d="M142.84,532.61a169,169,0,0,0-29.67-.62c-18.75,1-38.36,4.84-54.24,15.37-.08,0-.45,0-.33-.1,15.73-10.43,35-14.14,53.53-15.37a166.171,166.171,0,0,1,30.82.57c.27,0,.05.17-.11.15Z" fill="none" stroke="#64acbf" stroke-linecap="round" stroke-linejoin="round" stroke-width="2.61"/>
            <path id="Path_1341" data-name="Path 1341" d="M82.42,536.74C66,522.5,41.25,520.53,21.79,528.85c-.15.07-.38,0-.14-.12,19.64-8.39,44.52-6.51,61.13,7.87C82.86,536.67,82.51,536.81,82.42,536.74Z" fill="none" stroke="#64acbf" stroke-linecap="round" stroke-linejoin="round" stroke-width="2.61"/>
          </g>
        </g>
      </g>
    </g>
    <g id="Group_1242" data-name="Group 1242">
      <g id="Texture_Right_2" transform="translate(1397.161 1537.695)">
        <g id="Layer_3-4" data-name="Layer 3">
          <path id="Path_1280-2" data-name="Path 1280" d="M122.6,10.19a168,168,0,0,0-29.67-.62c-18.75,1-38.36,4.84-54.23,15.36-.09.06-.46,0-.34-.09,15.74-10.43,35-14.15,53.53-15.37a166.152,166.152,0,0,1,30.82.57C122.98,10.04,122.77,10.2,122.6,10.19Z" fill="none" stroke="#64acbf" stroke-linecap="round" stroke-linejoin="round" stroke-width="2.61"/>
          <path id="Path_1281-2" data-name="Path 1281" d="M62.19,14.32C45.74.07,21-1.89,1.56,6.43c-.16.06-.39,0-.14-.12,19.64-8.4,44.51-6.52,61.13,7.87.07.07-.27.21-.36.14Z" fill="none" stroke="#64acbf" stroke-linecap="round" stroke-linejoin="round" stroke-width="2.61"/>
        </g>
      </g>
      <g id="Balloon_Right" transform="translate(1511.507 885)">
        <g id="Layer_2-2" data-name="Layer 2">
          <g id="Layer_3-5" data-name="Layer 3">
            <path id="Path_1342" data-name="Path 1342" d="M221.92,189.39c-.63,14.46-8.41,29.59-18.8,41.22-11,12.3-24.88,20.67-36.29,20.17-21.25-.94-53.93-36.38-52.61-66.11a53.9,53.9,0,1,1,107.7,4.72Z" fill-rule="evenodd" fill="url(#linear-gradient-13)"/>
            <path id="Path_1343" data-name="Path 1343" d="M157.79,257.15a14.76,14.76,0,0,1,5.09-6.91l8,.35s3.25,3.37,3.39,7.49C174.31,258.08,169.45,259.71,157.79,257.15Z" fill-rule="evenodd" fill="url(#linear-gradient-14)"/>
            <path id="Path_1344" data-name="Path 1344" d="M197.71,152.94c-1.3.74,3.69,6.2,10.09,9.36,0,0,.57-6.43-4.81-9.29A5.64,5.64,0,0,0,197.71,152.94Z" fill="#fff" fill-rule="evenodd"/>
            <path id="Path_1345" data-name="Path 1345" d="M214.19,208.89s2.9-13.08,5.52-20.61C219.71,188.28,219.79,201.62,214.19,208.89Z" fill="#fff" fill-rule="evenodd"/>
            <path id="Path_1346" data-name="Path 1346" d="M129.93,220.25s4.33,14.88,19.61,20.26C149.54,240.51,137.3,225.66,129.93,220.25Z" fill="#fff" fill-rule="evenodd"/>
            <path id="Path_1347" data-name="Path 1347" d="M162.81,135.78s-16,15.18-15.19,46.05l30.53,1.61a161.341,161.341,0,0,0-1.65-22.52l5.89-.85s8.88,12.33,14.05,40.68l22.07-2.1C219.82,193,224.28,135.55,162.81,135.78Z" fill="#40ceeb" fill-rule="evenodd" opacity="0.5"/>
            <path id="Path_1348" data-name="Path 1348" d="M221.92,189.39c-.63,14.46-8.41,29.59-18.8,41.22-11,12.3-24.88,20.67-36.29,20.17-21.25-.94-53.93-36.38-52.61-66.11a53.9,53.9,0,1,1,107.7,4.72Z" fill="none" stroke="#1c6dc6" stroke-miterlimit="10" stroke-width="2" fill-rule="evenodd"/>
            <path id="Path_1349" data-name="Path 1349" d="M155.7,363.52l5.81,180.9,1.72-.17-5.55-181.03Z" fill="#707070" fill-rule="evenodd"/>
            <path id="Path_1350" data-name="Path 1350" d="M66.96,290.95l88.67,254.08,1.21-.12L69.19,290.72Z" fill="#707070" fill-rule="evenodd"/>
            <path id="Path_1351" data-name="Path 1351" d="M90.67,110.42l65.14,429.59.85-.09L93.57,110.12Z" fill="#707070" fill-rule="evenodd"/>
            <path id="Path_1352" data-name="Path 1352" d="M136.61,190.86l22.86,353.77,2.04-.21L138.67,190.64Z" fill="#707070" fill-rule="evenodd"/>
            <path id="Path_1353" data-name="Path 1353" d="M86.87,166.66l68.76,378.37,1.21-.12L88.56,166.41Z" fill="#707070" fill-rule="evenodd"/>
            <path id="Path_1354" data-name="Path 1354" d="M108.97,125.3l48.57,419.53,1.03-.1L110.48,125.14Z" fill="#707070" fill-rule="evenodd"/>
            <path id="Path_1355" data-name="Path 1355" d="M153.89,49.36c3.06,29.61-23.39,66.5-45.5,68.78-21.16,2.19-58.67-28.08-61.73-57.69A53.9,53.9,0,0,1,153.89,49.36Z" fill-rule="evenodd" fill="url(#linear-gradient-15)"/>
            <path id="Path_1356" data-name="Path 1356" d="M100.39,125.77a14.81,14.81,0,0,1,4-7.58l8-.83s3.71,2.86,4.45,6.91C116.86,124.27,112.3,126.6,100.39,125.77Z" fill-rule="evenodd" fill="url(#linear-gradient-16)"/>
            <path id="Path_1357" data-name="Path 1357" d="M57.83,51.08S56.16,11.45,92.17,3C131-6.2,151.65,38.58,151.65,38.58l-8.26.45s-8.84-15.71-22.8-17.78l-6,.94s8.64,9.33,11.22,21.85C125.83,44,113.1,50.8,57.83,51.08Z" fill="#fff" fill-rule="evenodd" opacity="0.25"/>
            <path id="Path_1358" data-name="Path 1358" d="M153.89,49.36c3.06,29.61-23.39,66.5-45.5,68.78-21.16,2.19-58.67-28.08-61.73-57.69A53.9,53.9,0,0,1,153.89,49.36Z" fill="none" stroke="#99171e" stroke-miterlimit="10" stroke-width="2" fill-rule="evenodd"/>
            <path id="Path_1359" data-name="Path 1359" d="M67.42,93.35s6.46,14.09,22.37,17.16C89.79,110.51,75.5,97.62,67.42,93.35Z" fill="#fff" fill-rule="evenodd"/>
            <path id="Path_1360" data-name="Path 1360" d="M107.41,216.45c6.76,29-14.85,68.91-36.5,74-20.72,4.83-61.73-20.49-68.49-49.48a53.908,53.908,0,1,1,105-24.48Z" fill-rule="evenodd" fill="url(#linear-gradient-17)"/>
            <path id="Path_1361" data-name="Path 1361" d="M63.93,299a14.85,14.85,0,0,1,3-8l7.84-1.82s4,2.36,5.29,6.29C80.09,295.42,75.85,298.3,63.93,299Z" fill-rule="evenodd" fill="url(#linear-gradient-18)"/>
            <path id="Path_1362" data-name="Path 1362" d="M12.32,230.23s-6.64-39.11,28-52c37.39-14,63.49,27.85,63.49,27.85l-8.14,1.49S85,193.05,70.84,192.75L65,194.43s9.74,8.18,13.87,20.27C78.9,214.7,67.12,223,12.32,230.23Z" fill="#fff" fill-rule="evenodd" opacity="0.25"/>
            <path id="Path_1363" data-name="Path 1363" d="M74.27,187.87c-1.06,1.06,5.23,5,12.24,6.28,0,0-1.19-6.34-7.14-7.64a5.65,5.65,0,0,0-5.1,1.36Z" fill="#fff" fill-rule="evenodd"/>
            <path id="Path_1364" data-name="Path 1364" d="M107.41,216.45c6.76,29-14.85,68.91-36.5,74-20.72,4.83-61.73-20.49-68.49-49.48a53.908,53.908,0,1,1,105-24.48Z" fill="none" stroke="#99171e" stroke-miterlimit="10" stroke-width="2" fill-rule="evenodd"/>
            <path id="Path_1365" data-name="Path 1365" d="M105.22,237.3s-.73-13.38-.24-21.33C105,216,108.65,228.79,105.22,237.3Z" fill="#fff" fill-rule="evenodd"/>
            <path id="Path_1366" data-name="Path 1366" d="M27.15,271s8.18,13.16,24.35,14.22C51.5,285.18,35.7,274.18,27.15,271Z" fill="#fff" fill-rule="evenodd"/>
            <path id="Path_1367" data-name="Path 1367" d="M183.62,123.53c1.22,14.9-5.06,31.47-14.41,44.51s-21.55,22.37-32.58,23.27c-21.21,1.72-58-29.36-60.46-59a53.9,53.9,0,0,1,107.45-8.75Z" fill-rule="evenodd" fill="url(#radial-gradient-2)"/>
            <path id="Path_1368" data-name="Path 1368" d="M128.47,198.76a14.74,14.74,0,0,1,4.18-7.49l8-.66s3.65,2.94,4.3,7C145,197.62,140.35,199.84,128.47,198.76Z" fill-rule="evenodd" fill="url(#linear-gradient-19)"/>
            <path id="Path_1369" data-name="Path 1369" d="M128.47,198.76a14.74,14.74,0,0,1,4.18-7.49l8-.66s3.65,2.94,4.3,7C145,197.62,140.35,199.84,128.47,198.76Z" fill="none" stroke="#f36c21" stroke-miterlimit="10" stroke-width="2" fill-rule="evenodd"/>
            <path id="Path_1370" data-name="Path 1370" d="M155.06,90.38c-1.2.89,4.44,5.69,11.18,8,0,0-.24-6.45-5.94-8.61A5.64,5.64,0,0,0,155.06,90.38Z" fill="#fff" fill-rule="evenodd"/>
            <path id="Path_1371" data-name="Path 1371" d="M178.39,143.83s1.25-13.34,2.91-21.13C181.3,122.7,183,135.92,178.39,143.83Z" fill="#fff" fill-rule="evenodd"/>
            <path id="Path_1372" data-name="Path 1372" d="M96.21,165.62s6.16,14.23,22,17.65C118.2,183.27,104.2,170.07,96.21,165.62Z" fill="#fff" fill-rule="evenodd"/>
            <path id="Path_1373" data-name="Path 1373" d="M118.29,77.72s-14,17-9.32,47.58l26.83-2.18s-1.8-11.83-.8-22.18l5.74-1.57s8.26,19.58,9.17,42l31.48-8.27C182,127.35,179.25,69.81,118.29,77.72Z" fill="#fff" fill-rule="evenodd" opacity="0.25"/>
            <path id="Path_1374" data-name="Path 1374" d="M183.62,123.53c1.22,14.9-5.06,31.47-14.41,44.51s-21.55,22.37-32.58,23.27c-21.21,1.72-58-29.36-60.46-59a53.9,53.9,0,0,1,107.45-8.75Z" fill="none" stroke="#f36c21" stroke-miterlimit="10" stroke-width="2" fill-rule="evenodd"/>
            <path id="Path_1375" data-name="Path 1375" d="M132.37,97.88c3.07,29.61-23.39,66.49-45.5,68.78C65.71,168.85,28.2,138.58,25.14,109A53.9,53.9,0,1,1,132.37,97.88Z" fill="#c3d14f" fill-rule="evenodd"/>
            <path id="Path_1376" data-name="Path 1376" d="M78.87,174.29a14.75,14.75,0,0,1,4-7.58l8-.83s3.71,2.85,4.45,6.91C95.34,172.79,90.78,175.11,78.87,174.29Z" fill="#c3d14f" fill-rule="evenodd"/>
            <path id="Path_1377" data-name="Path 1377" d="M78.87,174.29a14.75,14.75,0,0,1,4-7.58l8-.83s3.71,2.85,4.45,6.91C95.34,172.79,90.78,175.11,78.87,174.29Z" fill="none" stroke="#91992c" stroke-miterlimit="10" stroke-width="2" fill-rule="evenodd"/>
            <path id="Path_1378" data-name="Path 1378" d="M103.09,65.36c-1.18.92,4.56,5.58,11.36,7.77,0,0-.39-6.44-6.13-8.47a5.63,5.63,0,0,0-5.23.7Z" fill="#fff" fill-rule="evenodd"/>
            <path id="Path_1379" data-name="Path 1379" d="M127.59,118.28s.95-13.36,2.44-21.19" fill="#fff" fill-rule="evenodd"/>
            <path id="Path_1380" data-name="Path 1380" d="M45.9,141.86S52.37,156,68.27,159C68.27,159,54,146.14,45.9,141.86Z" fill="#fff" fill-rule="evenodd"/>
            <path id="Path_1381" data-name="Path 1381" d="M66.05,53.5s-13.64,17.35-8.28,47.77l26.78-2.76s-2-11.79-1.27-22.15L89,74.65s8.69,19.4,10.08,41.83l31.3-9C130.83,101.73,126.83,44.26,66.05,53.5Z" fill="#fff" fill-rule="evenodd" opacity="0.25"/>
            <path id="Path_1382" data-name="Path 1382" d="M132.37,97.88c3.07,29.61-23.39,66.49-45.5,68.78C65.71,168.85,28.2,138.58,25.14,109A53.9,53.9,0,1,1,132.37,97.88Z" fill="none" stroke="#91992c" stroke-miterlimit="10" stroke-width="2" fill-rule="evenodd"/>
            <path id="Path_1383" data-name="Path 1383" d="M163.63,246.44c3.06,29.61-23.39,66.49-45.51,68.78C97,317.41,59.46,287.14,56.4,257.53a53.9,53.9,0,0,1,107.23-11.09Z" fill-rule="evenodd" fill="url(#linear-gradient-20)"/>
            <path id="Path_1384" data-name="Path 1384" d="M110.13,322.85a14.78,14.78,0,0,1,4-7.58l8-.83s3.71,2.86,4.45,6.91C126.6,321.35,122,323.67,110.13,322.85Z" fill-rule="evenodd" fill="url(#linear-gradient-21)"/>
            <path id="Path_1385" data-name="Path 1385" d="M134.35,213.92c-1.18.92,4.56,5.59,11.35,7.77,0,0-.38-6.44-6.12-8.47A5.63,5.63,0,0,0,134.35,213.92Z" fill="#fff" fill-rule="evenodd"/>
            <path id="Path_1386" data-name="Path 1386" d="M158.84,266.85s.95-13.37,2.45-21.19C161.29,245.66,163.32,258.84,158.84,266.85Z" fill="#fff" fill-rule="evenodd"/>
            <path id="Path_1387" data-name="Path 1387" d="M77.16,290.43s6.46,14.08,22.37,17.16C99.53,307.59,85.24,294.7,77.16,290.43Z" fill="#fff" fill-rule="evenodd"/>
            <path id="Path_1388" data-name="Path 1388" d="M97.31,202.06S83.67,219.42,89,249.84l26.77-2.77s-2-11.79-1.27-22.15l5.7-1.71s8.7,19.4,10.09,41.83l31.3-9C162.08,250.29,158.09,192.82,97.31,202.06Z" fill="#fff" fill-rule="evenodd" opacity="0.25"/>
            <path id="Path_1389" data-name="Path 1389" d="M163.63,246.44c3.06,29.61-23.39,66.49-45.51,68.78C97,317.41,59.46,287.14,56.4,257.53a53.9,53.9,0,0,1,107.23-11.09Z" fill="none" stroke="#1c6dc6" stroke-miterlimit="10" stroke-width="2" fill-rule="evenodd"/>
            <path id="Path_1390" data-name="Path 1390" d="M204.08,296.72c1.81,29.72-26.18,65.45-48.38,66.8-21.23,1.29-57.42-30.54-59.22-60.26a53.9,53.9,0,1,1,107.6-6.54Z" fill-rule="evenodd" fill="url(#linear-gradient-22)"/>
            <path id="Path_1391" data-name="Path 1391" d="M147.39,370.8a14.78,14.78,0,0,1,4.33-7.4l8-.49s3.59,3,4.15,7.09C163.91,370,159.25,372.13,147.39,370.8Z" fill-rule="evenodd" fill="url(#linear-gradient-23)"/>
            <path id="Path_1392" data-name="Path 1392" d="M147.39,370.8a14.78,14.78,0,0,1,4.33-7.4l8-.49s3.59,3,4.15,7.09C163.91,370,159.25,372.13,147.39,370.8Z" fill="none" stroke="#9bb1ba" stroke-miterlimit="10" stroke-width="2" fill-rule="evenodd"/>
            <path id="Path_1393" data-name="Path 1393" d="M176.2,263c-1.22.87,4.32,5.78,11,8.25,0,0-.11-6.45-5.76-8.73A5.67,5.67,0,0,0,176.2,263Z" fill="#fff" fill-rule="evenodd"/>
            <path id="Path_1394" data-name="Path 1394" d="M198.43,316.91s1.52-13.31,3.34-21.07C201.77,295.84,203.24,309.1,198.43,316.91Z" fill="#fff" fill-rule="evenodd"/>
            <path id="Path_1395" data-name="Path 1395" d="M115.82,337s5.87,14.35,21.63,18.1C137.45,355.11,123.72,341.62,115.82,337Z" fill="#fff" fill-rule="evenodd"/>
            <path id="Path_1396" data-name="Path 1396" d="M139.7,249.57S125.33,266.34,129.4,297l26.87-1.64s-1.54-11.86-.33-22.18l5.77-1.46s7.86,19.75,8.3,42.22l31.65-7.62C202.37,300.51,200.81,242.92,139.7,249.57Z" fill="#fff" fill-rule="evenodd" opacity="0.25"/>
            <path id="Path_1397" data-name="Path 1397" d="M204.08,296.72c1.81,29.72-26.18,65.45-48.38,66.8-21.23,1.29-57.42-30.54-59.22-60.26a53.9,53.9,0,1,1,107.6-6.54Z" fill="none" stroke="#9bb1ba" stroke-miterlimit="10" stroke-width="2" fill-rule="evenodd"/>
            <path id="Path_1398" data-name="Path 1398" d="M99.41,541a168.055,168.055,0,0,1,29.67-.62c18.75,1,38.36,4.84,54.24,15.37.08,0,.45,0,.33-.1-15.73-10.43-35-14.15-53.53-15.37a166.15,166.15,0,0,0-30.82.57c-.27,0,0,.17.11.15Z" fill="none" stroke="#64acbf" stroke-linecap="round" stroke-linejoin="round" stroke-width="2.61"/>
            <path id="Path_1399" data-name="Path 1399" d="M200.22,532.29c10.94-10.78,29.79-9.54,43.06-5.3.11,0,.45,0,.21-.12-13.48-4.31-32.56-5.59-43.64,5.34-.07.08.29.16.37.08Z" fill="none" stroke="#64acbf" stroke-linecap="round" stroke-linejoin="round" stroke-width="2.61"/>
            <path id="Path_1400" data-name="Path 1400" d="M159.83,545.13c16.44-14.24,41.17-16.21,60.62-7.89.16.07.39,0,.15-.12-19.64-8.39-44.52-6.51-61.13,7.87-.08.07.27.21.36.14Z" fill="none" stroke="#64acbf" stroke-linecap="round" stroke-linejoin="round" stroke-width="2.61"/>
          </g>
        </g>
      </g>
    </g>
  </g>
</svg>
