<svg xmlns="http://www.w3.org/2000/svg" width="55.818" height="55.818" viewBox="0 0 55.818 55.818">
  <g id="Web_Margin" transform="translate(-2302 -2823)">
    <g id="Group_1245" data-name="Group 1245" transform="translate(2302 2823)" opacity="0">
      <circle id="Ellipse_245" data-name="Ellipse 245" cx="27.909" cy="27.909" r="27.909" fill="#69737b"/>
    </g>
    <g id="Web_icon" transform="translate(2304 2825)">
      <circle id="Ellipse_248" data-name="Ellipse 248" cx="25.947" cy="25.947" r="25.947" fill="#00a4e4"/>
      <g id="Icon_feather-globe" data-name="Icon feather-globe" transform="translate(12.937 12.937)">
        <path id="Path_1520" data-name="Path 1520" d="M29.819,16.409A13.409,13.409,0,1,1,16.409,3,13.409,13.409,0,0,1,29.819,16.409Z" transform="translate(-3 -3)" fill="none" stroke="#fff" stroke-linecap="round" stroke-linejoin="round" stroke-width="3"/>
        <path id="Path_1521" data-name="Path 1521" d="M3,18H29.819" transform="translate(-3 -4.591)" fill="none" stroke="#fff" stroke-linecap="round" stroke-linejoin="round" stroke-width="3"/>
        <path id="Path_1522" data-name="Path 1522" d="M17.364,3a20.516,20.516,0,0,1,5.364,13.409,20.516,20.516,0,0,1-5.364,13.409A20.516,20.516,0,0,1,12,16.409,20.516,20.516,0,0,1,17.364,3Z" transform="translate(-3.954 -3)" fill="none" stroke="#fff" stroke-linecap="round" stroke-linejoin="round" stroke-width="3"/>
      </g>
    </g>
  </g>
</svg>
