<svg id="Clipboard" xmlns="http://www.w3.org/2000/svg" width="52" height="52" viewBox="0 0 52 52">
  <circle id="Ellipse_248" data-name="Ellipse 248" cx="26" cy="26" r="26" fill="#00a4e4"/>
  <path id="Icon_awesome-link" data-name="Icon awesome-link" d="M14.545,8.256a6.766,6.766,0,0,1,.016,9.556l-.016.016-2.993,2.993A6.769,6.769,0,0,1,1.98,11.249L3.632,9.6a.712.712,0,0,1,1.215.472,8.206,8.206,0,0,0,.432,2.348.717.717,0,0,1-.168.74l-.583.583A3.206,3.206,0,1,0,9.033,18.3l2.993-2.992a3.206,3.206,0,0,0,0-4.535,3.336,3.336,0,0,0-.461-.382.714.714,0,0,1-.309-.561A1.774,1.774,0,0,1,11.777,8.5l.938-.938a.715.715,0,0,1,.917-.077,6.79,6.79,0,0,1,.914.766Zm6.276-6.277a6.777,6.777,0,0,0-9.573,0L8.256,4.972l-.016.016a6.77,6.77,0,0,0,.93,10.322.715.715,0,0,0,.917-.077l.938-.938a1.774,1.774,0,0,0,.521-1.327.714.714,0,0,0-.309-.561,3.336,3.336,0,0,1-.461-.382,3.206,3.206,0,0,1,0-4.535L13.768,4.5a3.206,3.206,0,1,1,4.505,4.563l-.583.583a.717.717,0,0,0-.168.74,8.206,8.206,0,0,1,.432,2.348.712.712,0,0,0,1.215.472l1.652-1.652a6.776,6.776,0,0,0,0-9.573Z" transform="translate(14.478 14.804)" fill="#fafafa"/>
</svg>
