<svg xmlns="http://www.w3.org/2000/svg" width="52" height="52" viewBox="0 0 52 52">
  <g id="Line" transform="translate(-849 -1745)">
    <g id="Group_1170" data-name="Group 1170" transform="translate(849 1745)">
      <circle id="Ellipse_245" data-name="Ellipse 245" cx="26" cy="26" r="26" fill="#00a4e4"/>
    </g>
    <path id="Icon_awesome-line" data-name="Icon awesome-line" d="M30.326,13.629V23.777a.455.455,0,0,1-.464.457H28.208a.482.482,0,0,1-.377-.186L23.1,17.768v6.023a.455.455,0,0,1-.464.457H20.984a.455.455,0,0,1-.464-.457V13.643a.455.455,0,0,1,.464-.457h1.639a.439.439,0,0,1,.377.2l4.729,6.28V13.643a.455.455,0,0,1,.464-.457h1.654A.456.456,0,0,1,30.326,13.629Zm-11.895-.457H16.777a.455.455,0,0,0-.464.457V23.777a.455.455,0,0,0,.464.457h1.654a.455.455,0,0,0,.464-.457V13.629A.464.464,0,0,0,18.431,13.172Zm-3.989,8.506H9.93v-8.05a.455.455,0,0,0-.464-.457H7.813a.455.455,0,0,0-.464.457V23.777a.416.416,0,0,0,.131.314.494.494,0,0,0,.319.128h6.629a.455.455,0,0,0,.464-.457V22.135a.461.461,0,0,0-.45-.457Zm24.588-8.506H32.4a.464.464,0,0,0-.464.457V23.777a.464.464,0,0,0,.464.457h6.629a.455.455,0,0,0,.464-.457V22.15a.455.455,0,0,0-.464-.457H34.518V19.98h4.511a.455.455,0,0,0,.464-.457V17.882a.455.455,0,0,0-.464-.457H34.518V15.713h4.511a.455.455,0,0,0,.464-.457V13.629a.484.484,0,0,0-.464-.457Z" transform="translate(851.1 1752.969)" fill="#fafafa"/>
  </g>
</svg>
