<svg xmlns="http://www.w3.org/2000/svg" width="40.062" height="40.062" viewBox="0 0 40.062 40.062">
  <path id="_005-twitter" data-name="005-twitter" d="M20.031,0A20.031,20.031,0,1,0,40.062,20.031,20.033,20.033,0,0,0,20.031,0Zm9.146,15.618q.013.3.013.594A12.993,12.993,0,0,1,16.109,29.294h0a13.014,13.014,0,0,1-7.047-2.065,9.351,9.351,0,0,0,1.1.064,9.225,9.225,0,0,0,5.71-1.968,4.6,4.6,0,0,1-4.3-3.193,4.582,4.582,0,0,0,2.077-.079,4.6,4.6,0,0,1-3.689-4.507c0-.021,0-.039,0-.059a4.566,4.566,0,0,0,2.082.575,4.6,4.6,0,0,1-1.423-6.138,13.053,13.053,0,0,0,9.477,4.8,4.6,4.6,0,0,1,7.835-4.193,9.222,9.222,0,0,0,2.92-1.116,4.616,4.616,0,0,1-2.022,2.543,9.17,9.17,0,0,0,2.64-.724,9.344,9.344,0,0,1-2.293,2.381Zm0,0" fill="#043d5d"/>
</svg>
