<svg xmlns="http://www.w3.org/2000/svg" width="40" height="40" viewBox="0 0 40 40">
  <path id="Exclusion_1" data-name="Exclusion 1" d="M20,40a20.14,20.14,0,0,1-4.03-.406,19.891,19.891,0,0,1-7.151-3.01,20.063,20.063,0,0,1-7.247-8.8A19.9,19.9,0,0,1,.406,24.03a20.187,20.187,0,0,1,0-8.06,19.891,19.891,0,0,1,3.01-7.151,20.063,20.063,0,0,1,8.8-7.247A19.9,19.9,0,0,1,15.97.406a20.187,20.187,0,0,1,8.06,0,19.891,19.891,0,0,1,7.151,3.01,20.063,20.063,0,0,1,7.247,8.8,19.9,19.9,0,0,1,1.166,3.754,20.187,20.187,0,0,1,0,8.06,19.891,19.891,0,0,1-3.01,7.151,20.063,20.063,0,0,1-8.8,7.247,19.9,19.9,0,0,1-3.754,1.166A20.14,20.14,0,0,1,20,40ZM20,9.688c-5.947,0-10.785,3.952-10.785,8.811,0,4.336,3.793,7.991,9.019,8.69.3.064.823.218.951.534a2.31,2.31,0,0,1,.034.977l-.147.922-.006.037v0a.775.775,0,0,0,.063.589.361.361,0,0,0,.289.111,1.638,1.638,0,0,0,.6-.155,28.38,28.38,0,0,0,3.826-2.354A27.012,27.012,0,0,0,28.5,23.9a7.852,7.852,0,0,0,2.29-5.4C30.79,13.64,25.951,9.688,20,9.688Zm6.62,11.7H24.479a.556.556,0,0,1-.4-.168.568.568,0,0,1-.166-.4V16.5a.569.569,0,0,1,.566-.57h2.145a.556.556,0,0,1,.4.168.573.573,0,0,1,0,.805.561.561,0,0,1-.4.167H25.046V18.09h1.577a.57.57,0,0,1,0,1.141H25.046v1.017h1.577a.569.569,0,0,1,0,1.139Zm-9.192,0a.556.556,0,0,1-.4-.168.568.568,0,0,1-.165-.4V16.5a.569.569,0,0,1,.566-.57.557.557,0,0,1,.4.168.569.569,0,0,1,.166.4v4.315A.569.569,0,0,1,17.432,21.387Zm-1.649,0H13.638a.571.571,0,0,1-.566-.569V16.5a.567.567,0,0,1,.167-.4.56.56,0,0,1,.4-.168.569.569,0,0,1,.566.57v3.745h1.578a.569.569,0,0,1,.4.971A.559.559,0,0,1,15.783,21.387Zm3.588,0a.566.566,0,0,1-.563-.569V16.5a.567.567,0,0,1,.387-.538.527.527,0,0,1,.174-.03.582.582,0,0,1,.445.23l2.213,3.012V16.5a.569.569,0,0,1,.566-.57.56.56,0,0,1,.4.168.567.567,0,0,1,.167.4v4.315a.569.569,0,0,1-.388.539.58.58,0,0,1-.179.028.555.555,0,0,1-.458-.227l-2.2-3v2.659A.569.569,0,0,1,19.371,21.386Z" fill="#043d5d"/>
</svg>
