<svg id="_002-instagram" data-name="002-instagram" xmlns="http://www.w3.org/2000/svg" width="40.062" height="40.062" viewBox="0 0 40.062 40.062">
  <path id="Path_3746" data-name="Path 3746" d="M214.668,210.834A3.834,3.834,0,1,1,210.834,207,3.834,3.834,0,0,1,214.668,210.834Zm0,0" transform="translate(-190.803 -190.803)" fill="#043d5d"/>
  <path id="Path_3747" data-name="Path 3747" d="M153.881,138.135a3.809,3.809,0,0,0-2.183-2.183,6.364,6.364,0,0,0-2.136-.4c-1.213-.055-1.577-.067-4.648-.067s-3.435.012-4.648.067a6.368,6.368,0,0,0-2.136.4,3.811,3.811,0,0,0-2.183,2.183,6.367,6.367,0,0,0-.4,2.136c-.055,1.213-.067,1.577-.067,4.648s.012,3.435.067,4.648a6.364,6.364,0,0,0,.4,2.136,3.809,3.809,0,0,0,2.183,2.183,6.356,6.356,0,0,0,2.136.4c1.213.055,1.576.067,4.648.067s3.435-.012,4.648-.067a6.356,6.356,0,0,0,2.136-.4,3.809,3.809,0,0,0,2.183-2.183,6.37,6.37,0,0,0,.4-2.136c.055-1.213.067-1.577.067-4.648s-.012-3.435-.067-4.648A6.357,6.357,0,0,0,153.881,138.135Zm-8.967,12.69a5.906,5.906,0,1,1,5.906-5.906A5.906,5.906,0,0,1,144.915,150.825Zm6.14-10.666a1.38,1.38,0,1,1,1.38-1.38A1.38,1.38,0,0,1,151.054,140.159Zm0,0" transform="translate(-124.884 -124.887)" fill="#043d5d"/>
  <path id="Path_3748" data-name="Path 3748" d="M20.031,0A20.031,20.031,0,1,0,40.062,20.031,20.033,20.033,0,0,0,20.031,0ZM31.464,24.773a8.439,8.439,0,0,1-.535,2.792,5.881,5.881,0,0,1-3.364,3.364,8.445,8.445,0,0,1-2.792.535c-1.227.056-1.618.069-4.742.069s-3.516-.013-4.742-.069a8.445,8.445,0,0,1-2.792-.535,5.881,5.881,0,0,1-3.364-3.364A8.437,8.437,0,0,1,8.6,24.773c-.057-1.227-.07-1.619-.07-4.742s.013-3.516.069-4.742A8.44,8.44,0,0,1,9.132,12.5,5.885,5.885,0,0,1,12.5,9.133,8.447,8.447,0,0,1,15.289,8.6c1.227-.056,1.618-.069,4.742-.069s3.516.013,4.742.07a8.449,8.449,0,0,1,2.792.534A5.883,5.883,0,0,1,30.929,12.5a8.438,8.438,0,0,1,.535,2.792c.056,1.227.069,1.618.069,4.742S31.52,23.547,31.464,24.773Zm0,0" fill="#043d5d"/>
</svg>
